<?xml version="1.0" standalone="no"?> 
<!DOCTYPE svg PUBLIC "-//W3C//DTD SVG 1.1//EN" "http://www.w3.org/Graphics/SVG/1.1/DTD/svg11.dtd" >
<svg xmlns="http://www.w3.org/2000/svg">
<defs>
  <font id="iconae-filled" horiz-adv-x="512">
    <font-face font-family="iconae-filled"
      units-per-em="512" ascent="448"
      descent="64" />
    <missing-glyph horiz-adv-x="0" />
    <glyph glyph-name="arrow-circle-down"
      unicode="&#xF101;"
      horiz-adv-x="512" d=" M256 448C114.6 448 0 333.4 0 192S114.6 -64 256 -64S512 50.6 512 192S397.4 448 256 448zM256 82.7L121.4 217.4L166.7 262.7L256.1 173.3L345.5 262.7L390.8 217.4L256 82.7z" />
    <glyph glyph-name="arrow-circle-left"
      unicode="&#xF102;"
      horiz-adv-x="512" d=" M256 448C114.6 448 0 333.4 0 192S114.6 -64 256 -64S512 50.6 512 192S397.4 448 256 448zM326.6 102.6L281.3 57.3L146.7 192L281.3 326.6L326.6 281.3L237.3 192L326.6 102.6z" />
    <glyph glyph-name="arrow-circle-right"
      unicode="&#xF103;"
      horiz-adv-x="512" d=" M256 448C114.6 448 0 333.4 0 192S114.6 -64 256 -64S512 50.6 512 192S397.4 448 256 448zM230.6 57.4L185.3 102.7L274.7000000000001 192.1L185.3000000000001 281.5L230.6 326.8L365.3 192L230.6 57.4z" />
    <glyph glyph-name="arrow-circle-up"
      unicode="&#xF104;"
      horiz-adv-x="512" d=" M256 448C114.6 448 0 333.4 0 192S114.6 -64 256 -64S512 50.6 512 192S397.4 448 256 448zM345.4 121.4L256 210.7L166.6 121.3L121.3 166.6L256 301.3L390.6 166.7000000000001L345.4000000000001 121.4z" />
    <glyph glyph-name="arrow-double-down"
      unicode="&#xF105;"
      horiz-adv-x="512" d=" M256 45.3L118.6 182.6L73.4 137.4L256 -45.3L438.6 137.4L393.4000000000001 182.6z M438.6 361.4L393.4000000000001 406.6L256 269.3L118.6 406.6L73.4 361.4L256 178.7z" />
    <glyph glyph-name="arrow-double-left"
      unicode="&#xF106;"
      horiz-adv-x="512" d=" M246.6 329.4L201.4 374.6L18.7 192L201.4 9.4L246.6 54.6L109.3 192z M470.6 329.4L425.4000000000001 374.6L242.7 192L425.4 9.4L470.6 54.6L333.3 192z" />
    <glyph glyph-name="arrow-double-right"
      unicode="&#xF107;"
      horiz-adv-x="512" d=" M310.6 374.6L265.4000000000001 329.4L402.7 192L265.4 54.6L310.6 9.4L493.3 192z M86.6 374.6L41.4 329.4L178.7 192L41.4 54.6L86.6 9.4L269.3 192z" />
    <glyph glyph-name="arrow-double-up"
      unicode="&#xF108;"
      horiz-adv-x="512" d=" M256 338.7L393.4 201.4L438.6 246.6L256 429.3L73.4 246.6L118.6 201.4z M73.4 22.6L118.6 -22.6L256 114.7L393.4 -22.6L438.6 22.6L256 205.3z" />
    <glyph glyph-name="arrow-down-alias"
      unicode="&#xF109;"
      horiz-adv-x="512" d=" M208 416V77.3L54.6 230.6L9.4 185.4L240 -45.3L470.6 185.4L425.4000000000001 230.6L272 77.3V416z" />
    <glyph glyph-name="arrow-down"
      unicode="&#xF10A;"
      horiz-adv-x="512" d=" M457.4 310.6L256 109.3L54.6 310.6L9.4 265.4L256 18.7L502.6 265.4z" />
    <glyph glyph-name="arrow-left-alias"
      unicode="&#xF10B;"
      horiz-adv-x="512" d=" M265.4 438.6L18.7 192L265.4 -54.6L310.6 -9.4L141.3 160H480V224H141.3L310.6 393.4z" />
    <glyph glyph-name="arrow-left"
      unicode="&#xF10C;"
      horiz-adv-x="512" d=" M406.6 393.4L361.4 438.6L114.7 192L361.4 -54.6L406.6 -9.4L205.3 192z" />
    <glyph glyph-name="arrow-right-alias"
      unicode="&#xF10D;"
      horiz-adv-x="512" d=" M246.6 438.6L201.4 393.4L370.7 224H32V160H370.7L201.4 -9.4L246.6 -54.6L493.3 192z" />
    <glyph glyph-name="arrow-right"
      unicode="&#xF10E;"
      horiz-adv-x="512" d=" M182.6 438.6L137.4 393.4L338.7 192L137.4 -9.4L182.6 -54.6L429.3 192z" />
    <glyph glyph-name="arrow-small-down"
      unicode="&#xF10F;"
      horiz-adv-x="512" d=" M393.4 278.6L256 141.3L118.6 278.6L73.4 233.4L256 50.7L438.6 233.4z" />
    <glyph glyph-name="arrow-small-left"
      unicode="&#xF110;"
      horiz-adv-x="512" d=" M374.6 329.4L329.4000000000001 374.6L146.7 192L329.4 9.4L374.6 54.6L237.3 192z" />
    <glyph glyph-name="arrow-small-right"
      unicode="&#xF111;"
      horiz-adv-x="512" d=" M214.6 374.6L169.4 329.4L306.7 192L169.4 54.6L214.6 9.4L397.3 192z" />
    <glyph glyph-name="arrow-small-up"
      unicode="&#xF112;"
      horiz-adv-x="512" d=" M256 301.3L73.4 118.6L118.6 73.4L256 210.7L393.4 73.4L438.6 118.6z" />
    <glyph glyph-name="arrow-up-alias"
      unicode="&#xF113;"
      horiz-adv-x="512" d=" M240 429.3L9.4 198.6L54.6 153.4L208 306.7V-32H272V306.7L425.4 153.4L470.6 198.6z" />
    <glyph glyph-name="arrow-up"
      unicode="&#xF114;"
      horiz-adv-x="512" d=" M256 333.3L9.4 86.6L54.6 41.4L256 242.7L457.4 41.4L502.6 86.6z" />
    <glyph glyph-name="bell"
      unicode="&#xF115;"
      horiz-adv-x="512" d=" M416 96V256C416 333.4 361 398 288 412.8V416C288 433.7 273.7 448 256 448S224 433.7 224 416V412.8C151 398 96 333.4 96 256V96L32 32H480L416 96zM256 -64C291.3 -64 320 -35.3 320 0H192C192 -35.3 220.7 -64 256 -64z" />
    <glyph glyph-name="bin"
      unicode="&#xF116;"
      horiz-adv-x="512" d=" M480 352H384V416C384 433.7 369.7 448 352 448H160C142.3 448 128 433.7 128 416V352H32C14.3 352 0 337.7 0 320V288H64V-32C64 -49.7 78.3 -64 96 -64H416C433.7 -64 448 -49.7 448 -32V288H512V320C512 337.7 497.7 352 480 352zM224 16C224 7.2 216.8 0 208 0S192 7.2 192 16V240C192 248.8 199.2 256 208 256S224 248.8 224 240V16zM320 16C320 7.2 312.8 0 304 0S288 7.2 288 16V240C288 248.8 295.2 256 304 256S320 248.8 320 240V16zM352 352H160V416H352V352z" />
    <glyph glyph-name="calendar"
      unicode="&#xF117;"
      horiz-adv-x="512" d=" M192 160H256V96H192zM288 160H352V96H288z M480 384H448V352V416C448 433.7 433.7 448 416 448H384C366.3 448 352 433.7 352 416V384H192V416C192 433.7 177.7 448 160 448H128C110.3 448 96 433.7 96 416V384H64C46.3 384 32 369.7 32 352V-32C32 -49.7 46.3 -64 64 -64H480C497.7 -64 512 -49.7 512 -32V352C512 369.7 497.7 384 480 384zM384 416H416V352H384V416zM128 416H160V352H128V416zM448 160H384V96H448V64H384V0H352V64H288V0H256V64H192V0H160V64H96V96H160V160H96V192H160V256H192V192H256V256H288V192H352V256H384V192H448V160z" />
    <glyph glyph-name="cart"
      unicode="&#xF118;"
      horiz-adv-x="512" d=" M474 306.7C468 315 458.3 320 448 320H128V384C128 401.7 113.7 416 96 416H32C14.3 416 0 401.7 0 384S14.3 352 32 352H64V96C64 78.3 78.3 64 96 64H384C397.8 64 410 72.8 414.4 85.9L478.4 277.9C481.6 287.6 480 298.4 474 306.7z M64 -16C64 -42.5096679918781 85.4903320081219 -64 112 -64C138.5096679918781 -64 160 -42.5096679918781 160 -16C160 10.5096679918781 138.5096679918781 32 112 32C85.4903320081219 32 64 10.5096679918781 64 -16z M320 -16C320 -42.5096679918781 341.4903320081219 -64 368 -64C394.5096679918781 -64 416 -42.5096679918781 416 -16C416 10.5096679918781 394.5096679918781 32 368 32C341.4903320081219 32 320 10.5096679918781 320 -16z" />
    <glyph glyph-name="check"
      unicode="&#xF119;"
      horiz-adv-x="512" d=" M457.4 374.6L192 109.3L54.6 246.6L9.4 201.4L192 18.7L502.6 329.4z" />
    <glyph glyph-name="circle-check"
      unicode="&#xF11A;"
      horiz-adv-x="512" d=" M256 448C114.6 448 0 333.4 0 192S114.6 -64 256 -64S512 50.6 512 192S397.4 448 256 448zM224 50.7L105.4 169.4L150.7 214.7L224.1 141.3L361.5 278.7L406.8 233.4L224 50.7z" />
    <glyph glyph-name="circle-cross"
      unicode="&#xF11B;"
      horiz-adv-x="512" d=" M256 448C114.6 448 0 333.4 0 192S114.6 -64 256 -64S512 50.6 512 192S397.4 448 256 448zM369.1 124.1L323.8 78.8L256 146.7000000000001L188.1 78.8000000000001L142.8 124.1000000000001L210.7 192.0000000000001L142.8 259.9000000000001L188.1 305.2000000000001L256 237.3000000000001L323.9 305.2000000000001L369.2 259.9000000000001L301.3 192.0000000000001L369.1 124.1000000000001z" />
    <glyph glyph-name="circle-minus"
      unicode="&#xF11C;"
      horiz-adv-x="512" d=" M256 448C114.6 448 0 333.4 0 192S114.6 -64 256 -64S512 50.6 512 192S397.4 448 256 448zM384 160H128V224H384V160z" />
    <glyph glyph-name="circle-plus"
      unicode="&#xF11D;"
      horiz-adv-x="512" d=" M256 448C114.6 448 0 333.4 0 192S114.6 -64 256 -64S512 50.6 512 192S397.4 448 256 448zM384 160H288V64H224V160H128V224H224V320H288V224H384V160z" />
    <glyph glyph-name="clock"
      unicode="&#xF11E;"
      horiz-adv-x="512" d=" M256 416C132.3 416 32 315.7 32 192S132.3 -32 256 -32S480 68.3 480 192S379.7 416 256 416zM347.3 100.7C344.2 97.6 340.1 96 336 96S327.8 97.6 324.7 100.7L244.7 180.7C244.3 181.1 244 181.5 243.6 181.9C243.5 182.1 243.3 182.3 243.2 182.5C243 182.7 242.8 183 242.7 183.2C242.5 183.4 242.4 183.7 242.3 183.9C242.2 184.1 242 184.3 241.9 184.5C241.8 184.7 241.7 185 241.5 185.2C241.4 185.4 241.3 185.7 241.2 185.9C241.1 186.1 241 186.4 240.9 186.6C240.8 186.8 240.7 187.1 240.6 187.4C240.5 187.6 240.5 187.9 240.4 188.1C240.3 188.4 240.3 188.6 240.2 188.9C240.1 189.2 240.1 189.5 240.1 189.8C240.1 190 240 190.1999999999999 240 190.5C239.9 191 239.9 191.6 239.9 192.0999999999999V304C239.9 312.8 247.1 320 255.9 320S271.9 312.8 271.9 304V198.6L347.2 123.3C353.6 117.1 353.6 106.9 347.3 100.7z" />
    <glyph glyph-name="cloud"
      unicode="&#xF11F;"
      horiz-adv-x="512" d=" M416 222.9V224C416 312.4 344.4 384 256 384C188.6 384 130.9 342.3 107.4 283.3C45.6 267.1 0 210.9 0 144C0 64.5 64.5 0 144 0H400C461.9 0 512 50.1 512 112C512 168.4 470.3 215.1 416 222.9z" />
    <glyph glyph-name="cross"
      unicode="&#xF120;"
      horiz-adv-x="512" d=" M120.2 11L256 146.7L391.8 11L437 56.2L301.3 192L437 327.8L391.8 373L256 237.3L120.2 373L75 327.8L210.7 192L75 56.2z" />
    <glyph glyph-name="dots"
      unicode="&#xF121;"
      horiz-adv-x="512" d=" M192 192C192 156.6537760108292 220.6537760108292 128 256 128C291.3462239891708 128 320 156.6537760108292 320 192C320 227.3462239891708 291.3462239891708 256 256 256C220.6537760108292 256 192 227.3462239891708 192 192z M384 192C384 156.6537760108292 412.6537760108293 128 448 128C483.3462239891708 128 512 156.6537760108292 512 192C512 227.3462239891708 483.3462239891708 256 448 256C412.6537760108293 256 384 227.3462239891708 384 192z M0 192C0 156.6537760108292 28.6537760108292 128 64 128C99.3462239891708 128 128 156.6537760108292 128 192C128 227.3462239891708 99.3462239891708 256 64 256C28.6537760108292 256 0 227.3462239891708 0 192z" />
    <glyph glyph-name="download"
      unicode="&#xF122;"
      horiz-adv-x="512" d=" M32 32H480V-32H32zM422.6 248.4L377.4000000000001 293.6L288 204.3V416H224V204.3L134.6 293.6L89.4 248.4000000000001L256 81.7z" />
    <glyph glyph-name="exit"
      unicode="&#xF123;"
      horiz-adv-x="512" d=" M256 32H96V352H256V288H320V416H32V-32H320V96H256z M377.6 326.6L332.4000000000001 281.4L389.7000000000001 224H160V160H389.7L332.4 102.6L377.6 57.4L512.3 192z" />
    <glyph glyph-name="eye"
      unicode="&#xF124;"
      horiz-adv-x="512" d=" M256 256C220.7 256 192 227.3 192 192S220.7 128 256 128S320 156.7 320 192S291.3 256 256 256z M256 352C123.5 352 0 192 0 192S123.5 32 256 32S512 192 512 192S388.5 352 256 352zM256 96C203 96 160 139 160 192S203 288 256 288S352 245 352 192S309 96 256 96z" />
    <glyph glyph-name="facebook-square"
      unicode="&#xF125;"
      horiz-adv-x="512" d=" M416 416H96C60.7 416 32 387.3 32 352V32C32 -3.3 60.7 -32 96 -32H256V140H192V210H256V261.1C256 319.3 288 352 340 352C364.9 352 385.8 348.8 392 348V288H358.9C330.6 288 320 273.3 320 253.6V210H398L384 140H320V-32H416C451.3 -32 480 -3.3 480 32V352C480 387.3 451.3 416 416 416z" />
    <glyph glyph-name="facebook"
      unicode="&#xF126;"
      horiz-adv-x="512" d=" M270 302C270 325 279.7 340 312.7 340H352.1L352 410C344.7 411 319 416 290 416C229.4 416 192 377.9 192 310V250H120V170H192V-32H270V170H338L352 250H270V302z" />
    <glyph glyph-name="file"
      unicode="&#xF127;"
      horiz-adv-x="512" d=" M288 416V256H448z M256 416H64V-32H448V224H256z" />
    <glyph glyph-name="floppy"
      unicode="&#xF128;"
      horiz-adv-x="512" d=" M470.6 297.4L361.4 406.6C355.4 412.6 347.3 416 338.8 416H64C46.3 416 32 401.7 32 384V0C32 -17.7 46.3 -32 64 -32H448C465.7 -32 480 -17.7 480 0V274.7C480 283.2 476.6 291.4 470.6 297.4zM128 384H288V288H128V384zM256 64C220.7 64 192 92.7 192 128S220.7 192 256 192S320 163.3 320 128S291.3 64 256 64z" />
    <glyph glyph-name="folder"
      unicode="&#xF129;"
      horiz-adv-x="512" d=" M448 352H320L256 416H64C28.7 416 0 387.3 0 352V32C0 -3.3 28.7 -32 64 -32H448C483.3 -32 512 -3.3 512 32V288C512 323.3 483.3 352 448 352z" />
    <glyph glyph-name="gear"
      unicode="&#xF12A;"
      horiz-adv-x="512" d=" M480 160V224H412.8C408.7 244.4 400.6 263.4 389.5 280.2L437 327.7L391.8 373L344.3 325.5C327.5 336.6 308.5 344.7 288.1 348.8V416H224.1V348.8C203.7 344.7 184.7 336.6 167.9 325.5L120.2 373L75 327.8L122.5 280.3C111.4 263.5 103.3 244.5 99.2 224.1H32V160.1H99.2C103.3 139.7000000000001 111.4 120.7000000000001 122.5 103.9L75 56.2L120.3 10.9L167.8 58.4C184.6 47.3 203.6 39.2 224 35.1V-32H288V35.2C308.4 39.3 327.4 47.4 344.2 58.5L391.7 11L437 56.3L389.5 103.8C400.6 120.6 408.7 139.6 412.8 160H480zM256 128C220.7 128 192 156.7 192 192S220.7 256 256 256S320 227.3 320 192S291.3 128 256 128z" />
    <glyph glyph-name="globe"
      unicode="&#xF12B;"
      horiz-adv-x="512" d=" M314.3 288C309.8 324.4 302.8 357.6 293.5 385.5C276.3 437.1 258.8 448 256 448C253.2 448 235.7 437.1 218.5 385.5C209.2 357.5 202.1 324.3 197.7 288H314.3zM320 192C320 213.9 319.2 235.3 317.5 256H194.5C192.9 235.3 192 213.9 192 192S192.8 148.7 194.5 128H317.6C319.2000000000001 148.7 320 170.1 320 192zM346.5 288H493.3C461 367.9 389.5 427.7 302.7 443.7C322.9 409.8 338.7 354.5 346.5 288zM503.9 128C509.2 148.5 512 169.9 512 192S509.2 235.5 503.9 256H349.6C351.2000000000001 235.4 352 214 352 192S351.2 148.6 349.6 128H503.9zM197.7 96C202.2 59.6 209.2 26.4 218.5 -1.5C235.7 -53.1 253.3 -64 256 -64S276.3 -53.1 293.5 -1.5C302.8 26.5 309.9 59.7 314.3 96H197.7zM346.5 96C338.7 29.5 322.9 -25.8 302.6 -59.7C389.5 -43.7 461 16.1 493.3 96H346.5zM165.5 288C173.3 354.5 189.1 409.8 209.4 443.7C122.5 427.7 51 367.9 18.6 288H165.5zM165.5 96H18.6C51 16.1 122.5 -43.7 209.3 -59.7C189.1 -25.8 173.3 29.5 165.5 96zM8.1 256C2.8 235.5 0 214.1 0 192S2.8 148.5 8.1 128H162.4C160.8 148.6 160 170 160 192S160.8 235.4 162.4 256H8.1z" />
    <glyph glyph-name="hamburger"
      unicode="&#xF12C;"
      horiz-adv-x="512" d=" M96 352H448V288H96zM96 96H448V32H96zM96 224H448V160H96z" />
    <glyph glyph-name="heart"
      unicode="&#xF12D;"
      horiz-adv-x="512" d=" M352 416C317.8 416 285.7 402.7 261.5 378.5C259.6 376.6 257.8 374.7 256 372.7C254.2 374.7 252.4 376.6 250.5 378.5C226.3 402.7 194.2 416 160 416C142.7 416 125.8 412.5 109.9 405.6C94.7 399 81.1 389.7 69.3 377.9C57.6 366.1 48.5 352.5 42 337.3C35.4 321.6 32 305 32 288C32 229.5 66.8 158.6 135.6 77.5C184.7 19.5 233.1 -22.4 235.1 -24.2L256 -42.2L276.9 -24.2C278.9 -22.4 327.4 19.5 376.4 77.5C445.2 158.6 480 229.5 480 288C480 305.2 476.6 321.9 469.9 337.6C463.5 352.8 454.2 366.5 442.5 378.2C418.3 402.6 386.2 416 352 416z" />
    <glyph glyph-name="instagram"
      unicode="&#xF12E;"
      horiz-adv-x="512" d=" M478.7 284.4C477.6 308.2000000000001 473.8 324.5 468.3 338.8C462.6 353.5 454.9 366 442.5 378.5C430 391 417.6 398.6 402.8 404.3C388.6 409.8 372.3 413.6 348.4000000000001 414.7C324.5000000000001 415.7 316.8 416 256 416S187.5 415.7 163.6 414.7C139.8 413.6 123.5 409.8 109.2 404.3C94.5 398.5 82 390.9 69.6 378.4C57.1 366 49.5 353.5 43.8 338.7C38.3 324.5 34.5 308.2 33.4 284.3C32.3 260.5 32 252.8 32 192S32.3 123.5 33.3 99.6C34.4 75.8 38.2 59.5 43.7 45.2C49.4 30.5000000000001 57.1 18.0000000000001 69.5 5.5000000000001C82 -6.9999999999999 94.4 -14.6 109.2 -20.3C123.4 -25.8 139.7 -29.6 163.6 -30.6999999999999C187.5 -31.8 195.1 -31.9999999999999 256 -31.9999999999999S324.5 -31.6999999999999 348.4 -30.6999999999999C372.2 -29.5999999999999 388.5 -25.8 402.8 -20.3C417.5 -14.6 430 -6.9 442.5 5.5000000000001C454.9999999999999 18.0000000000001 462.6 30.4 468.3 45.2C473.8 59.4 477.6 75.7000000000001 478.6999999999999 99.6C479.8 123.5 479.9999999999999 131.1 479.9999999999999 192C479.9999999999999 252.8 479.6999999999999 260.5 478.6999999999999 284.4000000000001zM256 64C185.3 64 128 121.3 128 192S185.3 320 256 320S384 262.7 384 192S326.7 64 256 64zM384 288C366.3 288 352 302.3 352 320S366.3 352 384 352S416 337.7 416 320S401.7 288 384 288z M256 288C203.1 288 160 244.9 160 192S203.1 96 256 96S352 139.1 352 192S308.9 288 256 288z" />
    <glyph glyph-name="laptop"
      unicode="&#xF12F;"
      horiz-adv-x="512" d=" M96 320H416V128H96z M416 64C451.3 64 480 92.7 480 128V320C480 355.3 451.3 384 416 384H96C60.7 384 32 355.3 32 320V128C32 92.7 60.7 64 96 64H0C0 28.7 28.7 0 64 0H448C483.3 0 512 28.7 512 64H416zM64 128V320C64 337.6 78.4 352 96 352H416C433.6 352 448 337.6 448 320V128C448 110.4 433.6 96 416 96H96C78.4 96 64 110.4 64 128zM320 64C320 46.3 305.7 32 288 32H224C206.3 32 192 46.3 192 64H320z" />
    <glyph glyph-name="like"
      unicode="&#xF130;"
      horiz-adv-x="512" d=" M0 224H96V-64H0zM448 256H352L375.2 348.8C380.7 370.6 374.3 393.7 358.4 409.6L332.2 435.8C325.6 442.4 314.8 442 308.7 434.9L143.4 242C133.5 230.4 128 215.6 128 200.3V0C128 -35.3 156.7 -64 192 -64H404.7C430.9 -64 454.4 -48.1 464.1 -23.8L512 96V192C512 227.3 483.3 256 448 256z" />
    <glyph glyph-name="lock-open"
      unicode="&#xF131;"
      horiz-adv-x="512" d=" M160 224V256C160 308.9 203.1 352 256 352C282.5 352 306.5 341.2 323.9 323.9L369.2 369.2C340.2 398.2 300.2 416.1 256.1 416.1C167.7 416.1 96.1 344.5 96.1 256.1V224.1H64V-31.9H448V224H160z" />
    <glyph glyph-name="lock"
      unicode="&#xF132;"
      horiz-adv-x="512" d=" M416 224V256C416 344.4 344.4 416 256 416S96 344.4 96 256V224H64V-32H448V224H416zM160 256C160 308.9 203.1 352 256 352S352 308.9 352 256V224H160V256z" />
    <glyph glyph-name="mac"
      unicode="&#xF133;"
      horiz-adv-x="512" d=" M448 448H64C28.7 448 0 419.3 0 384V96C0 60.7 28.7 32 64 32H192L160 -32V-64H352V-32L320 32H448C483.3 32 512 60.7 512 96V384C512 419.3 483.3 448 448 448zM480 96H32V384C32 401.6 46.4 416 64 416H448C465.6 416 480 401.6 480 384V96z M64 384H448V128H64z" />
    <glyph glyph-name="mail"
      unicode="&#xF134;"
      horiz-adv-x="512" d=" M453.5 384H58.5L256 186.5z M278.6 118.6C266.1 106.1 245.8 106.1 233.3 118.6L0 352V32C0 14.3 14.3 0 32 0H480C497.7 0 512 14.3 512 32V352L278.6 118.6z" />
    <glyph glyph-name="marker"
      unicode="&#xF135;"
      horiz-adv-x="512" d=" M256 416C167.6 416 96 344.4 96 256C96 128.3 256 -32 256 -32S416 127.3 416 256C416 344.4 344.4 416 256 416zM256 192C220.7 192 192 220.7 192 256S220.7 320 256 320S320 291.3 320 256S291.3 192 256 192z" />
    <glyph glyph-name="message"
      unicode="&#xF136;"
      horiz-adv-x="512" d=" M448 416H64C28.7 416 0 387.3 0 352V128C0 92.7 28.7 64 64 64H352L512 -63.7V352C512 387.3 483.3 416 448 416z" />
    <glyph glyph-name="messages"
      unicode="&#xF137;"
      horiz-adv-x="512" d=" M460 320H448V212.3C448 166 410.3 128.3 364 128.3L140.5 128.1L96 95.3V84C96 55.3 119.3 32 148 32L382 31.8L512 -64V268C512 296.7 488.7 320 460 320z M364 160.3C392.7 160.3 416 183.6 416 212.3V396.3C416 425 392.7 448.3 364 448.3H52C23.3 448.3 0 425 0 396.3V64.3L130 160.1L364 160.3z" />
    <glyph glyph-name="minus"
      unicode="&#xF138;"
      horiz-adv-x="512" d=" M32 224H480V160H32z" />
    <glyph glyph-name="move"
      unicode="&#xF139;"
      horiz-adv-x="512" d=" M512 192L416 288V224H288V352H352L256 448L160 352H224V224H96V288L0 192L96 96V160H224V32H160L256 -64L352 32H288V160H416V96z" />
    <glyph glyph-name="pause-circle"
      unicode="&#xF13A;"
      horiz-adv-x="512" d=" M256 448C114.6 448 0 333.4 0 192S114.6 -64 256 -64S512 50.6 512 192S397.4 448 256 448zM224 96H160V288H224V96zM352 96H288V288H352V96z" />
    <glyph glyph-name="pause"
      unicode="&#xF13B;"
      horiz-adv-x="512" d=" M160 352H224V32H160zM288 352H352V32H288z" />
    <glyph glyph-name="pencil"
      unicode="&#xF13C;"
      horiz-adv-x="512" d=" M32 96V-32H160L384 192L256 320zM448 384C430.1 401.8 408.6 416 384 416C364.5 416 343 407 320 384L288 352L416 224L448 256C500.5 308.5 480.1 352.1 448 384zM288 351.9V352z" />
    <glyph glyph-name="phone"
      unicode="&#xF13D;"
      horiz-adv-x="512" d=" M465.8 105.3L402.3 147.9C391.5 155.1 377.5 155.1 366.7 147.9L304.3 106.3C252.4 141.9 206.5 187.7000000000001 170.8 239.5L211.8 302C218.8 312.7 218.8 326.6 211.7 337.3L169 401.7C163.1 410.6 153.1 416 142.4 416H65.2C46.7 416 31.9 400.3 33.3 381.8C49.9 161.7 225.6 -14.1 445.8 -30.7C464.3 -32.1 480 -17.3 480 1.2V78.7C480 89.4 474.7 99.3 465.8 105.3z" />
    <glyph glyph-name="pin"
      unicode="&#xF13E;"
      horiz-adv-x="512" d=" M352 224V384H384V448H128V384H160V224L96 192V128H224V-64H288V128H416V192z" />
    <glyph glyph-name="play-circle"
      unicode="&#xF13F;"
      horiz-adv-x="512" d=" M256 448C114.6 448 0 333.4 0 192S114.6 -64 256 -64S512 50.6 512 192S397.4 448 256 448zM192 96V288L320 192L192 96z" />
    <glyph glyph-name="play"
      unicode="&#xF140;"
      horiz-adv-x="512" d=" M96 416V-32L416 192z" />
    <glyph glyph-name="plus"
      unicode="&#xF141;"
      horiz-adv-x="512" d=" M480 224H288V416H224V224H32V160H224V-32H288V160H480z" />
    <glyph glyph-name="refresh"
      unicode="&#xF142;"
      horiz-adv-x="512" d=" M480 0.26H416V192.26H480zM224 192V256H144.8C150.4 265.6 157.2 274.6 165.3 282.7C189.5 306.9 221.7 320.3 256 320.3C290.3 320.3 322.5 307 346.7 282.7L392 328C357.2 362.8 309.1 384.3 256 384.3C189.3 384.3 130.5 350.3 96 298.7V384H32V192H224z M480 192.3H288V128.3H367.4C361.8 118.5 354.9 109.5 346.7 101.3C322.5 77.1 290.3 63.7 256 63.7C221.7 63.7 189.5 77 165.3 101.3L120 56C154.8 21.2 202.9 -0.3 256 -0.3C339.9 -0.3 411.2 53.4 437.5 128.3H480V192.3z" />
    <glyph glyph-name="returns"
      unicode="&#xF143;"
      horiz-adv-x="512" d=" M297.4 182.6L342.6 137.4L493.3 288L342.6 438.6L297.4000000000001 393.4L370.7000000000001 320H32V256H370.7z M214.6 201.4L169.4 246.6L18.7 96L169.4 -54.6L214.6 -9.4L141 64.3H480V128.3H141.5z" />
    <glyph glyph-name="search"
      unicode="&#xF144;"
      horiz-adv-x="512" d=" M502.6 -9.4L376 117.3C401.2 151.7 416 194.1 416 240C416 354.9 322.9 448 208 448S0 354.9 0 240S93.1 32 208 32C253.9 32 296.3 46.9 330.7 72L457.4 -54.7L502.6 -9.4z" />
    <glyph glyph-name="share"
      unicode="&#xF145;"
      horiz-adv-x="512" d=" M384 160C358.1 160 334.6 149.8 317.4 133.1L223.3 180.1C223.8 184 224 187.9 224 192C224 196.1 223.7 200.1 223.3 204L317.2 251.1C334.4 234.3 358 224 384 224C437 224 480 267 480 320S437 416 384 416S288 373 288 320C288 316.1 288.2 312.2 288.7 308.5L194.5 261.2C177.3 277.8 153.8 288 128 288C75 288 32 245 32 192S75 96 128 96C153.9 96 177.4 106.2 194.6 122.9L288.7 75.9C288.2 72 288 68.1 288 64C288 11 331 -32 384 -32S480 11 480 64S437 160 384 160z" />
    <glyph glyph-name="shopping-bag"
      unicode="&#xF146;"
      horiz-adv-x="512" d=" M473.7 37.8L448 320H384C383.6 383.8 326.4 415.3 256 415.3S128.4 383.8 128 320H64L38.3 37.8C34.9 0.3 64.4 -32 102 -32H409.8C447.6 -32 477.1 0.3 473.7 37.8zM183.7 365C200.8 376.8 226.5 383.2 256 383.2C285.6 383.2 311.3 376.7 328.3 365C344 354.2 351.7 339.4 351.9000000000001 320H160C160.2 339.5 167.9 354.2 183.7 365z" />
    <glyph glyph-name="smartphone"
      unicode="&#xF147;"
      horiz-adv-x="512" d=" M160 352H352V96H160z M352 448H160C124.7 448 96 419.3 96 384V32C96 -3.3 124.7 -32 160 -32H352C387.3 -32 416 -3.3 416 32V384C416 419.3 387.3 448 352 448zM272 0H240C231.2 0 224 7.2 224 16S231.2 32 240 32H272C280.8 32 288 24.8 288 16S280.8 0 272 0zM384 64H128V384H384V64z" />
    <glyph glyph-name="smartwatch"
      unicode="&#xF148;"
      horiz-adv-x="512" d=" M160 288H352V96H160z M432 256H416V288C416 323.3 387.3 352 352 352V448H160V352C124.7 352 96 323.3 96 288V96C96 60.7 124.7 32 160 32V-64H352V32C387.3 32 416 60.7 416 96V192H432C440.8 192 448 199.2 448 208V240C448 248.8 440.8 256 432 256zM384 96C384 78.4 369.6 64 352 64H160C142.4 64 128 78.4 128 96V288C128 305.6 142.4 320 160 320H352C369.6 320 384 305.6 384 288V96z" />
    <glyph glyph-name="speedometer"
      unicode="&#xF149;"
      horiz-adv-x="512" d=" M256 416C132.3 416 32 315.7 32 192C32 129.3 57.8 72.7 99.3 32H412.8C454.3 72.7 480.1 129.3 480.1 192C480 315.7 379.7 416 256 416zM320 128C295 103 254.5 103 229.5 128L128 320L320 218.5C345 193.5 345 153 320 128z" />
    <glyph glyph-name="star"
      unicode="&#xF14A;"
      horiz-adv-x="512" d=" M480 244.9L325.2 268.5L256 416L186.8 268.5L32 244.9L144 130.1L117.6 -32L256 44.5L394.4 -32L368 130.1z" />
    <glyph glyph-name="tablet"
      unicode="&#xF14B;"
      horiz-adv-x="512" d=" M416 448H96C60.7 448 32 419.3 32 384V0C32 -35.3 60.7 -64 96 -64H416C451.3 -64 480 -35.3 480 0V384C480 419.3 451.3 448 416 448zM272 -32H240C231.2 -32 224 -24.8 224 -16S231.2 0 240 0H272C280.8 0 288 -7.2 288 -16S280.8 -32 272 -32zM448 32H64V384H448V32z M96 352H416V64H96z" />
    <glyph glyph-name="target"
      unicode="&#xF14C;"
      horiz-adv-x="512" d=" M480 224H445.3C431.8 304.4 368.4 367.8 288 381.3V416C288 433.7 273.7 448 256 448S224 433.7 224 416V381.3C143.6 367.8 80.2 304.4 66.7 224H32C14.3 224 0 209.7 0 192S14.3 160 32 160H66.7C80.2 79.6 143.6 16.2 224 2.7V-32C224 -49.7 238.3 -64 256 -64S288 -49.7 288 -32V2.7C368.4 16.2 431.8 79.6 445.3 160H480C497.7 160 512 174.3 512 192S497.7 224 480 224zM369.1 78.9C346.6 56.4 318.5 41.4 288 35.2V64C288 81.7 273.7 96 256 96S224 81.7 224 64V35.2C193.5 41.4 165.4 56.3 142.9 78.9C120.4 101.4 105.4 129.5 99.2 160H128C145.7 160 160 174.3 160 192S145.7 224 128 224H99.2C105.4 254.5 120.3 282.6 142.9 305.1C165.4 327.6 193.5 342.6 224 348.8V320C224 302.3 238.3 288 256 288S288 302.3 288 320V348.8C318.5 342.6 346.6 327.7 369.1 305.1C391.6 282.6 406.6 254.5 412.8 224H384C366.3 224 352 209.7 352 192S366.3 160 384 160H412.8C406.6 129.5 391.7 101.4 369.1 78.9z M224 192C224 174.3268880054146 238.3268880054146 160 256 160C273.6731119945854 160 288 174.3268880054146 288 192C288 209.6731119945854 273.6731119945854 224 256 224C238.3268880054146 224 224 209.6731119945854 224 192z" />
    <glyph glyph-name="truck"
      unicode="&#xF14D;"
      horiz-adv-x="512" d=" M505.2 141.5L456.8 238.3C451.4 249.1 440.3 256 428.2 256H352V352C352 369.7 337.7 384 320 384H32C14.3 384 0 369.7 0 352V64C0 46.3 14.3 32 32 32C32 -3.3 60.7 -32 96 -32S160 -3.3 160 32H320C320 -3.3 348.7 -32 384 -32S448 -3.3 448 32H480C497.7 32 512 46.3 512 64V112.9C512 122.8 509.7 132.6 505.2 141.5zM352 128V192H408.4L440.4 128H352z" />
    <glyph glyph-name="twitter-square"
      unicode="&#xF14E;"
      horiz-adv-x="512" d=" M416 416H96C60.7 416 32 387.3 32 352V32C32 -3.3 60.7 -32 96 -32H416C451.3 -32 480 -3.3 480 32V352C480 387.3 451.3 416 416 416zM362.6 246.6C362.7000000000001 244.2 362.8 241.9 362.8 239.5C362.8 166.8 307.5 83.1 206.4 83.1C175.3 83.1 146.5 92.2000000000001 122.1 107.8C126.4 107.3 130.8 107 135.2 107C161 107 184.7 115.8 203.5 130.5C179.4 130.9 159.1 146.8 152.1 168.7C155.4 168.1 158.9 167.7 162.4 167.7C167.4 167.7 172.3 168.4 176.9 169.6C151.7 174.6 132.8 196.9 132.8 223.5V224.2C140.2 220.1 148.7 217.6 157.7 217.3C142.9 227.2 133.2 244 133.2 263.1C133.2 273.2 135.9 282.6 140.6 290.7C167.7 257.4 208.2 235.6 253.9000000000001 233.3C253.0000000000001 237.3 252.5000000000001 241.5 252.5000000000001 245.8C252.5000000000001 276.2 277.1 300.8 307.5 300.8C323.3 300.8 337.6 294.1 347.6 283.4C360.1 285.9 371.9000000000001 290.4 382.5 296.7C378.4 283.9 369.7 273.1 358.3 266.3C369.4000000000001 267.6 380 270.6 389.9000000000001 275C382.6 264.0999999999999 373.3 254.4 362.6 246.6z" />
    <glyph glyph-name="twitter"
      unicode="&#xF14F;"
      horiz-adv-x="512" d=" M461 377.5C443.8 367.3 424.7 359.9 404.5 355.9C388.3 373.2 365.1 384 339.5 384C290.3 384 250.4 344.2000000000001 250.4 295.1C250.4 288.1 251.2 281.3 252.7 274.8C178.7 278.5 113.1 313.9 69.2 367.6C61.5 354.5 57.1 339.2 57.1 322.9C57.1 292.1 72.8 264.9 96.7 248.9C82.1 249.3 68.4 253.4 56.4 260V258.9C56.4 215.9 87.1 179.9 127.8 171.8C120.3 169.8 112.5 168.6999999999999 104.3 168.6999999999999C98.6 168.6999999999999 93 169.3 87.6 170.3C98.9 135 131.8 109.3 170.8 108.6C140.3 84.8 101.9 70.6 60.2 70.6C53 70.6 45.9 70.9999999999999 39 71.8C78.4 46.6 125.2 31.9 175.5 31.9C339.3 31.9 428.8 167.3 428.8 284.7C428.8 288.5 428.7 292.4 428.5 296.2C445.9 308.7 461 324.4 472.9 342.2C456.9 335.1 439.8 330.4 421.8 328.2C440.2 339.3 454.4 356.7 460.9999999999999 377.5z" />
    <glyph glyph-name="unlike"
      unicode="&#xF150;"
      horiz-adv-x="512" d=" M0 440.5H96V152.5H0zM464.1 400.2C454.4 424.5 430.8 440.4 404.7000000000001 440.4H192C156.7 440.4 128 411.7 128 376.4V176.1C128 160.8 133.5 146 143.4 134.4L308.7000000000001 -58.5C314.8000000000001 -65.6 325.6 -66 332.2000000000001 -59.4L358.4000000000001 -33.2C374.3 -17.3 380.7000000000001 5.8 375.2000000000001 27.6L352 120.5H448C483.3 120.5 512 149.2 512 184.5V280.5L464.1 400.2z" />
    <glyph glyph-name="upload"
      unicode="&#xF151;"
      horiz-adv-x="512" d=" M32 32H480V-32H32zM224 306.7V95H288V306.7L377.4 217.4L422.6 262.6L256 429.3L89.4 262.6L134.6 217.4z" />
    <glyph glyph-name="user"
      unicode="&#xF152;"
      horiz-adv-x="512" d=" M128 320C128 249.3075520216584 185.3075520216584 192 256 192C326.6924479783416 192 384 249.3075520216584 384 320C384 390.6924479783416 326.6924479783416 448 256 448C185.3075520216584 448 128 390.6924479783416 128 320z M352 160H160C89.3 160 32 102.7 32 32V-64H480V32C480 102.7 422.7 160 352 160z" />
    <glyph glyph-name="youtube-play"
      unicode="&#xF153;"
      horiz-adv-x="512" d=" M416 384H96C43 384 0 341 0 288V96C0 43 43 0 96 0H416C469 0 512 43 512 96V288C512 341 469 384 416 384zM192 96V288L320 192L192 96z" />
    <glyph glyph-name="zoom-in"
      unicode="&#xF154;"
      horiz-adv-x="512" d=" M502.6 -9.4L376 117.3C401.2 151.7 416 194.1 416 240C416 354.9 322.9 448 208 448S0 354.9 0 240S93.1 32 208 32C253.9 32 296.3 46.9 330.7 72L457.4 -54.7L502.6 -9.4zM288 224H224V160H192V224H128V256H192V320H224V256H288V224z" />
    <glyph glyph-name="zoom-out"
      unicode="&#xF155;"
      horiz-adv-x="512" d=" M502.6 -9.4L376 117.3C401.2 151.7 416 194.1 416 240C416 354.9 322.9 448 208 448S0 354.9 0 240S93.1 32 208 32C253.9 32 296.3 46.9 330.7 72L457.4 -54.7L502.6 -9.4zM288 224H128V256H288V224z" />
  </font>
</defs>
</svg>
