<?xml version="1.0" encoding="utf-8"?>
<!-- Generator: Adobe Illustrator 21.1.0, SVG Export Plug-In . SVG Version: 6.00 Build 0)  -->
<svg version="1.1" id="Livello_1" xmlns="http://www.w3.org/2000/svg" xmlns:xlink="http://www.w3.org/1999/xlink" x="0px" y="0px"
	 viewBox="0 0 512 512" style="enable-background:new 0 0 512 512;" xml:space="preserve">
<path d="M256,0C114.6,0,0,114.6,0,256c0,141.4,114.6,256,256,256s256-114.6,256-256C512,114.6,397.4,0,256,0z M480,256
	c0,30.3-5.9,59.6-17.6,87.2c-11.3,26.7-27.4,50.6-48,71.2c-20.6,20.6-44.5,36.7-71.2,48C315.6,474.1,286.3,480,256,480
	s-59.6-5.9-87.2-17.6c-26.7-11.3-50.6-27.4-71.2-48c-20.6-20.6-36.7-44.5-48-71.2C37.9,315.6,32,286.3,32,256s5.9-59.6,17.6-87.2
	c11.3-26.7,27.4-50.6,48-71.2c20.6-20.6,44.5-36.7,71.2-48C196.4,37.9,225.7,32,256,32s59.6,5.9,87.2,17.6
	c26.7,11.3,50.6,27.4,71.2,48c20.6,20.6,36.7,44.5,48,71.2C474.1,196.4,480,225.7,480,256z"/>
<polygon points="121.4,281.4 166.6,326.6 256,237.3 345.4,326.6 390.6,281.4 256,146.7 "/>
</svg>
