<?xml version="1.0" encoding="utf-8"?>
<!-- Generator: Adobe Illustrator 22.1.0, SVG Export Plug-In . SVG Version: 6.00 Build 0)  -->
<svg version="1.1" xmlns="http://www.w3.org/2000/svg" xmlns:xlink="http://www.w3.org/1999/xlink" x="0px" y="0px"
	 viewBox="0 0 512 512" style="enable-background:new 0 0 512 512;" xml:space="preserve">
<g id="Livello_2">
</g>
<g id="Livello_1">
	<g>
		<path d="M326.2,9.4C319.9,3.1,311.7,0,303.5,0s-16.4,3.1-22.6,9.4L213,77.3l-22.6-22.6c-12.5-12.5-32.8-12.5-45.3,0l-90.5,90.5
			c-12.5,12.5-12.5,32.8,0,45.3L77.3,213L9.4,280.9c-12.5,12.5-12.5,32.8,0,45.3L32,348.8L348.8,32L326.2,9.4z M77.3,167.8
			l90.5-90.5l22.6,22.6l-90.5,90.5L77.3,167.8z"/>
		<path d="M350,96l-63.4,64H384v288H128V318.6l-64,64V480c0,17.7,14.3,32,32,32h320c17.7,0,32-14.3,32-32V96H350z"/>
		<path d="M304,416c8.8,0,16-7.2,16-16c0-0.1,0-0.2,0-0.3h0v-160h0c-0.2-8.7-7.2-15.7-16-15.7s-15.8,7-16,15.7h0v160h0
			c0,0.1,0,0.2,0,0.3C288,408.8,295.2,416,304,416z"/>
		<path d="M224,271.7L224,271.7c-0.2-8.7-7.3-15.7-16-15.7s-15.8,7-16,15.7h0v128h0c0,0.1,0,0.2,0,0.3c0,8.8,7.2,16,16,16
			s16-7.2,16-16c0-0.1,0-0.2,0-0.3h0V271.7z"/>
	</g>
</g>
</svg>
