<?xml version="1.0" encoding="utf-8"?>
<!-- Generator: Adobe Illustrator 21.1.0, SVG Export Plug-In . SVG Version: 6.00 Build 0)  -->
<svg version="1.1" id="Livello_1" xmlns="http://www.w3.org/2000/svg" xmlns:xlink="http://www.w3.org/1999/xlink" x="0px" y="0px"
	 viewBox="0 0 512 512" style="enable-background:new 0 0 512 512;" xml:space="preserve">
<g>
	<path d="M208,416c8.8,0,16-7.2,16-16V208c0-8.8-7.2-16-16-16s-16,7.2-16,16v192C192,408.8,199.2,416,208,416z"/>
	<path d="M304,416c8.8,0,16-7.2,16-16V208c0-8.8-7.2-16-16-16s-16,7.2-16,16v192C288,408.8,295.2,416,304,416z"/>
	<path d="M480,96h-32h-64V32c0-17.7-14.3-32-32-32H160c-17.7,0-32,14.3-32,32v64H64H32c-17.7,0-32,14.3-32,32v32h64v320
		c0,17.7,14.3,32,32,32h320c17.7,0,32-14.3,32-32V160h64v-32C512,110.3,497.7,96,480,96z M160,32h192v64H160V32z M384,448H128V160
		h256V448z"/>
</g>
</svg>
