<?xml version="1.0" encoding="utf-8"?>
<!-- Generator: Adobe Illustrator 21.0.2, SVG Export Plug-In . SVG Version: 6.00 Build 0)  -->
<svg version="1.1" id="Livello_1" xmlns="http://www.w3.org/2000/svg" xmlns:xlink="http://www.w3.org/1999/xlink" x="0px" y="0px"
	 viewBox="0 0 512 512" style="enable-background:new 0 0 512 512;" xml:space="preserve">
<style type="text/css">
	.st0{stroke:#000000;stroke-width:32;stroke-miterlimit:10;}
	.st1{stroke:#000000;stroke-width:64;stroke-miterlimit:10;}
	.st2{stroke:#000000;stroke-width:96;stroke-miterlimit:10;}
	.st3{fill:none;stroke:#000000;stroke-width:32;stroke-miterlimit:10;}
	.st4{fill:none;stroke:#FFFFFF;stroke-width:32;stroke-miterlimit:10;}
	.st5{stroke:#000000;stroke-width:32;stroke-linecap:round;stroke-miterlimit:10;}
	.st6{fill:none;stroke:#000000;stroke-width:32;stroke-linecap:round;stroke-miterlimit:10;}
</style>
<g>
	<path d="M464,96h-32v0h-54V32c0-8.8-7.2-16-16-16H150c-8.8,0-16,7.2-16,16v64H80v0H48c-17.7,0-32,14.3-32,32c0,17.7,14.3,32,32,32
		h32v331.5c0,11.3,8.3,20.5,18.5,20.5h314.9c10.2,0,18.5-9.2,18.5-20.5V160h32c17.7,0,32-14.3,32-32C496,110.3,481.7,96,464,96z
		 M166,48h180v48H166V48z M368,448H144V160h224V448z"/>
	<path d="M212,418c8.8,0,16-7.2,16-16V206c0-8.8-7.2-16-16-16s-16,7.2-16,16v196C196,410.8,203.2,418,212,418z"/>
	<path d="M300,418c8.8,0,16-7.2,16-16V206c0-8.8-7.2-16-16-16s-16,7.2-16,16v196C284,410.8,291.2,418,300,418z"/>
</g>
</svg>
