<?xml version="1.0" encoding="utf-8"?>
<!-- Generator: Adobe Illustrator 21.1.0, SVG Export Plug-In . SVG Version: 6.00 Build 0)  -->
<svg version="1.1" id="Livello_1" xmlns="http://www.w3.org/2000/svg" xmlns:xlink="http://www.w3.org/1999/xlink" x="0px" y="0px"
	 viewBox="0 0 512 512" style="enable-background:new 0 0 512 512;" xml:space="preserve">
<path d="M480,64h-32v32h0V32c0-17.7-14.3-32-32-32h-32c-17.7,0-32,14.3-32,32v32H192V32c0-17.7-14.3-32-32-32h-32
	c-17.7,0-32,14.3-32,32v32H64c-17.7,0-32,14.3-32,32v32v64v288c0,17.7,14.3,32,32,32h416c17.7,0,32-14.3,32-32V192v-64V96
	C512,78.3,497.7,64,480,64z M384,32h32v64h-32V32z M128,32h32v64h-32V32z M288,384h64v64h-64V384z M256,448h-64v-64h64V448z
	 M288,352v-64h64v64H288z M256,352h-64v-64h64V352z M160,352H96v-64h64V352z M96,384h64v64H96V384z M448,448h-64v-64h64V448z
	 M448,352h-64v-64h64V352z M448,256h-64v-64h-32v64h-64v-64h-32v64h-64v-64h-32v64H96v-64h352V256z"/>
</svg>
