<?xml version="1.0" encoding="utf-8"?>
<!-- Generator: Adobe Illustrator 21.0.0, SVG Export Plug-In . SVG Version: 6.00 Build 0)  -->
<svg version="1.1" id="Livello_1" xmlns="http://www.w3.org/2000/svg" xmlns:xlink="http://www.w3.org/1999/xlink" x="0px" y="0px"
	 viewBox="0 0 512 512" style="enable-background:new 0 0 512 512;" xml:space="preserve">
<style type="text/css">
	.st0{stroke:#000000;stroke-width:32;stroke-miterlimit:10;}
	.st1{stroke:#000000;stroke-width:64;stroke-miterlimit:10;}
	.st2{stroke:#000000;stroke-width:96;stroke-miterlimit:10;}
</style>
<path d="M464,80h-32V32c0-17.7-14.3-32-32-32h-14c-17.7,0-32,14.3-32,32v48H158V32c0-4.9-1.1-9.6-3.1-13.7c0,0,0-0.1-0.1-0.1
	c-0.9-1.8-1.9-3.5-3.1-5.1c-0.1-0.2-0.2-0.3-0.4-0.5C145.6,4.9,136.4,0,126,0h-14C94.3,0,80,14.3,80,32v48H48c-17.7,0-32,14.3-32,32
	v0v76v276c0,17.7,14.3,32,32,32h416c17.7,0,32-14.3,32-32V188v-76v0C496,94.3,481.7,80,464,80z M146,432H80v-62h66V432z M146,338H80
	v-58h66V338z M146,248H80v-60h66V248z M240,432h-62v-62h62V432z M240,338h-62v-58h62V338z M240,248h-62v-60h62V248z M336,432h-64
	v-62h64V432z M336,338h-64v-58h64V338z M336,248h-64v-60h64V248z M432,432h-64v-62h64V432z M432,338h-64v-58h64V338z M432,248h-64
	v-60h64V248z"/>
</svg>
