<?xml version="1.0" encoding="utf-8"?>
<!-- Generator: Adobe Illustrator 22.1.0, SVG Export Plug-In . SVG Version: 6.00 Build 0)  -->
<svg version="1.1" xmlns="http://www.w3.org/2000/svg" xmlns:xlink="http://www.w3.org/1999/xlink" x="0px" y="0px"
	 viewBox="0 0 512 512" style="enable-background:new 0 0 512 512;" xml:space="preserve">
<g id="Livello_2">
</g>
<g id="Livello_1">
	<g>
		<path d="M448,128h-64l-23.2-46.3C355.4,70.8,344.3,64,332.2,64H179.8c-12.1,0-23.2,6.8-28.6,17.7L128,128H64
			c-17.7,0-32,14.3-32,32v256c0,17.7,14.3,32,32,32h384c17.7,0,32-14.3,32-32V160C480,142.3,465.7,128,448,128z M416,384H96V192h32
			h39.6l17.7-35.4l14.3-28.6h112.9l14.3,28.6l17.7,35.4H384h32V384z"/>
		<circle cx="256" cy="287.7" r="64"/>
	</g>
</g>
</svg>
