<?xml version="1.0" encoding="utf-8"?>
<!-- Generator: Adobe Illustrator 21.1.0, SVG Export Plug-In . SVG Version: 6.00 Build 0)  -->
<svg version="1.1" id="Livello_1" xmlns="http://www.w3.org/2000/svg" xmlns:xlink="http://www.w3.org/1999/xlink" x="0px" y="0px"
	 viewBox="0 0 512 512" style="enable-background:new 0 0 512 512;" xml:space="preserve">
<g>
	<path d="M256,0C114.6,0,0,114.6,0,256c0,141.4,114.6,256,256,256s256-114.6,256-256C512,114.6,397.4,0,256,0z M414.4,414.4
		c-20.6,20.6-44.5,36.7-71.2,48C315.6,474.1,286.3,480,256,480s-59.6-5.9-87.2-17.6c-26.7-11.3-50.6-27.4-71.2-48
		c-20.6-20.6-36.7-44.5-48-71.2C37.9,315.6,32,286.3,32,256s5.9-59.6,17.6-87.2c11.3-26.7,27.4-50.6,48-71.2
		c20.6-20.6,44.5-36.7,71.2-48C196.4,37.9,225.7,32,256,32s59.6,5.9,87.2,17.6c26.7,11.3,50.6,27.4,71.2,48
		c20.6,20.6,36.7,44.5,48,71.2c11.7,27.6,17.6,56.9,17.6,87.2s-5.9,59.6-17.6,87.2C451.1,369.9,435,393.8,414.4,414.4z"/>
	<polygon points="224,306.7 150.6,233.4 105.4,278.6 224,397.3 406.6,214.6 361.4,169.4 	"/>
</g>
</svg>
