<?xml version="1.0" encoding="utf-8"?>
<!-- Generator: Adobe Illustrator 22.0.1, SVG Export Plug-In . SVG Version: 6.00 Build 0)  -->
<svg version="1.1" xmlns="http://www.w3.org/2000/svg" xmlns:xlink="http://www.w3.org/1999/xlink" x="0px" y="0px"
	 viewBox="0 0 512 512" style="enable-background:new 0 0 512 512;" xml:space="preserve">
<g id="Livello_2">
</g>
<g id="Livello_1">
	<g>
		<path d="M256,32C132.3,32,32,132.3,32,256c0,123.7,100.3,224,224,224s224-100.3,224-224C480,132.3,379.7,32,256,32z M369.1,369.1
			C338.9,399.4,298.7,416,256,416s-82.9-16.6-113.1-46.9C112.6,338.9,96,298.7,96,256s16.6-82.9,46.9-113.1
			C173.1,112.6,213.3,96,256,96s82.9,16.6,113.1,46.9C399.4,173.1,416,213.3,416,256S399.4,338.9,369.1,369.1z"/>
		<path d="M272,249.4V160c0-8.8-7.2-16-16-16c-8.8,0-16,7.2-16,16v96c0,0,0,0,0,0c0,0.5,0,1,0.1,1.5c0,0.2,0.1,0.5,0.1,0.7
			c0,0.3,0.1,0.6,0.1,0.8c0.1,0.3,0.1,0.5,0.2,0.8c0.1,0.2,0.1,0.5,0.2,0.7c0.1,0.3,0.2,0.5,0.3,0.8c0.1,0.2,0.2,0.5,0.3,0.7
			c0.1,0.2,0.2,0.5,0.3,0.7c0.1,0.2,0.2,0.5,0.3,0.7c0.1,0.2,0.3,0.4,0.4,0.7c0.1,0.2,0.3,0.5,0.4,0.7c0.2,0.2,0.3,0.5,0.5,0.7
			c0.1,0.2,0.3,0.4,0.4,0.6c0.3,0.4,0.7,0.8,1.1,1.2l64,64c3.1,3.1,7.2,4.7,11.3,4.7s8.2-1.6,11.3-4.7c6.2-6.2,6.2-16.4,0-22.6
			L272,249.4z"/>
	</g>
</g>
</svg>
