<?xml version="1.0" encoding="utf-8"?>
<!-- Generator: Adobe Illustrator 22.1.0, SVG Export Plug-In . SVG Version: 6.00 Build 0)  -->
<svg version="1.1" xmlns="http://www.w3.org/2000/svg" xmlns:xlink="http://www.w3.org/1999/xlink" x="0px" y="0px"
	 viewBox="0 0 512 512" style="enable-background:new 0 0 512 512;" xml:space="preserve">
<style type="text/css">
	.st0{fill:none;}
</style>
<g id="Livello_2">
</g>
<g id="Livello_1">
	<path d="M328.5,253.3c-18-14-41-21.4-63.1-27.8c-7.4-2.2-14.7-4-21.7-5.8c-41.5-10.6-50.3-15.7-51.9-30.5
		c-0.4-3.5-0.6-12.5,5.5-19.4c7.6-8.4,23.8-13.1,45.7-13.1c27.4,0,35.4,11.4,38,15.2c5.5,7.9,6.9,17.5,7,20.2V192h64
		c0-4.9-0.9-30.7-17.8-55.7c-8.8-12.9-23.2-27.5-46.2-36.1V32h-96v68.1c-17.2,5.7-31.4,14.7-42.4,27c-16.5,18.4-24.3,43.6-21.4,69.1
		c3.1,28,16.9,49.6,40.9,64.2c17.8,10.8,38.7,16.1,58.8,21.3c6.5,1.7,13.3,3.4,19.7,5.3c48.6,14.1,49.9,21.8,48.2,36.5
		c-0.5,3.8-3.4,12.4-11.6,19.9c-9.3,8.6-22,12.9-37.6,12.9l-0.1,0l-0.4,0c0,0-0.1,0-0.1,0c-8.4,0-33.9-2.7-46.2-14.9
		c-3.3-3.3-7.6-9-7.6-21.3h-64c0,26.6,9.3,49.8,26.9,67c11.1,10.9,24.3,18.3,37.1,23.2V480h96v-66.4c41.9-14.3,67.3-49.2,71.3-82.6
		C363.1,298.8,352.4,271.9,328.5,253.3z"/>
</g>
</svg>
