<?xml version="1.0" encoding="utf-8"?>
<!-- Generator: Adobe Illustrator 21.1.0, SVG Export Plug-In . SVG Version: 6.00 Build 0)  -->
<svg version="1.1" id="Livello_1" xmlns="http://www.w3.org/2000/svg" xmlns:xlink="http://www.w3.org/1999/xlink" x="0px" y="0px"
	 viewBox="0 0 512 512" style="enable-background:new 0 0 512 512;" xml:space="preserve">
<style type="text/css">
	.st0{fill:none;stroke:#000000;stroke-width:32;stroke-miterlimit:10;}
</style>
<g>
	<polygon points="256,416 96,416 96,96 256,96 256,160 320,160 320,96 320,32 256,32 96,32 32,32 32,96 32,416 32,448 32,480 
		256,480 320,480 320,416 320,352 256,352 	"/>
	<polygon points="377.6,121.4 332.4,166.6 389.7,224 160,224 160,288 389.7,288 332.4,345.4 377.6,390.6 512.3,256 	"/>
</g>
</svg>
