<?xml version="1.0" encoding="utf-8"?>
<!-- Generator: Adobe Illustrator 21.0.2, SVG Export Plug-In . SVG Version: 6.00 Build 0)  -->
<svg version="1.1" id="Livello_1" xmlns="http://www.w3.org/2000/svg" xmlns:xlink="http://www.w3.org/1999/xlink" x="0px" y="0px"
	 viewBox="0 0 512 512" style="enable-background:new 0 0 512 512;" xml:space="preserve">
<g>
	<path d="M256,96C123.5,96,0,256,0,256s123.5,160,256,160s256-160,256-160S388.5,96,256,96z M390.7,288.6
		c-23.4,19.5-46.3,34.9-68.2,45.6C298.3,346,276,352,256,352s-42.3-6-66.4-17.8c-21.9-10.7-44.8-26.1-68.2-45.6
		C108,277.4,96,266.2,85.9,256c10.1-10.2,22.1-21.4,35.4-32.6c23.4-19.5,46.3-34.9,68.2-45.6C213.7,166,236,160,256,160
		s42.3,6,66.4,17.8c21.9,10.7,44.8,26.1,68.2,45.6c13.3,11.1,25.3,22.4,35.4,32.6C416,266.2,404,277.4,390.7,288.6z"/>
	<circle cx="256" cy="256" r="64"/>
</g>
</svg>
