<?xml version="1.0" encoding="utf-8"?>
<!-- Generator: Adobe Illustrator 21.0.2, SVG Export Plug-In . SVG Version: 6.00 Build 0)  -->
<svg version="1.1" id="Livello_1" xmlns="http://www.w3.org/2000/svg" xmlns:xlink="http://www.w3.org/1999/xlink" x="0px" y="0px"
	 viewBox="0 0 512 512" style="enable-background:new 0 0 512 512;" xml:space="preserve">
<style type="text/css">
	.st0{stroke:#000000;stroke-width:32;stroke-miterlimit:10;}
	.st1{stroke:#000000;stroke-width:64;stroke-miterlimit:10;}
	.st2{stroke:#000000;stroke-width:96;stroke-miterlimit:10;}
	.st3{fill:none;stroke:#000000;stroke-width:32;stroke-miterlimit:10;}
	.st4{fill:none;stroke:#FFFFFF;stroke-width:32;stroke-miterlimit:10;}
	.st5{stroke:#000000;stroke-width:32;stroke-linecap:round;stroke-miterlimit:10;}
	.st6{fill:none;stroke:#000000;stroke-width:32;stroke-linecap:round;stroke-miterlimit:10;}
	.st7{fill:none;stroke:#000000;stroke-width:32;stroke-linecap:round;stroke-linejoin:round;stroke-miterlimit:10;}
	.st8{fill:none;stroke:#000000;stroke-width:64;stroke-linecap:round;stroke-linejoin:round;stroke-miterlimit:10;}
	.st9{fill:none;stroke:#FFFFFF;stroke-width:32;stroke-linecap:round;stroke-linejoin:round;stroke-miterlimit:10;}
</style>
<g>
	<path d="M486.6,158.6L353.4,25.4c-6-6-14.1-9.4-22.6-9.4H290H106H48c-17.7,0-32,14.3-32,32v416c0,17.7,14.3,32,32,32h416
		c17.7,0,32-14.3,32-32V181.3C496,172.8,492.6,164.6,486.6,158.6z M138,80h120v68H138V80z M432,432H80V80h26v100h184V80h27.5
		L432,194.5V432z"/>
	<path d="M164,306c0,50.8,41.2,92,92,92s92-41.2,92-92c0-50.8-41.2-92-92-92S164,255.2,164,306z M316,306c0,33.1-26.9,60-60,60
		s-60-26.9-60-60s26.9-60,60-60S316,272.9,316,306z"/>
</g>
</svg>
