<?xml version="1.0" encoding="utf-8"?>
<!-- Generator: Adobe Illustrator 21.1.0, SVG Export Plug-In . SVG Version: 6.00 Build 0)  -->
<svg version="1.1" id="Livello_1" xmlns="http://www.w3.org/2000/svg" xmlns:xlink="http://www.w3.org/1999/xlink" x="0px" y="0px"
	 viewBox="0 0 512 512" style="enable-background:new 0 0 512 512;" xml:space="preserve">
<path d="M480,288v-64h-67.2c-4.1-20.4-12.2-39.4-23.3-56.2l47.5-47.5L391.8,75l-47.5,47.5c-16.8-11.1-35.8-19.2-56.2-23.3V32h-64
	v67.2c-20.4,4.1-39.4,12.2-56.2,23.3L120.2,75L75,120.2l47.5,47.5c-11.1,16.8-19.2,35.8-23.3,56.2H32v64h67.2
	c4.1,20.4,12.2,39.4,23.3,56.2L75,391.8l45.3,45.3l47.5-47.5c16.8,11.1,35.8,19.2,56.2,23.3V480h64v-67.2
	c20.4-4.1,39.4-12.2,56.2-23.3l47.5,47.5l45.3-45.3l-47.5-47.5c11.1-16.8,19.2-35.8,23.3-56.2H480z M323.9,323.9
	C305.8,342,281.6,352,256,352s-49.8-10-67.9-28.1S160,281.6,160,256s10-49.8,28.1-67.9C206.2,170,230.4,160,256,160
	s49.8,10,67.9,28.1C342,206.2,352,230.4,352,256S342,305.8,323.9,323.9z"/>
</svg>
