<?xml version="1.0" encoding="utf-8"?>
<!-- Generator: Adobe Illustrator 21.0.2, SVG Export Plug-In . SVG Version: 6.00 Build 0)  -->
<svg version="1.1" id="Livello_1" xmlns="http://www.w3.org/2000/svg" xmlns:xlink="http://www.w3.org/1999/xlink" x="0px" y="0px"
	 viewBox="0 0 512 512" style="enable-background:new 0 0 512 512;" xml:space="preserve">
<style type="text/css">
	.st0{stroke:#000000;stroke-width:32;stroke-miterlimit:10;}
	.st1{stroke:#000000;stroke-width:64;stroke-miterlimit:10;}
	.st2{stroke:#000000;stroke-width:96;stroke-miterlimit:10;}
	.st3{fill:none;stroke:#000000;stroke-width:32;stroke-miterlimit:10;}
	.st4{fill:none;stroke:#FFFFFF;stroke-width:32;stroke-miterlimit:10;}
	.st5{stroke:#000000;stroke-width:32;stroke-linecap:round;stroke-miterlimit:10;}
	.st6{fill:none;stroke:#000000;stroke-width:32;stroke-linecap:round;stroke-miterlimit:10;}
	.st7{fill:none;stroke:#000000;stroke-width:32;stroke-linecap:round;stroke-linejoin:round;stroke-miterlimit:10;}
	.st8{fill:none;stroke:#000000;stroke-width:64;stroke-linecap:round;stroke-linejoin:round;stroke-miterlimit:10;}
	.st9{fill:none;stroke:#FFFFFF;stroke-width:32;stroke-linecap:round;stroke-linejoin:round;stroke-miterlimit:10;}
	.st10{fill:#FFFFFF;}
	.st11{stroke:#000000;stroke-width:32;stroke-linejoin:round;stroke-miterlimit:10;}
	.st12{fill:none;stroke:#000000;stroke-width:32;stroke-linejoin:round;stroke-miterlimit:10;}
	.st13{fill:none;stroke:#000000;stroke-width:64;stroke-linejoin:round;stroke-miterlimit:10;}
	.st14{fill:none;stroke:#000000;stroke-width:96;stroke-linejoin:round;stroke-miterlimit:10;}
	.st15{fill:none;stroke:#FFFFFF;stroke-width:64;stroke-linejoin:round;stroke-miterlimit:10;}
</style>
<path d="M256,0C114.6,0,0,114.6,0,256c0,141.4,114.6,256,256,256s256-114.6,256-256C512,114.6,397.4,0,256,0z M391.8,120.2
	c15.9,15.9,28.6,34,38,53.8h-92.2c-4.4-38.3-11.7-72.6-21.1-100.4C344.5,82.9,370.2,98.7,391.8,120.2z M223.2,92.5
	C236.9,47.8,251.8,34,256,32.1c4.2,1.9,19.1,15.7,32.8,60.4c7.3,23.8,12.9,51.5,16.4,81.5h-98.6C210.3,144,215.8,116.3,223.2,92.5z
	 M120.2,120.2c21.5-21.5,47.3-37.3,75.4-46.6c-9.5,27.8-16.8,62-21.1,100.4H82.3C91.6,154.3,104.4,136.1,120.2,120.2z M70.6,306
	c-4.3-16.1-6.6-32.9-6.6-50s2.2-33.9,6.6-50h101.1c-1.1,16.2-1.6,32.9-1.6,50s0.6,33.8,1.6,50H70.6z M120.2,391.8
	c-15.9-15.9-28.6-34-38-53.8h92.2c4.4,38.3,11.7,72.6,21.1,100.4C167.5,429.1,141.8,413.3,120.2,391.8z M288.8,419.5
	c-13.8,44.7-28.7,58.5-32.8,60.4c-4.2-1.9-19.1-15.7-32.8-60.4c-7.3-23.8-12.9-51.5-16.4-81.5h98.6
	C301.7,368,296.2,395.7,288.8,419.5z M308.3,306H203.7c-1.1-16.3-1.7-33-1.7-50s0.6-33.7,1.7-50h104.6c1.1,16.3,1.7,33,1.7,50
	S309.4,289.7,308.3,306z M391.8,391.8c-21.5,21.5-47.3,37.3-75.4,46.6c9.5-27.8,16.8-62,21.1-100.4h92.2
	C420.4,357.7,407.6,375.9,391.8,391.8z M340.4,306c1.1-16.2,1.6-32.9,1.6-50s-0.6-33.8-1.6-50h101.1c4.3,16.1,6.6,32.9,6.6,50
	s-2.2,33.9-6.6,50H340.4z"/>
</svg>
