<?xml version="1.0" encoding="utf-8"?>
<!-- Generator: Adobe Illustrator 21.1.0, SVG Export Plug-In . SVG Version: 6.00 Build 0)  -->
<svg version="1.1" id="Livello_1" xmlns="http://www.w3.org/2000/svg" xmlns:xlink="http://www.w3.org/1999/xlink" x="0px" y="0px"
	 viewBox="0 0 512 512" style="enable-background:new 0 0 512 512;" xml:space="preserve">
<path d="M256,0C114.6,0,0,114.6,0,256c0,141.4,114.6,256,256,256c141.4,0,256-114.6,256-256C512,114.6,397.4,0,256,0z M391.8,120.2
	c12,12,22.3,25.4,30.6,39.8H345c-4.8-31.4-11.8-59.7-20.6-83.5C349.4,86,372.3,100.8,391.8,120.2z M218.1,86.2
	C234.7,42,251.4,32,256,32s21.3,10,37.9,54.2c7.9,21.2,14.2,46,18.7,73.8H199.4C203.9,132.2,210.1,107.4,218.1,86.2z M120.2,120.2
	c19.5-19.5,42.4-34.2,67.3-43.7c-8.8,23.8-15.8,52.1-20.6,83.5H89.6C98,145.6,108.2,132.3,120.2,120.2z M74.9,320
	C67.7,299.7,64,278.1,64,256s3.7-43.7,10.9-64H163c-2,20.5-3,41.9-3,64s1.1,43.5,3,64H74.9z M120.2,391.8
	c-12-12-22.3-25.4-30.6-39.8H167c4.8,31.4,11.8,59.7,20.6,83.5C162.6,426,139.7,411.2,120.2,391.8z M293.9,425.8
	C277.3,470,260.6,480,256,480s-21.3-10-37.9-54.2c-7.9-21.2-14.2-46-18.7-73.8h113.3C308.1,379.8,301.9,404.6,293.9,425.8z
	 M316.8,320H195.2c-2.1-20.7-3.2-42.1-3.2-64s1.1-43.3,3.2-64h121.6c2.1,20.7,3.2,42.1,3.2,64S318.9,299.3,316.8,320z M391.8,391.8
	c-19.5,19.5-42.4,34.2-67.3,43.7c0,0,0,0,0,0c8.8-23.8,15.8-52.1,20.6-83.5h77.3C414,366.4,403.8,379.7,391.8,391.8z M349,320
	c2-20.5,3-41.9,3-64s-1.1-43.5-3-64h88.1c7.2,20.3,10.9,41.9,10.9,64s-3.7,43.7-10.9,64H349z"/>
</svg>
