<?xml version="1.0" encoding="utf-8"?>
<!-- Generator: Adobe Illustrator 21.0.2, SVG Export Plug-In . SVG Version: 6.00 Build 0)  -->
<svg version="1.1" id="Livello_1" xmlns="http://www.w3.org/2000/svg" xmlns:xlink="http://www.w3.org/1999/xlink" x="0px" y="0px"
	 viewBox="0 0 512 512" style="enable-background:new 0 0 512 512;" xml:space="preserve">
<g>
	<g>
		<path d="M494.6,157c-1.2-25.5-5.2-43-11.2-58.3c-6.1-15.8-14.3-29.2-27.7-42.5c-13.3-13.3-26.7-21.5-42.5-27.7
			c-15.3-5.9-32.7-10-58.3-11.2c-25.6-1.2-33.8-1.4-99-1.4s-73.4,0.3-99,1.4c-25.5,1.2-43,5.2-58.3,11.2
			C83,34.7,69.6,42.9,56.3,56.3C42.9,69.6,34.7,83,28.6,98.8c-5.9,15.3-10,32.7-11.2,58.3c-1.2,25.6-1.4,33.8-1.4,99
			s0.3,73.4,1.4,99c1.2,25.5,5.2,43,11.2,58.3c6.1,15.8,14.3,29.2,27.7,42.5c13.3,13.3,26.7,21.5,42.5,27.7
			c15.3,5.9,32.7,10,58.3,11.2c25.6,1.2,33.8,1.4,99,1.4s73.4-0.3,99-1.4c25.5-1.2,43-5.2,58.3-11.2c15.8-6.1,29.2-14.3,42.5-27.7
			c13.3-13.3,21.5-26.7,27.7-42.5c5.9-15.3,10-32.7,11.2-58.3c1.2-25.6,1.4-33.8,1.4-99S495.7,182.6,494.6,157z M430.6,352
			c-0.9,20.3-4,30.6-6.9,38c-3.3,8.5-6.9,14.1-13.3,20.4c-6.4,6.4-11.9,10-20.4,13.3c-7.4,2.9-17.7,6-38,6.9
			c-23.8,1.1-30.2,1.4-96,1.4s-72.3-0.3-96-1.4c-20.3-0.9-30.6-4-38-6.9c-8.5-3.3-14.1-6.9-20.4-13.3c-6.4-6.4-10-11.9-13.3-20.4
			c-2.9-7.4-6-17.7-6.9-38c-1.1-23.8-1.4-30.2-1.4-96c0-65.8,0.3-72.2,1.4-96c0.9-20.3,4-30.6,6.9-38c3.3-8.5,6.9-14.1,13.3-20.4
			c6.4-6.4,11.9-10,20.4-13.3c7.4-2.9,17.7-6,38-6.9c23.8-1.1,30.2-1.4,96-1.4s72.2,0.3,96,1.4c20.3,0.9,30.6,4,38,6.9
			c8.5,3.3,14.1,6.9,20.4,13.3c6.4,6.4,10,11.9,13.3,20.4c2.9,7.4,6,17.7,6.9,38c1.1,23.8,1.4,30.2,1.4,96
			C432,321.8,431.7,328.2,430.6,352z"/>
	</g>
	<g>
		<path d="M256,132c-68.5,0-124,55.5-124,124c0,68.5,55.5,124,124,124s124-55.5,124-124C380,187.5,324.5,132,256,132z M256,316
			c-33.1,0-60-26.9-60-60s26.9-60,60-60c33.1,0,60,26.9,60,60S289.1,316,256,316z"/>
	</g>
	<g>
		<circle cx="374" cy="135" r="29"/>
	</g>
</g>
</svg>
