<?xml version="1.0" encoding="utf-8"?>
<!-- Generator: Adobe Illustrator 22.0.1, SVG Export Plug-In . SVG Version: 6.00 Build 0)  -->
<svg version="1.1" xmlns="http://www.w3.org/2000/svg" xmlns:xlink="http://www.w3.org/1999/xlink" x="0px" y="0px"
	 viewBox="0 0 512 512" style="enable-background:new 0 0 512 512;" xml:space="preserve">
<g id="Livello_2">
</g>
<g id="Livello_1">
	<g>
		<rect y="224" width="96" height="288"/>
		<path d="M448,192h-96l23.2-92.8c5.5-21.8-0.9-44.9-16.8-60.8l-26.2-26.2c-3.1-3.1-7.2-4.7-11.3-4.7c-4.5,0-9,1.9-12.2,5.6
			L143.4,206c-9.9,11.6-15.4,26.4-15.4,41.7V448c0,35.3,28.7,64,64,64h212.7c26.2,0,49.7-15.9,59.4-40.2L512,352v-96
			C512,220.7,483.3,192,448,192z M448,339.7L404.7,448H192V247.7l113.1-131.9l-15.2,60.8L270,256h82h96c0,0,0,0,0,0V339.7z"/>
	</g>
</g>
</svg>
