<?xml version="1.0" encoding="utf-8"?>
<!-- Generator: Adobe Illustrator 21.1.0, SVG Export Plug-In . SVG Version: 6.00 Build 0)  -->
<svg version="1.1" id="Livello_1" xmlns="http://www.w3.org/2000/svg" xmlns:xlink="http://www.w3.org/1999/xlink" x="0px" y="0px"
	 viewBox="0 0 512 512" style="enable-background:new 0 0 512 512;" xml:space="preserve">
<style type="text/css">
	.st0{fill:none;stroke:#000000;stroke-width:32;stroke-miterlimit:10;}
	.st1{fill:#110B0B;}
</style>
<path d="M416,224v-32c0-88.4-71.6-160-160-160S96,103.6,96,192v32H64v256h384V224H416z M288,416h-64l21.3-65.9
	c-12.4-4.4-21.3-16.2-21.3-30.1c0-17.7,14.3-32,32-32s32,14.3,32,32c0,14.4-9.5,26.5-22.5,30.6L288,416z M352,224H160v-32
	c0-52.9,43.1-96,96-96c52.9,0,96,43.1,96,96V224z"/>
</svg>
