<?xml version="1.0" encoding="utf-8"?>
<!-- Generator: Adobe Illustrator 21.1.0, SVG Export Plug-In . SVG Version: 6.00 Build 0)  -->
<svg version="1.1" id="Livello_1" xmlns="http://www.w3.org/2000/svg" xmlns:xlink="http://www.w3.org/1999/xlink" x="0px" y="0px"
	 viewBox="0 0 512 512" style="enable-background:new 0 0 512 512;" xml:space="preserve">
<style type="text/css">
	.st0{fill:none;stroke:#000000;stroke-width:32;stroke-miterlimit:10;}
	.st1{fill:#110B0B;}
</style>
<g>
	<path d="M256,128c-35.3,0-64,28.7-64,64c0,35.3,28.7,64,64,64s64-28.7,64-64C320,156.7,291.3,128,256,128z M256,224
		c-17.6,0-32-14.4-32-32s14.4-32,32-32s32,14.4,32,32S273.6,224,256,224z"/>
	<path d="M256,32c-88.4,0-160,71.6-160,160c0,127.7,160,288,160,288s160-159.3,160-288C416,103.6,344.4,32,256,32z M285,345.5
		c-9.8,13.8-19.7,26.6-28.9,38c-9.3-11.4-19.2-24.4-29.1-38.3c-43.2-60.9-67-115.3-67-153.2c0-52.9,43.1-96,96-96s96,43.1,96,96
		C352,230.3,328.2,284.8,285,345.5z"/>
</g>
</svg>
