<?xml version="1.0" encoding="utf-8"?>
<!-- Generator: Adobe Illustrator 22.1.0, SVG Export Plug-In . SVG Version: 6.00 Build 0)  -->
<svg version="1.1" xmlns="http://www.w3.org/2000/svg" xmlns:xlink="http://www.w3.org/1999/xlink" x="0px" y="0px"
	 viewBox="0 0 512 512" style="enable-background:new 0 0 512 512;" xml:space="preserve">
<g id="Livello_2">
</g>
<g id="Livello_1">
	<path d="M416,192h-32V64c0-17.7-14.3-32-32-32s-32,14.3-32,32v128H192V64c0-17.7-14.3-32-32-32s-32,14.3-32,32v128H96
		c-17.7,0-32,14.3-32,32v143.3c0,10.6,5.3,20.6,14.1,26.5l81.6,55.1V512h191.5l-1-63.1l83.4-55.1c9-5.9,14.4-16,14.4-26.7V224
		C448,206.3,433.7,192,416,192z M384,349.9l-69,45.6l-29.3,19.3l0.5,33.2h-62.5v-33.1l-28.2-19L128,350.3V256h256V349.9z"/>
</g>
</svg>
