<?xml version="1.0" encoding="utf-8"?>
<!-- Generator: Adobe Illustrator 22.1.0, SVG Export Plug-In . SVG Version: 6.00 Build 0)  -->
<svg version="1.1" xmlns="http://www.w3.org/2000/svg" xmlns:xlink="http://www.w3.org/1999/xlink" x="0px" y="0px"
	 viewBox="0 0 512 512" style="enable-background:new 0 0 512 512;" xml:space="preserve">
<style type="text/css">
	.st0{fill:none;stroke:#000000;stroke-miterlimit:10;}
</style>
<g id="Livello_2">
</g>
<g id="Livello_1">
	<g>
		<path d="M476.7,268.9l-58.7-97.8c-4.1-6.9-11.6-11.1-19.6-11.1H352v-7.4c0-4.1-1.1-8.2-3.3-11.8l-58.7-97.8
			C286,36.2,278.5,32,270.5,32h-157c-8,0-15.5,4.2-19.6,11.1l-58.7,97.8c-2.1,3.6-3.3,7.6-3.3,11.8v176.5
			c0,12.6,10.2,22.9,22.9,22.9H160v105.1c0,12.6,10.2,22.9,22.9,22.9h274.3c12.6,0,22.9-10.2,22.9-22.9V280.6
			C480,276.5,478.9,272.4,476.7,268.9z M375.2,224l38.2,63.7H336V224H375.2z M304,224v63.7h-77.4l38.2-63.7H304z M285.6,160h-44.1
			c0,0,0,0,0,0H208V96h39.2L285.6,160z M136.8,96H176v64H98.4L136.8,96z M163.3,268.9c-2.1,3.6-3.3,7.6-3.3,11.8v7.4H96v-96h113.4
			L163.3,268.9z M224,416v-96h192v96H224z"/>
		<rect x="288" y="352" width="64" height="32"/>
	</g>
</g>
</svg>
