<?xml version="1.0" encoding="utf-8"?>
<!-- Generator: Adobe Illustrator 22.1.0, SVG Export Plug-In . SVG Version: 6.00 Build 0)  -->
<svg version="1.1" xmlns="http://www.w3.org/2000/svg" xmlns:xlink="http://www.w3.org/1999/xlink" x="0px" y="0px"
	 viewBox="0 0 512 512" style="enable-background:new 0 0 512 512;" xml:space="preserve">
<style type="text/css">
	.st0{fill:none;stroke:#000000;stroke-miterlimit:10;}
</style>
<g id="Livello_2">
</g>
<g id="Livello_1">
	<path d="M480.8,255.7c0-32.7-19.6-60.7-47.6-73.2C444,154,438,120.5,415,97.4C399.4,81.8,378.9,74,358.4,74
		c-9.8,0-19.6,1.8-28.9,5.4c-12.5-27.9-40.5-47.4-73-47.4c-32.7,0-60.7,19.6-73.2,47.6c-9.2-3.5-18.9-5.3-28.6-5.3
		c-20.5,0-40.9,7.8-56.5,23.4c-23.1,23.1-29.1,56.8-18,85.4c-27.9,12.5-47.4,40.5-47.4,73c0,32.7,19.6,60.7,47.6,73.2
		c-10.9,28.6-4.9,62.1,18.1,85.2c15.6,15.6,36.1,23.4,56.5,23.4c9.8,0,19.6-1.8,28.9-5.4c12.5,27.9,40.5,47.4,73,47.4
		c32.7,0,60.7-19.6,73.2-47.6c9.2,3.5,18.9,5.3,28.6,5.3c20.5,0,40.9-7.8,56.5-23.4c23.1-23.1,29.1-56.8,18-85.4
		C461.3,316.3,480.8,288.3,480.8,255.7z M407.2,270.4l-55.5,24.8l21.9,56.7c1.7,4.5,1.8,11.7-3.6,17.1c-3.9,3.9-8.3,4.7-11.3,4.7
		c-2,0-3.9-0.4-5.8-1.1l-56.7-21.7l-24.6,55.5c-2,4.4-7,9.6-14.6,9.6c-7.7,0-12.7-5.1-14.6-9.5L217.6,351l-56.7,21.9
		c-1.8,0.7-3.8,1.1-5.8,1.1c-3,0-7.4-0.8-11.3-4.7c-5.4-5.4-5.3-12.6-3.6-17.1l21.7-56.7l-55.5-24.6c-4.4-2-9.6-7-9.6-14.6
		c0-7.7,5.1-12.7,9.5-14.6l55.5-24.8l-21.9-56.7c-1.7-4.5-1.8-11.7,3.6-17.1c3.9-3.9,8.3-4.7,11.3-4.7c2,0,3.9,0.4,5.8,1.1
		l56.7,21.7l24.6-55.5c2-4.4,7-9.6,14.6-9.6c7.7,0,12.7,5.1,14.6,9.5l24.8,55.5l56.7-21.9c1.8-0.7,3.8-1.1,5.8-1.1
		c3,0,7.4,0.8,11.3,4.7c5.4,5.4,5.3,12.6,3.6,17.1l-21.7,56.7l55.5,24.6c4.4,2,9.6,7,9.6,14.6C416.8,263.4,411.6,268.4,407.2,270.4z
		"/>
</g>
</svg>
