<?xml version="1.0" encoding="utf-8"?>
<!-- Generator: Adobe Illustrator 21.0.0, SVG Export Plug-In . SVG Version: 6.00 Build 0)  -->
<svg version="1.1" id="Livello_1" xmlns="http://www.w3.org/2000/svg" xmlns:xlink="http://www.w3.org/1999/xlink" x="0px" y="0px"
	 viewBox="0 0 512 512" style="enable-background:new 0 0 512 512;" xml:space="preserve">
<g>
	<path d="M361.1,315.8c22-31,34.9-68.9,34.9-109.8c0-104.9-85.1-190-190-190S16,101.1,16,206s85.1,190,190,190
		c40.9,0,78.8-12.9,109.8-34.9l125.6,125.6l0,0c5.8,5.8,13.8,9.4,22.6,9.4c17.7,0,32-14.3,32-32c0-8.8-3.6-16.8-9.4-22.6
		L361.1,315.8z M116.9,295.1C93.1,271.3,80,239.7,80,206s13.1-65.3,36.9-89.1C140.7,93.1,172.3,80,206,80s65.3,13.1,89.1,36.9
		c23.8,23.8,36.9,55.4,36.9,89.1s-13.1,65.3-36.9,89.1C271.3,318.9,239.7,332,206,332S140.7,318.9,116.9,295.1z"/>
</g>
</svg>
