<?xml version="1.0" encoding="utf-8"?>
<!-- Generator: Adobe Illustrator 22.1.0, SVG Export Plug-In . SVG Version: 6.00 Build 0)  -->
<svg version="1.1" xmlns="http://www.w3.org/2000/svg" xmlns:xlink="http://www.w3.org/1999/xlink" x="0px" y="0px"
	 viewBox="0 0 512 512" style="enable-background:new 0 0 512 512;" xml:space="preserve">
<g id="Livello_2">
</g>
<g id="Livello_1">
	<path d="M502.6,457.4L348.4,303.1c22.4-31.4,35.6-69.9,35.6-111.4c0-106-86-192-192-192S0,85.7,0,191.7s86,192,192,192
		c41.4,0,79.7-13.1,111.1-35.4l154.3,154.3L502.6,457.4z M64,191.7c0-10.8,1.3-21.5,3.9-31.7h60.9c-0.6,10.3-0.9,20.9-0.9,31.7
		c0,10.9,0.3,21.6,0.9,32H68C65.4,213.4,64,202.7,64,191.7z M160,191.7c0-10.7,0.3-21.3,0.9-31.7h62.1c0.6,10.4,0.9,21,0.9,31.7
		c0,10.8-0.3,21.5-1,32H161C160.3,213.2,160,202.5,160,191.7z M255.1,160h60.9c2.6,10.2,3.9,20.9,3.9,31.7c0,10.9-1.4,21.7-4,32
		h-60.9c0.6-10.4,0.9-21.1,0.9-32C256,180.9,255.7,170.3,255.1,160z M303.1,128h-50.7c-2.3-19.6-5.6-37.8-9.8-53.9
		c14.7,6.3,28.3,15.5,39.9,27.1C290.6,109.3,297.5,118.3,303.1,128z M239.1,61.8C239.1,61.8,239.1,61.8,239.1,61.8
		C239.1,61.8,239.1,61.8,239.1,61.8z M237.9,58c0-0.1-0.1-0.2-0.1-0.4C237.9,57.8,237.9,57.9,237.9,58z M236.7,54.3
		c0-0.1-0.1-0.3-0.1-0.4C236.6,54.1,236.7,54.2,236.7,54.3z M235.4,50.5c0-0.1,0-0.1-0.1-0.2C235.3,50.4,235.3,50.5,235.4,50.5z
		 M231.3,40.1c0-0.1-0.1-0.1-0.1-0.2C231.2,39.9,231.2,40,231.3,40.1z M229.9,37c-0.1-0.2-0.1-0.3-0.2-0.5
		C229.7,36.7,229.8,36.8,229.9,37z M228.5,34c-0.1-0.2-0.2-0.4-0.3-0.5C228.3,33.6,228.4,33.8,228.5,34z M227,30.9
		c-0.1-0.1-0.1-0.3-0.2-0.4C226.9,30.7,226.9,30.8,227,30.9z M222.3,22.5c-0.1-0.1-0.2-0.3-0.2-0.4
		C222.1,22.3,222.2,22.4,222.3,22.5z M220.8,20.2c-0.1-0.2-0.3-0.4-0.4-0.6C220.5,19.8,220.6,20,220.8,20.2z M219.2,17.9
		c-0.1-0.2-0.3-0.4-0.4-0.6C218.9,17.5,219.1,17.7,219.2,17.9z M217.6,15.7c-0.1-0.2-0.3-0.3-0.4-0.5
		C217.3,15.4,217.5,15.5,217.6,15.7z M215.8,13.5c-0.1-0.1-0.2-0.2-0.2-0.3C215.7,13.3,215.8,13.4,215.8,13.5z M212.3,9.6
		c-0.1-0.1-0.3-0.3-0.4-0.4C212.1,9.3,212.2,9.5,212.3,9.6z M194.4-0.1c-0.2,0-0.4,0-0.6-0.1C194-0.2,194.2-0.2,194.4-0.1z M210.7,8
		c-0.2-0.2-0.4-0.3-0.5-0.5C210.3,7.7,210.5,7.9,210.7,8z M209,6.6c-0.2-0.2-0.4-0.3-0.6-0.5C208.6,6.3,208.8,6.4,209,6.6z
		 M207.3,5.3c-0.2-0.1-0.4-0.3-0.6-0.4C206.9,5,207.1,5.1,207.3,5.3z M205.5,4c-0.2-0.1-0.3-0.2-0.5-0.3
		C205.2,3.8,205.3,3.9,205.5,4z M203.3,2.7C203.3,2.7,203.3,2.7,203.3,2.7C203.3,2.7,203.3,2.7,203.3,2.7z M201.6,1.9
		c-0.2-0.1-0.4-0.2-0.5-0.2C201.2,1.7,201.4,1.8,201.6,1.9z M199.8,1.2c-0.2-0.1-0.4-0.2-0.7-0.2C199.4,1,199.6,1.1,199.8,1.2z
		 M198.1,0.6c-0.2-0.1-0.5-0.1-0.7-0.2C197.6,0.5,197.8,0.5,198.1,0.6z M196.3,0.2c-0.2,0-0.4-0.1-0.7-0.1
		C195.8,0.1,196,0.1,196.3,0.2z M197.1,42.8c4.9,8.9,9.5,21,13.4,35.1c4.1,15,7.4,31.9,9.6,50.1h-56.3c2.3-18.1,5.5-35.1,9.6-50.1
		c3.9-14.1,8.5-26.3,13.4-35.1c2-3.6,3.7-6.1,5.1-7.9C193.4,36.7,195.1,39.2,197.1,42.8z M173.3,8c0.2-0.2,0.4-0.3,0.5-0.5
		C173.7,7.7,173.5,7.9,173.3,8z M175,6.6c0.2-0.2,0.4-0.3,0.6-0.5C175.4,6.3,175.2,6.4,175,6.6z M176.7,5.3c0.2-0.1,0.4-0.3,0.6-0.4
		C177.1,5,176.9,5.1,176.7,5.3z M178.5,4c0.2-0.1,0.3-0.2,0.5-0.3C178.8,3.8,178.7,3.9,178.5,4z M180.7,2.7
		C180.7,2.7,180.7,2.7,180.7,2.7C180.7,2.7,180.7,2.7,180.7,2.7z M182.4,1.9c0.2-0.1,0.4-0.2,0.5-0.2C182.8,1.7,182.6,1.8,182.4,1.9
		z M184.2,1.2c0.2-0.1,0.4-0.2,0.7-0.2C184.6,1,184.4,1.1,184.2,1.2z M185.9,0.6c0.2-0.1,0.5-0.1,0.7-0.2
		C186.4,0.5,186.2,0.5,185.9,0.6z M189.6-0.1c0.2,0,0.4,0,0.6-0.1C190-0.2,189.8-0.2,189.6-0.1z M187.7,0.2c0.2,0,0.4-0.1,0.7-0.1
		C188.2,0.1,188,0.1,187.7,0.2z M172.1,9.2c-0.1,0.1-0.3,0.3-0.4,0.4C171.8,9.5,171.9,9.3,172.1,9.2z M141.4,74.1
		C141.4,74.1,141.4,74.1,141.4,74.1c-4.2,16.1-7.5,34.3-9.8,53.9H80.9c5.6-9.7,12.5-18.7,20.6-26.8
		C113.2,89.5,126.7,80.4,141.4,74.1z M168.4,13.2c-0.1,0.1-0.2,0.2-0.2,0.3C168.2,13.4,168.3,13.3,168.4,13.2z M166.8,15.2
		c-0.1,0.2-0.3,0.3-0.4,0.5C166.5,15.5,166.7,15.4,166.8,15.2z M165.2,17.3c-0.1,0.2-0.3,0.4-0.4,0.6
		C164.9,17.7,165.1,17.5,165.2,17.3z M163.6,19.6c-0.1,0.2-0.3,0.4-0.4,0.6C163.4,20,163.5,19.8,163.6,19.6z M162,22.1
		c-0.1,0.1-0.2,0.3-0.2,0.4C161.8,22.4,161.9,22.3,162,22.1z M157.2,30.5c-0.1,0.1-0.1,0.3-0.2,0.4
		C157.1,30.8,157.1,30.7,157.2,30.5z M155.8,33.4c-0.1,0.2-0.2,0.4-0.3,0.5C155.6,33.8,155.7,33.6,155.8,33.4z M154.3,36.5
		c-0.1,0.2-0.1,0.3-0.2,0.5C154.2,36.8,154.3,36.7,154.3,36.5z M152.8,39.9c0,0.1-0.1,0.1-0.1,0.2C152.8,40,152.8,39.9,152.8,39.9z
		 M148.7,50.4c0,0.1,0,0.1-0.1,0.2C148.7,50.5,148.7,50.4,148.7,50.4z M147.4,53.9c0,0.1-0.1,0.3-0.1,0.4
		C147.3,54.2,147.4,54.1,147.4,53.9z M146.2,57.7c0,0.1-0.1,0.3-0.1,0.4C146.1,57.9,146.1,57.8,146.2,57.7z M144.9,61.8
		C144.9,61.8,144.9,61.8,144.9,61.8C144.9,61.8,144.9,61.8,144.9,61.8z M101.5,282.2c-8-8-14.9-16.9-20.4-26.5h50.6
		c2.3,19.5,5.6,37.6,9.8,53.6c0,0,0,0,0,0C126.7,303,113.2,293.9,101.5,282.2z M144.9,321.6C144.9,321.7,144.9,321.7,144.9,321.6
		C144.9,321.7,144.9,321.7,144.9,321.6z M146.1,325.4c0,0.1,0.1,0.3,0.1,0.4C146.1,325.6,146.1,325.5,146.1,325.4z M147.3,329.1
		c0,0.1,0.1,0.3,0.1,0.4C147.4,329.4,147.3,329.2,147.3,329.1z M148.6,332.9c0,0.1,0,0.1,0.1,0.2C148.7,333,148.7,333,148.6,332.9z
		 M152.7,343.4c0,0.1,0.1,0.1,0.1,0.2C152.8,343.5,152.8,343.4,152.7,343.4z M154.1,346.5c0.1,0.2,0.1,0.3,0.2,0.5
		C154.3,346.8,154.2,346.6,154.1,346.5z M155.5,349.5c0.1,0.2,0.2,0.4,0.3,0.5C155.7,349.8,155.6,349.7,155.5,349.5z M157,352.5
		c0.1,0.1,0.1,0.3,0.2,0.4C157.1,352.8,157.1,352.6,157,352.5z M161.7,360.9c0.1,0.1,0.2,0.3,0.2,0.4
		C161.9,361.2,161.8,361,161.7,360.9z M163.2,363.3c0.1,0.2,0.3,0.4,0.4,0.6C163.5,363.7,163.4,363.5,163.2,363.3z M164.8,365.5
		c0.1,0.2,0.3,0.4,0.4,0.6C165.1,365.9,164.9,365.7,164.8,365.5z M166.4,367.7c0.1,0.2,0.3,0.4,0.4,0.5
		C166.7,368.1,166.5,367.9,166.4,367.7z M168.2,369.9c0.1,0.1,0.2,0.2,0.2,0.3C168.3,370.1,168.2,370,168.2,369.9z M171.7,373.8
		c0.1,0.1,0.3,0.3,0.4,0.4C171.9,374.1,171.8,374,171.7,373.8z M189.6,383.6c0.2,0,0.4,0,0.6,0.1C190,383.6,189.8,383.6,189.6,383.6
		z M173.3,375.4c0.2,0.2,0.4,0.3,0.5,0.5C173.7,375.7,173.5,375.6,173.3,375.4z M175,376.8c0.2,0.2,0.4,0.3,0.6,0.5
		C175.4,377.2,175.2,377,175,376.8z M176.7,378.2c0.2,0.1,0.4,0.3,0.6,0.4C177.1,378.5,176.9,378.3,176.7,378.2z M178.5,379.4
		c0.2,0.1,0.3,0.2,0.5,0.3C178.8,379.6,178.7,379.5,178.5,379.4z M180.7,380.7C180.7,380.7,180.7,380.7,180.7,380.7
		C180.7,380.7,180.7,380.7,180.7,380.7z M182.4,381.6c0.2,0.1,0.4,0.2,0.5,0.2C182.8,381.7,182.6,381.7,182.4,381.6z M184.2,382.3
		c0.2,0.1,0.4,0.2,0.7,0.2C184.6,382.4,184.4,382.4,184.2,382.3z M185.9,382.9c0.2,0.1,0.5,0.1,0.7,0.2
		C186.4,383,186.2,382.9,185.9,382.9z M187.7,383.3c0.2,0,0.4,0.1,0.7,0.1C188.2,383.4,188,383.3,187.7,383.3z M186.9,340.6
		c-4.9-8.9-9.5-21-13.4-35.1c-4.1-14.9-7.3-31.7-9.6-49.8h56.2c-2.3,18-5.5,34.9-9.6,49.8c-3.9,14.1-8.5,26.3-13.4,35.1
		c-2,3.6-3.7,6.1-5.1,7.9C190.6,346.7,188.9,344.2,186.9,340.6z M210.7,375.4c-0.2,0.2-0.4,0.3-0.5,0.5
		C210.3,375.7,210.5,375.6,210.7,375.4z M209,376.8c-0.2,0.2-0.4,0.3-0.6,0.5C208.6,377.2,208.8,377,209,376.8z M207.3,378.2
		c-0.2,0.1-0.4,0.3-0.6,0.4C206.9,378.5,207.1,378.3,207.3,378.2z M205.5,379.4c-0.2,0.1-0.3,0.2-0.5,0.3
		C205.2,379.6,205.3,379.5,205.5,379.4z M203.3,380.7C203.3,380.7,203.3,380.7,203.3,380.7C203.3,380.7,203.3,380.7,203.3,380.7z
		 M201.6,381.6c-0.2,0.1-0.4,0.2-0.5,0.2C201.2,381.7,201.4,381.7,201.6,381.6z M199.8,382.3c-0.2,0.1-0.4,0.2-0.7,0.2
		C199.4,382.4,199.6,382.4,199.8,382.3z M198.1,382.9c-0.2,0.1-0.5,0.1-0.7,0.2C197.6,383,197.8,382.9,198.1,382.9z M194.4,383.6
		c-0.2,0-0.4,0-0.6,0.1C194,383.6,194.2,383.6,194.4,383.6z M196.3,383.3c-0.2,0-0.4,0.1-0.7,0.1C195.8,383.4,196,383.3,196.3,383.3
		z M211.9,374.2c0.1-0.1,0.3-0.3,0.4-0.4C212.2,374,212.1,374.1,211.9,374.2z M239.1,321.6C239.1,321.7,239.1,321.7,239.1,321.6
		C239.1,321.7,239.1,321.7,239.1,321.6z M237.9,325.4c0,0.1-0.1,0.2-0.1,0.4C237.9,325.6,237.9,325.5,237.9,325.4z M236.7,329.1
		c0,0.1-0.1,0.3-0.1,0.4C236.6,329.4,236.7,329.2,236.7,329.1z M235.4,332.9c0,0.1,0,0.1-0.1,0.2C235.3,333,235.3,333,235.4,332.9z
		 M231.3,343.4c0,0.1-0.1,0.1-0.1,0.2C231.2,343.5,231.2,343.4,231.3,343.4z M229.9,346.5c-0.1,0.2-0.1,0.3-0.2,0.5
		C229.7,346.8,229.8,346.6,229.9,346.5z M228.5,349.5c-0.1,0.2-0.2,0.4-0.3,0.5C228.3,349.8,228.4,349.7,228.5,349.5z M227,352.5
		c-0.1,0.1-0.1,0.3-0.2,0.4C226.9,352.8,226.9,352.6,227,352.5z M222.3,360.9c-0.1,0.1-0.2,0.3-0.2,0.4
		C222.1,361.2,222.2,361,222.3,360.9z M220.8,363.3c-0.1,0.2-0.3,0.4-0.4,0.6C220.5,363.7,220.6,363.5,220.8,363.3z M219.2,365.5
		c-0.1,0.2-0.3,0.4-0.4,0.6C218.9,365.9,219.1,365.7,219.2,365.5z M217.6,367.7c-0.1,0.2-0.3,0.3-0.4,0.5
		C217.3,368.1,217.5,367.9,217.6,367.7z M215.8,369.9c-0.1,0.1-0.2,0.2-0.2,0.3C215.7,370.1,215.8,370,215.8,369.9z M242.6,309.4
		c4.2-16,7.5-34.1,9.8-53.6h50.6c-5.5,9.6-12.4,18.5-20.4,26.5C270.8,293.9,257.3,303,242.6,309.4z"/>
</g>
</svg>
