<?xml version="1.0" encoding="utf-8"?>
<!-- Generator: Adobe Illustrator 21.1.0, SVG Export Plug-In . SVG Version: 6.00 Build 0)  -->
<svg version="1.1" id="Livello_1" xmlns="http://www.w3.org/2000/svg" xmlns:xlink="http://www.w3.org/1999/xlink" x="0px" y="0px"
	 viewBox="0 0 512 512" style="enable-background:new 0 0 512 512;" xml:space="preserve">
<style type="text/css">
	.st0{fill:none;stroke:#000000;stroke-width:32;stroke-miterlimit:10;}
	.st1{fill:#110B0B;}
</style>
<path d="M384,288c-25.9,0-49.4,10.2-66.6,26.9l-94.1-47c0.5-3.9,0.7-7.8,0.7-11.9c0-4.1-0.3-8.1-0.7-12l93.9-47.1
	C334.4,213.7,358,224,384,224c53,0,96-43,96-96c0-53-43-96-96-96s-96,43-96,96c0,3.9,0.2,7.8,0.7,11.5l-94.2,47.3
	C177.3,170.2,153.8,160,128,160c-53,0-96,43-96,96s43,96,96,96c25.9,0,49.4-10.2,66.6-26.9l94.1,47c-0.5,3.9-0.7,7.8-0.7,11.9
	c0,53,43,96,96,96s96-43,96-96S437,288,384,288z M384,96c17.6,0,32,14.4,32,32s-14.4,32-32,32s-32-14.4-32-32S366.4,96,384,96z
	 M128,288c-17.6,0-32-14.4-32-32s14.4-32,32-32s32,14.4,32,32S145.6,288,128,288z M384,416c-17.6,0-32-14.4-32-32s14.4-32,32-32
	s32,14.4,32,32S401.6,416,384,416z"/>
</svg>
