<?xml version="1.0" encoding="utf-8"?>
<!-- Generator: Adobe Illustrator 21.0.2, SVG Export Plug-In . SVG Version: 6.00 Build 0)  -->
<svg version="1.1" id="Livello_1" xmlns="http://www.w3.org/2000/svg" xmlns:xlink="http://www.w3.org/1999/xlink" x="0px" y="0px"
	 viewBox="0 0 512 512" style="enable-background:new 0 0 512 512;" xml:space="preserve">
<style type="text/css">
	.st0{stroke:#000000;stroke-width:32;stroke-miterlimit:10;}
	.st1{stroke:#000000;stroke-width:64;stroke-miterlimit:10;}
	.st2{stroke:#000000;stroke-width:96;stroke-miterlimit:10;}
	.st3{fill:none;stroke:#000000;stroke-width:32;stroke-miterlimit:10;}
	.st4{fill:none;stroke:#FFFFFF;stroke-width:32;stroke-miterlimit:10;}
	.st5{stroke:#000000;stroke-width:32;stroke-linecap:round;stroke-miterlimit:10;}
	.st6{fill:none;stroke:#000000;stroke-width:32;stroke-linecap:round;stroke-miterlimit:10;}
</style>
<g>
	<path d="M404.6,136C389.9,67.4,329,16,256,16S122.1,67.4,107.4,136H48L16,464c0,17.7,14.3,32,32,32h416c17.7,0,32-14.3,32-32
		l-32-328H404.6z M171.1,83.1C193.8,60.5,223.9,48,256,48s62.2,12.5,84.9,35.1c14.9,14.9,25.4,33.1,30.9,52.9H140.3
		C145.7,116.2,156.2,98.1,171.1,83.1z M83.4,432l22.6-232h299.9l22.6,232H83.4z"/>
</g>
</svg>
