<?xml version="1.0" encoding="utf-8"?>
<!-- Generator: Adobe Illustrator 22.0.1, SVG Export Plug-In . SVG Version: 6.00 Build 0)  -->
<svg version="1.1" xmlns="http://www.w3.org/2000/svg" xmlns:xlink="http://www.w3.org/1999/xlink" x="0px" y="0px"
	 viewBox="0 0 512 512" style="enable-background:new 0 0 512 512;" xml:space="preserve">
<g id="Livello_2">
</g>
<g id="Livello_1">
	<g>
		<path d="M64,64l133.5,224c25,25,65.5,25,90.5,0c25-25,25-65.5,0-90.5L64,64z"/>
		<path d="M437,75C388.7,26.6,324.4,0,256,0c-45.1,0-88.5,11.6-126.6,33.4L177,81c24.1-10.9,50.8-17,79-17c105.9,0,192,86.1,192,192
			c0,52-20.5,100.7-57.7,137.1c-12.6,12.4-12.8,32.6-0.5,45.3c6.3,6.4,14.6,9.6,22.9,9.6c8.1,0,16.2-3,22.4-9.1
			c24.1-23.6,43-51.2,56.2-82C505,324.9,512,291,512,256C512,187.6,485.4,123.3,437,75z"/>
		<path d="M64,256c0-28.1,6.1-54.9,17-79l-47.6-47.6C11.6,167.5,0,210.9,0,256c0,35,7,68.9,20.7,100.9c13.2,30.8,32.1,58.4,56.2,82
			c12.6,12.4,32.9,12.2,45.3-0.5c12.4-12.6,12.2-32.9-0.5-45.3C84.5,356.7,64,308,64,256z"/>
	</g>
</g>
</svg>
