<?xml version="1.0" encoding="utf-8"?>
<!-- Generator: Adobe Illustrator 21.1.0, SVG Export Plug-In . SVG Version: 6.00 Build 0)  -->
<svg version="1.1" id="Livello_1" xmlns="http://www.w3.org/2000/svg" xmlns:xlink="http://www.w3.org/1999/xlink" x="0px" y="0px"
	 viewBox="0 0 512 512" style="enable-background:new 0 0 512 512;" xml:space="preserve">
<style type="text/css">
	.st0{fill:none;stroke:#000000;stroke-width:32;stroke-miterlimit:10;}
	.st1{fill:#110B0B;}
</style>
<path d="M480,203.1l-154.8-23.6L256,32l-69.2,147.5L32,203.1l112,114.8L117.6,480L256,403.5L394.4,480L368,317.9L480,203.1z
	 M322.2,273.2l-22.6,23.1l5.2,31.9l5.2,32L287,347.5l-31-17.1l-31,17.1l-23.1,12.8l5.2-32l5.2-31.9l-22.6-23.1l-25-25.6l31.7-4.8
	l33.8-5.2l14.5-30.9l11.3-24l11.3,24l14.5,30.9l33.8,5.2l31.7,4.8L322.2,273.2z"/>
</svg>
