<?xml version="1.0" encoding="utf-8"?>
<!-- Generator: Adobe Illustrator 22.1.0, SVG Export Plug-In . SVG Version: 6.00 Build 0)  -->
<svg version="1.1" xmlns="http://www.w3.org/2000/svg" xmlns:xlink="http://www.w3.org/1999/xlink" x="0px" y="0px"
	 viewBox="0 0 512 512" style="enable-background:new 0 0 512 512;" xml:space="preserve">
<style type="text/css">
	.st0{fill:none;}
</style>
<g id="Livello_2">
</g>
<g id="Livello_1">
	<g>
		<path d="M480,352H128V128h0c0-0.1,0-0.2,0-0.3l0,0c0-17.7-14.3-32-32-32H32c-17.7,0-32,14.3-32,32l0,0c0,17.7,14.3,32,32,32h32
			V352h0c-17.7,0-32,14.3-32,32l0,0c0,17.7,14.3,32,32,32h0c0.2,35.2,28.7,63.7,64,63.7s63.8-28.5,64-63.7h128
			c0.2,35.2,28.7,63.7,64,63.7s63.8-28.5,64-63.7h32c17.7,0,32-14.3,32-32l0,0C512,366.3,497.7,352,480,352z"/>
		<path d="M224,128h224c17.7,0,32-14.3,32-32V64c0-17.7-14.3-32-32-32H224c-17.7,0-32,14.3-32,32v32C192,113.7,206.3,128,224,128z"
			/>
		<path d="M224,288h224c17.7,0,32-14.3,32-32v-32c0-17.7-14.3-32-32-32H224c-17.7,0-32,14.3-32,32v32C192,273.7,206.3,288,224,288z"
			/>
	</g>
</g>
</svg>
