<?xml version="1.0" encoding="utf-8"?>
<!-- Generator: Adobe Illustrator 21.1.0, SVG Export Plug-In . SVG Version: 6.00 Build 0)  -->
<svg version="1.1" xmlns="http://www.w3.org/2000/svg" xmlns:xlink="http://www.w3.org/1999/xlink" x="0px" y="0px"
	 viewBox="0 0 512 512" style="enable-background:new 0 0 512 512;" xml:space="preserve">
<g id="Livello_2">
</g>
<g id="Livello_1">
	<g>
		<path d="M480,224h-34.7C431.8,143.6,368.4,80.2,288,66.7V32c0-17.7-14.3-32-32-32h0c-17.7,0-32,14.3-32,32v34.7
			C143.6,80.2,80.2,143.6,66.7,224H32c-17.7,0-32,14.3-32,32v0c0,17.7,14.3,32,32,32h34.7c13.5,80.4,76.9,143.8,157.3,157.3V480
			c0,17.7,14.3,32,32,32h0c17.7,0,32-14.3,32-32v-34.7c80.4-13.5,143.8-76.9,157.3-157.3H480c17.7,0,32-14.3,32-32v0
			C512,238.3,497.7,224,480,224z M369.1,369.1c-22.5,22.5-50.6,37.5-81.1,43.7V384c0-17.7-14.3-32-32-32h0c-17.7,0-32,14.3-32,32
			v28.8c-30.5-6.2-58.6-21.1-81.1-43.7c-22.5-22.5-37.5-50.6-43.7-81.1H128c17.7,0,32-14.3,32-32v0c0-17.7-14.3-32-32-32H99.2
			c6.2-30.5,21.1-58.6,43.7-81.1c22.5-22.5,50.6-37.5,81.1-43.7V128c0,17.7,14.3,32,32,32h0c17.7,0,32-14.3,32-32V99.2
			c30.5,6.2,58.6,21.1,81.1,43.7c22.5,22.5,37.5,50.6,43.7,81.1H384c-17.7,0-32,14.3-32,32v0c0,17.7,14.3,32,32,32h28.8
			C406.6,318.5,391.7,346.6,369.1,369.1z"/>
		<circle cx="256" cy="256" r="32"/>
	</g>
</g>
</svg>
