<?xml version="1.0" encoding="utf-8"?>
<!-- Generator: Adobe Illustrator 22.0.1, SVG Export Plug-In . SVG Version: 6.00 Build 0)  -->
<svg version="1.1" xmlns="http://www.w3.org/2000/svg" xmlns:xlink="http://www.w3.org/1999/xlink" x="0px" y="0px"
	 viewBox="0 0 512 512" style="enable-background:new 0 0 512 512;" xml:space="preserve">
<g id="Livello_2">
</g>
<g id="Livello_1">
	<g>
		<path d="M505.2,306.5l-48.4-96.8c-5.4-10.8-16.5-17.7-28.6-17.7H352V96c0-17.7-14.3-32-32-32H64H32C14.3,64,0,78.3,0,96v312.6
			c2.9-38.7,28.8-71,64-83.4V128h224v64v160H167.9c15.1,17,24.4,39.4,24.4,64H288h32c0,35.3,28.7,64,64,64s64-28.7,64-64h32
			c17.7,0,32-14.3,32-32v-48.9C512,325.2,509.7,315.4,505.2,306.5z M448,352h-96v-96h56.4l39.6,79.1V352z"/>
		<circle cx="96" cy="416" r="64"/>
	</g>
</g>
</svg>
