<?xml version="1.0" encoding="utf-8"?>
<!-- Generator: Adobe Illustrator 22.0.1, SVG Export Plug-In . SVG Version: 6.00 Build 0)  -->
<svg version="1.1" xmlns="http://www.w3.org/2000/svg" xmlns:xlink="http://www.w3.org/1999/xlink" x="0px" y="0px"
	 viewBox="0 0 512 512" style="enable-background:new 0 0 512 512;" xml:space="preserve">
<g id="Livello_2">
</g>
<g id="Livello_1">
	<g>
		<rect y="7.5" width="96" height="288"/>
		<path d="M464.1,47.8c-9.7-24.3-33.3-40.2-59.4-40.2H192c-35.3,0-64,28.7-64,64v200.3c0,15.3,5.5,30.1,15.4,41.7l165.3,192.9
			c3.2,3.7,7.7,5.6,12.2,5.6c4.1,0,8.2-1.5,11.3-4.7l26.2-26.2c15.9-15.9,22.3-39,16.8-60.8L352,327.5h96c35.3,0,64-28.7,64-64v-96
			L464.1,47.8z M448,263.5h-96h-82l19.9,79.5l15.2,60.8L192,271.9V71.5h212.7L448,179.9V263.5z"/>
	</g>
</g>
</svg>
