<?xml version="1.0" encoding="utf-8"?>
<!-- Generator: Adobe Illustrator 21.0.0, SVG Export Plug-In . SVG Version: 6.00 Build 0)  -->
<svg version="1.1" id="Livello_1" xmlns="http://www.w3.org/2000/svg" xmlns:xlink="http://www.w3.org/1999/xlink" x="0px" y="0px"
	 viewBox="0 0 512 512" style="enable-background:new 0 0 512 512;" xml:space="preserve">
<style type="text/css">
	.st0{stroke:#000000;stroke-width:32;stroke-miterlimit:10;}
	.st1{stroke:#000000;stroke-width:64;stroke-miterlimit:10;}
	.st2{stroke:#000000;stroke-width:96;stroke-miterlimit:10;}
	.st3{fill:none;stroke:#FFFFFF;stroke-width:32;stroke-miterlimit:10;}
</style>
<g>
	<path d="M256,64c36.9,0,67,30.1,67,67s-30.1,67-67,67s-67-30.1-67-67S219.1,64,256,64 M256,0c-72.3,0-131,58.7-131,131
		c0,72.3,58.7,131,131,131s131-58.7,131-131C387,58.7,328.3,0,256,0L256,0z"/>
</g>
<g>
	<path d="M320.2,350c43.8,5.4,75,14.1,92.8,25.9c11.7,7.8,19,17.2,19,40.1v16H80v-16c0-23.2,7.3-32.6,19-40.3
		c17.7-11.7,48.9-20.3,92.8-25.7H320.2 M324,286H188C85.8,297.8,16,327.6,16,416v80h480v-80C496,328.1,426.2,297.9,324,286L324,286z
		"/>
</g>
</svg>
