<?xml version="1.0" encoding="utf-8"?>
<!-- Generator: Adobe Illustrator 21.1.0, SVG Export Plug-In . SVG Version: 6.00 Build 0)  -->
<svg version="1.1" id="Livello_1" xmlns="http://www.w3.org/2000/svg" xmlns:xlink="http://www.w3.org/1999/xlink" x="0px" y="0px"
	 viewBox="0 0 512 512" style="enable-background:new 0 0 512 512;" xml:space="preserve">
<g>
	<path d="M416,64H96c-53,0-96,43-96,96v192c0,53,43,96,96,96h320c53,0,96-43,96-96V160C512,107,469,64,416,64z M480,352
		c0,35.3-28.7,64-64,64H96c-35.3,0-64-28.7-64-64V160c0-35.3,28.7-64,64-64h320c35.3,0,64,28.7,64,64V352z"/>
	<polygon points="192,352 320,256 192,160 	"/>
</g>
</svg>
