<?xml version="1.0" encoding="utf-8"?>
<!-- Generator: Adobe Illustrator 21.0.2, SVG Export Plug-In . SVG Version: 6.00 Build 0)  -->
<svg version="1.1" id="Livello_1" xmlns="http://www.w3.org/2000/svg" xmlns:xlink="http://www.w3.org/1999/xlink" x="0px" y="0px"
	 viewBox="0 0 512 512" style="enable-background:new 0 0 512 512;" xml:space="preserve">
<g>
	<path d="M502.6,457.4L376,330.7c25.2-34.4,40-76.8,40-122.7C416,93.1,322.9,0,208,0S0,93.1,0,208s93.1,208,208,208
		c45.9,0,88.3-14.9,122.7-40l126.7,126.7L502.6,457.4z M106.2,309.8C79,282.6,64,246.5,64,208s15-74.6,42.2-101.8
		C133.4,79,169.5,64,208,64s74.6,15,101.8,42.2C337,133.4,352,169.5,352,208s-15,74.6-42.2,101.8C282.6,337,246.5,352,208,352
		S133.4,337,106.2,309.8z"/>
	<polygon points="224,128 192,128 192,192 128,192 128,224 192,224 192,288 224,288 224,224 288,224 288,192 224,192 	"/>
</g>
</svg>
