<?xml version="1.0" encoding="utf-8"?>
<!-- Generator: Adobe Illustrator 22.1.0, SVG Export Plug-In . SVG Version: 6.00 Build 0)  -->
<svg version="1.1" xmlns="http://www.w3.org/2000/svg" xmlns:xlink="http://www.w3.org/1999/xlink" x="0px" y="0px"
	 viewBox="0 0 512 512" style="enable-background:new 0 0 512 512;" xml:space="preserve">
<g id="Livello_2">
</g>
<g id="Livello_1">
	<g>
		<path d="M321.5,4.7L321.5,4.7c-3.1-3.1-7.2-4.7-11.3-4.7c-4.1,0-8.2,1.6-11.3,4.7l-79.2,79.2L197,61.3
			c-12.5-12.5-32.8-12.5-45.3,0l-90.5,90.5c-12.5,12.5-12.5,32.8,0,45.3l22.6,22.6L4.7,298.8c-6.2,6.2-6.2,16.4,0,22.6
			c3.1,3.1,7.2,4.7,11.3,4.7c4.1,0,8.2-1.6,11.3-4.7L321.5,27.3C327.7,21.1,327.7,10.9,321.5,4.7z M83.9,174.4l90.5-90.5l22.6,22.6
			L106.5,197L83.9,174.4z"/>
		<path d="M320,239.7L320,239.7c-0.2-8.7-7.3-15.7-16-15.7s-15.8,7-16,15.7h0v160h0c0,0.1,0,0.2,0,0.3c0,8.8,7.2,16,16,16
			s16-7.2,16-16c0-0.1,0-0.2,0-0.3h0V239.7z"/>
		<path d="M224,271.7L224,271.7c-0.2-8.7-7.3-15.7-16-15.7s-15.8,7-16,15.7h0v128h0c0,0.1,0,0.2,0,0.3c0,8.8,7.2,16,16,16
			s16-7.2,16-16c0-0.1,0-0.2,0-0.3h0V271.7z"/>
		<path d="M351.8,96l-32,32H416l0,352H96V351.8l-32,32V480c0,17.7,14.3,32,32,32h320c17.7,0,32-14.3,32-32V96H351.8z"/>
	</g>
</g>
</svg>
