<?xml version="1.0" encoding="utf-8"?>
<!-- Generator: Adobe Illustrator 21.1.0, SVG Export Plug-In . SVG Version: 6.00 Build 0)  -->
<svg version="1.1" id="Livello_1" xmlns="http://www.w3.org/2000/svg" xmlns:xlink="http://www.w3.org/1999/xlink" x="0px" y="0px"
	 viewBox="0 0 512 512" style="enable-background:new 0 0 512 512;" xml:space="preserve">
<g>
	<path d="M208,416c8.8,0,16-7.2,16-16V208c0-8.8-7.2-16-16-16s-16,7.2-16,16v192C192,408.8,199.2,416,208,416z"/>
	<path d="M304,416c8.8,0,16-7.2,16-16V208c0-8.8-7.2-16-16-16s-16,7.2-16,16v192C288,408.8,295.2,416,304,416z"/>
	<path d="M496,96h-48h-64V32c0-17.7-14.3-32-32-32H160c-17.7,0-32,14.3-32,32v64H64H16c-8.8,0-16,7.2-16,16c0,8.8,7.2,16,16,16h48
		v352c0,17.7,14.3,32,32,32h320c17.7,0,32-14.3,32-32V128h48c8.8,0,16-7.2,16-16C512,103.2,504.8,96,496,96z M160,32h192v64H160V32z
		 M416,480H96V128h320L416,480z"/>
</g>
</svg>
