<?xml version="1.0" encoding="utf-8"?>
<!-- Generator: Adobe Illustrator 21.0.0, SVG Export Plug-In . SVG Version: 6.00 Build 0)  -->
<svg version="1.1" id="Livello_1" xmlns="http://www.w3.org/2000/svg" xmlns:xlink="http://www.w3.org/1999/xlink" x="0px" y="0px"
	 viewBox="0 0 512 512" style="enable-background:new 0 0 512 512;" xml:space="preserve">
<style type="text/css">
	.st0{stroke:#000000;stroke-width:32;stroke-miterlimit:10;}
	.st1{stroke:#000000;stroke-width:64;stroke-miterlimit:10;}
	.st2{stroke:#000000;stroke-width:96;stroke-miterlimit:10;}
</style>
<path d="M464,80h-32V32c0-4.9-1.1-9.6-3.1-13.7c0,0,0-0.1-0.1-0.1c-0.9-1.8-1.9-3.5-3.1-5.1c-0.1-0.2-0.2-0.3-0.4-0.5
	C419.6,4.9,410.4,0,400,0h-14c-17.7,0-32,14.3-32,32v48H158V32c0-4.9-1.1-9.6-3.1-13.7c0,0,0-0.1-0.1-0.1c-0.9-1.8-1.9-3.5-3.1-5.1
	c-0.1-0.2-0.2-0.3-0.4-0.5C145.6,4.9,136.4,0,126,0h-14C94.3,0,80,14.3,80,32v48H48c-17.7,0-32,14.3-32,32v24v328
	c0,17.7,14.3,32,32,32h416c17.7,0,32-14.3,32-32V136v-24C496,94.3,481.7,80,464,80z M126,464H48v-80h78V464z M126,352H48v-72h78V352
	z M126,248H48v-80h78V248z M240,464h-82v-80h82V464z M240,352h-82v-72h82V352z M240,248h-82v-80h82V248z M354,464h-82v-80h82V464z
	 M354,352h-82v-72h82V352z M354,248h-82v-80h82V248z M386,168h78l0,80h-78V168z M386,280h78v72h-78V280z M386,464v-80h78l0,80H386z"
	/>
</svg>
