<?xml version="1.0" encoding="utf-8"?>
<!-- Generator: Adobe Illustrator 21.1.0, SVG Export Plug-In . SVG Version: 6.00 Build 0)  -->
<svg version="1.1" id="Livello_1" xmlns="http://www.w3.org/2000/svg" xmlns:xlink="http://www.w3.org/1999/xlink" x="0px" y="0px"
	 viewBox="0 0 512 512" style="enable-background:new 0 0 512 512;" xml:space="preserve">
<path d="M448,64h-32V32c0-17.7-14.3-32-32-32h-32c-17.7,0-32,14.3-32,32v32h-96V32c0-17.7-14.3-32-32-32h-32c-17.7,0-32,14.3-32,32
	v32H96c-17.7,0-32,14.3-32,32v32v32v256c0,17.7,14.3,32,32,32h352c17.7,0,32-14.3,32-32V160v-32V96C480,78.3,465.7,64,448,64z
	 M352,32h32v64h-32V32z M160,416H96v-64h64V416z M160,320H96v-64h64V320z M160,224H96v-64h64V224z M160,32h32v64h-32V32z M256,416
	h-64v-64h64V416z M256,320h-64v-64h64V320z M192,224v-64h64v64H192z M352,416h-64v-64h64V416z M352,320h-64v-64h64V320z M288,224
	v-64h64v64H288z M448,416h-64v-64h64V416z M448,320h-64v-64h64V320z M448,224h-64v-64h64V224z"/>
</svg>
