<?xml version="1.0" encoding="utf-8"?>
<!-- Generator: Adobe Illustrator 21.0.2, SVG Export Plug-In . SVG Version: 6.00 Build 0)  -->
<svg version="1.1" id="Livello_1" xmlns="http://www.w3.org/2000/svg" xmlns:xlink="http://www.w3.org/1999/xlink" x="0px" y="0px"
	 viewBox="0 0 512 512" style="enable-background:new 0 0 512 512;" xml:space="preserve">
<g>
	<path d="M476.8,134.4c-3-4-7.8-6.4-12.8-6.4H128V48c0-8.8-7.2-16-16-16H48c-8.8,0-16,7.2-16,16s7.2,16,16,16h48v304
		c0,8.8,7.2,16,16,16h288c7.1,0,13.4-4.7,15.4-11.6l64-224C480.8,143.6,479.8,138.4,476.8,134.4z M387.9,352H128V160h314.8
		L387.9,352z"/>
	<circle cx="128" cy="448" r="32"/>
	<circle cx="384" cy="448" r="32"/>
</g>
</svg>
