<?xml version="1.0" encoding="utf-8"?>
<!-- Generator: Adobe Illustrator 21.0.0, SVG Export Plug-In . SVG Version: 6.00 Build 0)  -->
<svg version="1.1" id="Livello_1" xmlns="http://www.w3.org/2000/svg" xmlns:xlink="http://www.w3.org/1999/xlink" x="0px" y="0px"
	 viewBox="0 0 512 512" style="enable-background:new 0 0 512 512;" xml:space="preserve">
<style type="text/css">
	.st0{stroke:#000000;stroke-width:32;stroke-miterlimit:10;}
	.st1{stroke:#000000;stroke-width:64;stroke-miterlimit:10;}
	.st2{stroke:#000000;stroke-width:96;stroke-miterlimit:10;}
	.st3{fill:none;stroke:#FFFFFF;stroke-width:32;stroke-miterlimit:10;}
	.st4{fill:none;stroke:#000000;stroke-width:32;stroke-linejoin:round;stroke-miterlimit:10;}
	.st5{fill:none;stroke:#000000;stroke-width:64;stroke-linejoin:round;stroke-miterlimit:10;}
	.st6{fill:none;stroke:#000000;stroke-width:96;stroke-linejoin:round;stroke-miterlimit:10;}
</style>
<g>
	<path d="M400,304c6.8,0,12.8-4.3,15.1-10.7l64-182c1.7-4.9,1-10.3-2-14.6c-3-4.2-7.9-6.8-13.1-6.8H112V48c0-8.8-7.2-16-16-16H32
		c-8.8,0-16,7.2-16,16s7.2,16,16,16h48v288c0,8.8,7.2,16,16,16h320c8.8,0,16-7.2,16-16s-7.2-16-16-16H112v-32H400z M112,122h329.4
		l-52.7,150H112V122z"/>
	<path d="M137,381c-31.5,0-57,25.5-57,57s25.5,57,57,57s57-25.5,57-57S168.5,381,137,381z M137,463c-13.8,0-25-11.2-25-25
		s11.2-25,25-25s25,11.2,25,25S150.8,463,137,463z"/>
	<path d="M375,381c-31.5,0-57,25.5-57,57s25.5,57,57,57c31.5,0,57-25.5,57-57S406.5,381,375,381z M375,463c-13.8,0-25-11.2-25-25
		s11.2-25,25-25s25,11.2,25,25S388.8,463,375,463z"/>
</g>
</svg>
