<?xml version="1.0" encoding="utf-8"?>
<!-- Generator: Adobe Illustrator 21.1.0, SVG Export Plug-In . SVG Version: 6.00 Build 0)  -->
<svg version="1.1" id="Livello_1" xmlns="http://www.w3.org/2000/svg" xmlns:xlink="http://www.w3.org/1999/xlink" x="0px" y="0px"
	 viewBox="0 0 512 512" style="enable-background:new 0 0 512 512;" xml:space="preserve">
<path d="M240,0C107.5,0,0,107.5,0,240s107.5,240,240,240s240-107.5,240-240S372.5,0,240,0z M448,240c0,28.1-5.5,55.3-16.3,81
	c-10.5,24.8-25.5,47-44.6,66.1c-19.1,19.1-41.4,34.1-66.1,44.6c-25.6,10.8-52.9,16.3-81,16.3s-55.3-5.5-81-16.3
	c-24.8-10.5-47-25.5-66.1-44.6S58.8,345.7,48.3,321C37.5,295.3,32,268.1,32,240s5.5-55.3,16.3-81c10.5-24.8,25.5-47,44.6-66.1
	s41.4-34.1,66.1-44.6C184.7,37.5,211.9,32,240,32s55.3,5.5,81,16.3c24.8,10.5,47,25.5,66.1,44.6c19.1,19.1,34.1,41.4,44.6,66.1
	C442.5,184.7,448,211.9,448,240z"/>
<rect x="128" y="224" width="224" height="32"/>
</svg>
