<?xml version="1.0" encoding="utf-8"?>
<!-- Generator: Adobe Illustrator 22.0.1, SVG Export Plug-In . SVG Version: 6.00 Build 0)  -->
<svg version="1.1" xmlns="http://www.w3.org/2000/svg" xmlns:xlink="http://www.w3.org/1999/xlink" x="0px" y="0px"
	 viewBox="0 0 512 512" style="enable-background:new 0 0 512 512;" xml:space="preserve">
<g id="Livello_2">
</g>
<g id="Livello_1">
	<g>
		<path d="M240,0C107.5,0,0,107.5,0,240s107.5,240,240,240s240-107.5,240-240S372.5,0,240,0z M387.1,387.1
			c-19.1,19.1-41.4,34.1-66.1,44.6c-25.6,10.8-52.9,16.3-81,16.3s-55.3-5.5-81-16.3c-24.8-10.5-47-25.5-66.1-44.6
			S58.8,345.7,48.3,321C37.5,295.3,32,268.1,32,240s5.5-55.3,16.3-81c10.5-24.8,25.5-47,44.6-66.1s41.4-34.1,66.1-44.6
			C184.7,37.5,211.9,32,240,32s55.3,5.5,81,16.3c24.8,10.5,47,25.5,66.1,44.6c19.1,19.1,34.1,41.4,44.6,66.1
			c10.8,25.6,16.3,52.9,16.3,81s-5.5,55.3-16.3,81C421.2,345.7,406.2,368,387.1,387.1z"/>
		<path d="M256,249.4V144c0-8.8-7.2-16-16-16s-16,7.2-16,16v112c0,0,0,0,0,0c0,0.5,0,1,0.1,1.5c0,0.2,0.1,0.5,0.1,0.7
			c0,0.3,0.1,0.6,0.1,0.8c0.1,0.3,0.1,0.5,0.2,0.8c0.1,0.2,0.1,0.5,0.2,0.7c0.1,0.3,0.2,0.5,0.3,0.8c0.1,0.2,0.2,0.5,0.3,0.7
			c0.1,0.2,0.2,0.5,0.3,0.7c0.1,0.2,0.2,0.5,0.3,0.7c0.1,0.2,0.3,0.4,0.4,0.7c0.1,0.2,0.3,0.5,0.4,0.7c0.2,0.2,0.3,0.5,0.5,0.7
			c0.1,0.2,0.3,0.4,0.4,0.6c0.3,0.4,0.7,0.8,1.1,1.2l80,80c3.1,3.1,7.2,4.7,11.3,4.7s8.2-1.6,11.3-4.7c6.2-6.2,6.2-16.4,0-22.6
			L256,249.4z"/>
	</g>
</g>
</svg>
