<?xml version="1.0" encoding="utf-8"?>
<!-- Generator: Adobe Illustrator 21.1.0, SVG Export Plug-In . SVG Version: 6.00 Build 0)  -->
<svg version="1.1" id="Livello_1" xmlns="http://www.w3.org/2000/svg" xmlns:xlink="http://www.w3.org/1999/xlink" x="0px" y="0px"
	 viewBox="0 0 512 512" style="enable-background:new 0 0 512 512;" xml:space="preserve">
<style type="text/css">
	.st0{fill:none;stroke:#000000;stroke-width:32;stroke-miterlimit:10;}
	.st1{fill:#110B0B;}
</style>
<path d="M416,225.1c0-0.4,0-0.8,0-1.1c0-88.4-71.6-160-160-160c-67.4,0-125.1,41.7-148.6,100.7C45.6,180.9,0,237.1,0,304
	c0,79.5,64.5,144,144,144h256c61.9,0,112-50.1,112-112C512,279.6,470.3,232.9,416,225.1z M400,416H144c-29.9,0-58-11.6-79.2-32.8
	C43.7,362,32,333.9,32,304c0-50.9,34.3-95.4,83.5-108.3l15.6-4.1l6-15c9.4-23.5,25.4-43.6,46.3-58C204.8,103.8,229.9,96,256,96
	c34.2,0,66.3,13.3,90.5,37.5c24.2,24.2,37.5,56.3,37.5,90.4l0,0.2c0,0.3,0,0.5,0,0.8l-0.2,28l27.7,4c18.8,2.7,36.2,12.1,48.8,26.6
	C473,297.9,480,316.6,480,336C480,380.1,444.1,416,400,416z"/>
</svg>
