<?xml version="1.0" encoding="utf-8"?>
<!-- Generator: Adobe Illustrator 22.1.0, SVG Export Plug-In . SVG Version: 6.00 Build 0)  -->
<svg version="1.1" xmlns="http://www.w3.org/2000/svg" xmlns:xlink="http://www.w3.org/1999/xlink" x="0px" y="0px"
	 viewBox="0 0 512 512" style="enable-background:new 0 0 512 512;" xml:space="preserve">
<style type="text/css">
	.st0{fill:none;}
</style>
<g id="Livello_2">
</g>
<g id="Livello_1">
	<path d="M318.7,266c-15.8-12.3-36.3-18.9-57.7-25.1c-7.1-2.1-14.3-3.9-21.2-5.7c-38.7-9.9-60.8-16.8-63.8-44.2
		c-0.6-5.7-1-20.1,9.5-31.8c10.8-12.1,30.7-18.4,57.6-18.4c24,0,41.3,7.6,51.5,22.6c7.8,11.5,9.5,24.6,9.5,28.7c0,8.8,7.2,16,16,16
		s16-7.2,16-16c0-2.5-0.4-25.2-15-46.7c-10.2-15-29.5-32.5-65-36V48c0-8.8-7.2-16-16-16h0c-8.8,0-16,7.2-16,16v61.7
		c-27.3,2.9-48.3,12.3-62.4,28.1c-13.4,15-19.8,35.7-17.5,56.7c2.5,22.8,13.7,40.4,33.3,52.2c15.8,9.6,35.5,14.6,54.5,19.5
		c6.7,1.7,13.6,3.5,20.2,5.4c45,13.1,63.2,23.5,59.6,53.8c-2.1,18.1-21.7,46.9-65.1,46.9l-0.2,0c-0.1,0-10,0.1-22.4-2.5
		c-10.6-2.2-25.3-7-35.4-17c-8.4-8.3-12.5-19-12.5-32.7c0-8.8-7.2-16-16-16s-16,7.2-16,16c0,22.5,7.4,41.2,22.1,55.6
		c17.1,16.8,40.6,23.8,57.9,26.6V464c0,8.8,7.2,16,16,16h0c8.8,0,16-7.2,16-16v-60.1c29.6-2.2,49.1-14.6,60.6-25.2
		c14.7-13.5,24.7-32,26.8-49.6C346.5,302.4,338.2,281.2,318.7,266z"/>
</g>
</svg>
