<?xml version="1.0" encoding="utf-8"?>
<!-- Generator: Adobe Illustrator 21.1.0, SVG Export Plug-In . SVG Version: 6.00 Build 0)  -->
<svg version="1.1" id="Livello_1" xmlns="http://www.w3.org/2000/svg" xmlns:xlink="http://www.w3.org/1999/xlink" x="0px" y="0px"
	 viewBox="0 0 512 512" style="enable-background:new 0 0 512 512;" xml:space="preserve">
<style type="text/css">
	.st0{fill:none;stroke:#000000;stroke-width:32;stroke-miterlimit:10;}
</style>
<g>
	<polygon points="320,416.1 64,416.1 64,64 320,64 320,160 352,160 352,64 352,32 320,32 64,32 32,32 32,64 32,416.1 32,448 64,448 
		320,448 352,448 352,416.1 352,320 320,320 	"/>
	<polygon points="395.3,132.7 372.7,155.3 441.4,224 128,224 128,256 441.4,256 372.7,324.7 395.3,347.3 502.6,240 	"/>
</g>
</svg>
