<?xml version="1.0" encoding="utf-8"?>
<!-- Generator: Adobe Illustrator 21.0.2, SVG Export Plug-In . SVG Version: 6.00 Build 0)  -->
<svg version="1.1" id="Livello_1" xmlns="http://www.w3.org/2000/svg" xmlns:xlink="http://www.w3.org/1999/xlink" x="0px" y="0px"
	 viewBox="0 0 512 512" style="enable-background:new 0 0 512 512;" xml:space="preserve">
<g>
	<path d="M256,96C123.5,96,0,256,0,256s123.5,160,256,160s256-160,256-160S388.5,96,256,96z M413.1,311.5
		c-25.6,21.6-50.9,38.7-75.4,50.8c-29,14.4-56.4,21.7-81.7,21.7c-58.5,0-117.2-39-156.1-71.7C75.2,291.6,55,270.6,41.9,256
		c12.9-14.4,32.6-35,57-55.5c25.6-21.6,50.9-38.7,75.4-50.8c29-14.4,56.4-21.7,81.7-21.7c58.5,0,117.2,39,156.1,71.7
		c24.7,20.7,44.9,41.7,57.9,56.3C457.2,270.4,437.5,291,413.1,311.5z"/>
	<path d="M256,160c-53,0-96,43-96,96s43,96,96,96s96-43,96-96S309,160,256,160z M256,320c-35.3,0-64-28.7-64-64s28.7-64,64-64
		s64,28.7,64,64S291.3,320,256,320z"/>
</g>
</svg>
