<?xml version="1.0" encoding="utf-8"?>
<!-- Generator: Adobe Illustrator 21.1.0, SVG Export Plug-In . SVG Version: 6.00 Build 0)  -->
<svg version="1.1" id="Livello_1" xmlns="http://www.w3.org/2000/svg" xmlns:xlink="http://www.w3.org/1999/xlink" x="0px" y="0px"
	 viewBox="0 0 512 512" style="enable-background:new 0 0 512 512;" xml:space="preserve">
<g>
	<path d="M256,256c-35.3,0-64,28.7-64,64c0,35.3,28.7,64,64,64s64-28.7,64-64C320,284.7,291.3,256,256,256z M256,352
		c-17.6,0-32-14.4-32-32s14.4-32,32-32s32,14.4,32,32S273.6,352,256,352z"/>
	<path d="M470.6,150.6L361.4,41.4c-6-6-14.1-9.4-22.6-9.4H64c-17.7,0-32,14.3-32,32v384c0,17.7,14.3,32,32,32h384
		c17.7,0,32-14.3,32-32V173.3C480,164.8,476.6,156.6,470.6,150.6z M160,64h96v64h-96V64z M448,448H64V64h64v96h160V64h50.7
		L448,173.3V448z"/>
</g>
</svg>
