<?xml version="1.0" encoding="utf-8"?>
<!-- Generator: Adobe Illustrator 21.1.0, SVG Export Plug-In . SVG Version: 6.00 Build 0)  -->
<svg version="1.1" id="Livello_1" xmlns="http://www.w3.org/2000/svg" xmlns:xlink="http://www.w3.org/1999/xlink" x="0px" y="0px"
	 viewBox="0 0 512 512" style="enable-background:new 0 0 512 512;" xml:space="preserve">
<g>
	<path d="M256,192c-35.3,0-64,28.7-64,64c0,35.3,28.7,64,64,64c35.3,0,64-28.7,64-64C320,220.7,291.3,192,256,192z M256,288
		c-17.7,0-32-14.3-32-32c0-17.7,14.3-32,32-32c17.7,0,32,14.3,32,32C288,273.7,273.7,288,256,288z"/>
	<path d="M480,288v-64h-67.2c-4.1-20.4-12.2-39.4-23.3-56.2l47.5-47.5L391.8,75l-47.5,47.5c-16.8-11.1-35.8-19.2-56.2-23.3V32h-64
		v67.2c-20.4,4.1-39.4,12.2-56.2,23.3L120.2,75L75,120.2l47.5,47.5c-11.1,16.8-19.2,35.8-23.3,56.2H32v64h67.2
		c4.1,20.4,12.2,39.4,23.3,56.2L75,391.8l45.3,45.3l47.5-47.5c16.8,11.1,35.8,19.2,56.2,23.3V480h64v-67.2
		c20.4-4.1,39.4-12.2,56.2-23.3l47.5,47.5l45.3-45.3l-47.5-47.5c11.1-16.8,19.2-35.8,23.3-56.2H480z M346.5,346.5
		C322.3,370.7,290.2,384,256,384s-66.3-13.3-90.5-37.5S128,290.2,128,256s13.3-66.3,37.5-90.5c24.2-24.2,56.3-37.5,90.5-37.5
		s66.3,13.3,90.5,37.5c24.2,24.2,37.5,56.3,37.5,90.5S370.7,322.3,346.5,346.5z"/>
</g>
</svg>
