<?xml version="1.0" encoding="utf-8"?>
<!-- Generator: Adobe Illustrator 21.1.0, SVG Export Plug-In . SVG Version: 6.00 Build 0)  -->
<svg version="1.1" id="Livello_1" xmlns="http://www.w3.org/2000/svg" xmlns:xlink="http://www.w3.org/1999/xlink" x="0px" y="0px"
	 viewBox="0 0 512 512" style="enable-background:new 0 0 512 512;" xml:space="preserve">
<path d="M256,0C114.6,0,0,114.6,0,256c0,141.4,114.6,256,256,256s256-114.6,256-256C512,114.6,397.4,0,256,0z M343.2,49.6
	c26.7,11.3,50.6,27.4,71.2,48c18.2,18.2,33,39.1,44,62.2H345c-7.8-51-21.5-93.7-38.9-122.2C318.8,40.5,331.1,44.5,343.2,49.6z
	 M320,256c0,21.9-1.1,43.4-3.2,64.1H195.2c-2.1-20.7-3.2-42.2-3.2-64.1c0-21.9,1.1-43.4,3.2-64.1h121.6
	C318.9,212.6,320,234.1,320,256z M256,32c4.6,0,21.3,10,37.9,54.2c7.9,21.1,14.2,45.8,18.7,73.6H199.4c4.5-27.7,10.8-52.5,18.7-73.6
	C234.7,42,251.4,32,256,32z M97.6,97.6c20.6-20.6,44.5-36.7,71.2-48c12-5.1,24.4-9.1,37.1-12C188.5,66,174.8,108.8,167,159.8H53.7
	C64.6,136.7,79.4,115.8,97.6,97.6z M32,256c0-22,3.1-43.5,9.3-64.1H163c-2,20.5-3,42-3,64.1s1.1,43.6,3,64.1H41.3
	C35.1,299.5,32,278,32,256z M205.9,474.4c-12.6-2.9-25-6.9-37.1-12c-26.7-11.3-50.6-27.4-71.2-48c-18.2-18.2-33-39.1-44-62.2H167
	C174.8,403.2,188.5,446,205.9,474.4C205.9,474.4,205.9,474.4,205.9,474.4z M256,480c-4.6,0-21.3-10-37.9-54.2
	c-7.9-21.1-14.2-45.8-18.7-73.6h113.2c-4.5,27.7-10.8,52.5-18.7,73.6C277.3,470,260.6,480,256,480z M414.4,414.4
	c-20.6,20.6-44.5,36.7-71.2,48c-12,5.1-24.4,9.1-37.1,12c0,0,0,0,0,0c17.4-28.4,31.1-71.2,38.9-122.2h113.4
	C447.4,375.3,432.6,396.2,414.4,414.4z M349,320.1c2-20.5,3-42,3-64.1s-1.1-43.6-3-64.1h121.7c6.2,20.7,9.3,42.2,9.3,64.1
	s-3.1,43.5-9.3,64.1H349z"/>
</svg>
