<?xml version="1.0" encoding="utf-8"?>
<!-- Generator: Adobe Illustrator 21.1.0, SVG Export Plug-In . SVG Version: 6.00 Build 0)  -->
<svg version="1.1" id="Livello_1" xmlns="http://www.w3.org/2000/svg" xmlns:xlink="http://www.w3.org/1999/xlink" x="0px" y="0px"
	 viewBox="0 0 512 512" style="enable-background:new 0 0 512 512;" xml:space="preserve">
<g>
	<path d="M352,64c25.6,0,49.7,10.1,67.9,28.3c8.8,8.8,15.7,19.1,20.6,30.5c5,11.8,7.5,24.3,7.5,37.2c0,24.2-7.6,52-22.7,82.6
		c-16.1,32.7-40.8,68.8-73.3,107.2c-47.5,56.1-94,96.4-96,98.1l0,0c-2-1.7-48.5-42-96-98.1c-32.5-38.4-57.2-74.5-73.3-107.2
		C71.6,212,64,184.2,64,160c0-12.6,2.5-25,7.5-36.8c4.8-11.4,11.8-21.7,20.6-30.6c8.9-8.9,19.1-16,30.5-20.9
		c11.9-5.1,24.4-7.7,37.4-7.7c25.6,0,49.8,10,67.9,28.1c1.4,1.4,2.8,2.9,4.1,4.4l24,27.1l24-27.1c1.3-1.5,2.7-3,4.1-4.4
		C302.2,74,326.4,64,352,64 M352,32c-34.2,0-66.3,13.3-90.5,37.5c-1.9,1.9-3.7,3.8-5.5,5.8c-1.8-2-3.6-3.9-5.5-5.8
		C226.3,45.3,194.2,32,160,32c-17.3,0-34.2,3.5-50.1,10.4c-15.2,6.6-28.8,15.9-40.6,27.7c-11.7,11.8-20.8,25.4-27.3,40.6
		C35.4,126.4,32,143,32,160c0,58.5,34.8,129.4,103.6,210.5c49.1,58,97.5,99.9,99.5,101.7l20.9,18l20.9-18
		c2-1.8,50.5-43.7,99.5-101.7C445.2,289.4,480,218.5,480,160c0-17.2-3.4-33.9-10.1-49.6c-6.4-15.2-15.7-28.9-27.4-40.6
		C418.3,45.4,386.2,32,352,32L352,32z"/>
</g>
</svg>
