<?xml version="1.0" encoding="utf-8"?>
<!-- Generator: Adobe Illustrator 21.0.2, SVG Export Plug-In . SVG Version: 6.00 Build 0)  -->
<svg version="1.1" id="Livello_1" xmlns="http://www.w3.org/2000/svg" xmlns:xlink="http://www.w3.org/1999/xlink" x="0px" y="0px"
	 viewBox="0 0 512 512" style="enable-background:new 0 0 512 512;" xml:space="preserve">
<g>
	<g>
		<path d="M494.6,157c-1.2-25.5-5.2-43-11.2-58.3c-6.1-15.8-14.3-29.2-27.7-42.5c-13.3-13.3-26.7-21.5-42.5-27.7
			c-15.3-5.9-32.7-10-58.3-11.2c-25.6-1.2-33.8-1.4-99-1.4s-73.4,0.3-99,1.4c-25.5,1.2-43,5.2-58.3,11.2
			C83,34.7,69.6,42.9,56.3,56.3C42.9,69.6,34.7,83,28.6,98.8c-5.9,15.3-10,32.7-11.2,58.3c-1.2,25.6-1.4,33.8-1.4,99
			s0.3,73.4,1.4,99c1.2,25.5,5.2,43,11.2,58.3c6.1,15.8,14.3,29.2,27.7,42.5c13.3,13.3,26.7,21.5,42.5,27.7
			c15.3,5.9,32.7,10,58.3,11.2c25.6,1.2,33.8,1.4,99,1.4s73.4-0.3,99-1.4c25.5-1.2,43-5.2,58.3-11.2c15.8-6.1,29.2-14.3,42.5-27.7
			c13.3-13.3,21.5-26.7,27.7-42.5c5.9-15.3,10-32.7,11.2-58.3c1.2-25.6,1.4-33.8,1.4-99S495.7,182.6,494.6,157z M462.6,353.5
			c-1.1,25-5.4,38.9-9,48.1c-4.9,12.6-11,22-20.5,31.5c-9.5,9.5-18.9,15.6-31.5,20.5c-9.3,3.6-23.1,7.9-48.1,9
			c-25.5,1.2-33.1,1.4-97.5,1.4s-72-0.2-97.5-1.4c-25-1.1-38.9-5.4-48.1-9c-12.6-4.9-22-11-31.5-20.5c-9.5-9.5-15.6-18.9-20.5-31.5
			c-3.6-9.3-7.9-23.1-9-48.1C48.2,328,48,320.3,48,256c0-64.3,0.2-72,1.4-97.5c1.1-25,5.4-38.9,9-48.1c4.9-12.6,11-22,20.5-31.5
			c9.5-9.5,18.9-15.6,31.5-20.5c9.3-3.6,23.1-7.9,48.1-9C184,48.2,191.7,48,256,48s72,0.2,97.5,1.4c25,1.1,38.9,5.4,48.1,9
			c12.6,4.9,22,11,31.5,20.5c9.5,9.5,15.6,18.9,20.5,31.5c3.6,9.3,7.9,23.1,9,48.1c1.2,25.5,1.4,33.2,1.4,97.5
			C464,320.3,463.8,328,462.6,353.5z"/>
	</g>
	<g>
		<path d="M256,132c-68.5,0-124,55.5-124,124c0,68.5,55.5,124,124,124s124-55.5,124-124C380,187.5,324.5,132,256,132z M256,348
			c-50.7,0-92-41.3-92-92s41.3-92,92-92s92,41.3,92,92S306.7,348,256,348z"/>
	</g>
	<g>
		<circle cx="382" cy="131" r="29"/>
	</g>
</g>
</svg>
