<?xml version="1.0" encoding="utf-8"?>
<!-- Generator: Adobe Illustrator 21.1.0, SVG Export Plug-In . SVG Version: 6.00 Build 0)  -->
<svg version="1.1" id="Livello_1" xmlns="http://www.w3.org/2000/svg" xmlns:xlink="http://www.w3.org/1999/xlink" x="0px" y="0px"
	 viewBox="0 0 512 512" style="enable-background:new 0 0 512 512;" xml:space="preserve">
<g>
	<path d="M478.7,163.6c-1.1-23.8-4.9-40.1-10.4-54.4c-5.7-14.7-13.4-27.2-25.8-39.7c-12.5-12.5-24.9-20.1-39.7-25.8
		c-14.2-5.5-30.5-9.3-54.4-10.4C324.5,32.3,316.8,32,256,32s-68.5,0.3-92.4,1.3c-23.8,1.1-40.1,4.9-54.4,10.4
		C94.5,49.5,82,57.1,69.6,69.6C57.1,82,49.5,94.5,43.8,109.3c-5.5,14.2-9.3,30.5-10.4,54.4C32.3,187.5,32,195.2,32,256
		s0.3,68.5,1.3,92.4c1.1,23.8,4.9,40.1,10.4,54.4c5.7,14.7,13.4,27.2,25.8,39.7c12.5,12.5,24.9,20.1,39.7,25.8
		c14.2,5.5,30.5,9.3,54.4,10.4c23.9,1.1,31.5,1.3,92.4,1.3s68.5-0.3,92.4-1.3c23.8-1.1,40.1-4.9,54.4-10.4
		c14.7-5.7,27.2-13.4,39.7-25.8c12.5-12.5,20.1-24.9,25.8-39.7c5.5-14.2,9.3-30.5,10.4-54.4c1.1-23.9,1.3-31.5,1.3-92.4
		C480,195.2,479.7,187.5,478.7,163.6z M446.7,346.9c-1.1,23.1-5,35.8-8.3,44.2c-4.5,11.5-10,20-18.6,28.6
		c-8.6,8.6-17.2,14.2-28.6,18.6c-8.5,3.3-21.2,7.2-44.2,8.3c-23.8,1.1-30.9,1.3-90.9,1.3c-60,0-67.1-0.2-90.9-1.3
		c-23.1-1.1-35.8-5-44.2-8.3c-11.5-4.5-20-10-28.6-18.6c-8.6-8.6-14.2-17.2-18.6-28.6c-3.3-8.5-7.2-21.2-8.3-44.2
		C64.2,323.1,64,316,64,256c0-60,0.2-67.1,1.3-90.9c1.1-23.1,5-35.8,8.3-44.2c4.5-11.5,10-20,18.6-28.6c8.6-8.6,17.2-14.2,28.6-18.6
		c8.5-3.3,21.2-7.2,44.2-8.3C188.9,64.2,196,64,256,64s67.1,0.2,90.9,1.3c23.1,1.1,35.8,5,44.2,8.3c11.5,4.5,20,10,28.6,18.6
		c8.6,8.6,14.2,17.2,18.6,28.6c3.3,8.5,7.2,21.2,8.3,44.2c1.1,23.8,1.3,30.9,1.3,90.9C448,316,447.8,323.1,446.7,346.9z"/>
	<path d="M256,128c-70.7,0-128,57.3-128,128c0,70.7,57.3,128,128,128s128-57.3,128-128C384,185.3,326.7,128,256,128z M256,352
		c-52.9,0-96-43.1-96-96c0-52.9,43.1-96,96-96s96,43.1,96,96C352,308.9,308.9,352,256,352z"/>
	<circle cx="384" cy="128" r="32"/>
</g>
</svg>
