<?xml version="1.0" encoding="utf-8"?>
<!-- Generator: Adobe Illustrator 21.0.2, SVG Export Plug-In . SVG Version: 6.00 Build 0)  -->
<svg version="1.1" id="Livello_1" xmlns="http://www.w3.org/2000/svg" xmlns:xlink="http://www.w3.org/1999/xlink" x="0px" y="0px"
	 viewBox="0 0 512 512" style="enable-background:new 0 0 512 512;" xml:space="preserve">
<style type="text/css">
	.st0{stroke:#000000;stroke-width:32;stroke-linecap:round;stroke-linejoin:round;stroke-miterlimit:10;}
</style>
<g>
	<g>
		<path d="M432,16H80c-35.3,0-64,28.7-64,64v352c0,35.3,28.7,64,64,64h352c35.3,0,64-28.7,64-64V80C496,44.7,467.3,16,432,16z
			 M464,432c0,17.6-14.4,32-32,32H80c-17.6,0-32-14.4-32-32V80c0-17.6,14.4-32,32-32h352c17.6,0,32,14.4,32,32V432z"/>
	</g>
	<g>
		<path d="M157.2,126.2c-17.3,0-31.2,14-31.2,31.3c0,17.2,14,31.2,31.2,31.2c17.2,0,31.2-14,31.2-31.2
			C188.5,140.2,174.5,126.2,157.2,126.2z"/>
	</g>
	<g>
		<path d="M320,208c-26.2,0-42.8,14.4-50,28v-24h-52v172h53.8l0.2-84c0-22.6,4-46,32-46c27.7,0,28,27.9,28,48v82h54v-94
			C386,243.3,374.6,208,320,208z"/>
	</g>
	<g>
		<rect x="130" y="212" width="54" height="172"/>
	</g>
</g>
</svg>
