<?xml version="1.0" encoding="utf-8"?>
<!-- Generator: Adobe Illustrator 21.1.0, SVG Export Plug-In . SVG Version: 6.00 Build 0)  -->
<svg version="1.1" id="Livello_1" xmlns="http://www.w3.org/2000/svg" xmlns:xlink="http://www.w3.org/1999/xlink" x="0px" y="0px"
	 viewBox="0 0 512 512" style="enable-background:new 0 0 512 512;" xml:space="preserve">
<style type="text/css">
	.st0{fill:none;stroke:#000000;stroke-width:32;stroke-miterlimit:10;}
	.st1{fill:#110B0B;}
</style>
<g>
	<path d="M128,224v-32c0-34.2,13.3-66.3,37.5-90.5C189.7,77.3,221.8,64,256,64s66.3,13.3,90.5,37.5l22.6-22.6
		c-29-29-69-46.9-113.1-46.9c-88.4,0-160,71.6-160,160v32H64v256h384V224H128z M416,448H96V256h32h288V448z"/>
	<path d="M288,416l-22.5-65.4c13-4,22.5-16.2,22.5-30.6c0-17.7-14.3-32-32-32c-17.7,0-32,14.3-32,32c0,13.9,8.9,25.7,21.3,30.1
		L224,416H288z"/>
</g>
</svg>
