<?xml version="1.0" encoding="utf-8"?>
<!-- Generator: Adobe Illustrator 21.1.0, SVG Export Plug-In . SVG Version: 6.00 Build 0)  -->
<svg version="1.1" id="Livello_1" xmlns="http://www.w3.org/2000/svg" xmlns:xlink="http://www.w3.org/1999/xlink" x="0px" y="0px"
	 viewBox="0 0 512 512" style="enable-background:new 0 0 512 512;" xml:space="preserve">
<style type="text/css">
	.st0{fill:none;stroke:#000000;stroke-width:32;stroke-miterlimit:10;}
	.st1{fill:#110B0B;}
</style>
<g>
	<path class="st1" d="M416,224v-32c0-88.4-71.6-160-160-160S96,103.6,96,192v32H64v256h384V224H416z M128,192
		c0-34.2,13.3-66.3,37.5-90.5C189.7,77.3,221.8,64,256,64s66.3,13.3,90.5,37.5c24.2,24.2,37.5,56.3,37.5,90.5v32H128V192z M416,448
		H96V256h320V448z"/>
	<path class="st1" d="M288,416l-22.5-65.4c13-4,22.5-16.2,22.5-30.6c0-17.7-14.3-32-32-32c-17.7,0-32,14.3-32,32
		c0,13.9,8.9,25.7,21.3,30.1L224,416H288z"/>
</g>
</svg>
