<?xml version="1.0" encoding="utf-8"?>
<!-- Generator: Adobe Illustrator 21.1.0, SVG Export Plug-In . SVG Version: 6.00 Build 0)  -->
<svg version="1.1" id="Livello_1" xmlns="http://www.w3.org/2000/svg" xmlns:xlink="http://www.w3.org/1999/xlink" x="0px" y="0px"
	 viewBox="0 0 512 512" style="enable-background:new 0 0 512 512;" xml:space="preserve">
<style type="text/css">
	.st0{fill:none;stroke:#000000;stroke-width:32;stroke-miterlimit:10;}
	.st1{fill:#110B0B;}
</style>
<path d="M480,64H32C14.3,64,0,78.3,0,96v320c0,17.7,14.3,32,32,32h448c17.7,0,32-14.3,32-32V96C512,78.3,497.7,64,480,64z M467,96
	L256,306.8c0,0,0,0,0,0L45,96H467z M480,416H32V128.2l201.4,201.2c6.2,6.2,14.4,9.4,22.6,9.4c8.2,0,16.4-3.1,22.6-9.4L480,128.2V416
	z"/>
</svg>
