<?xml version="1.0" encoding="utf-8"?>
<!-- Generator: Adobe Illustrator 22.1.0, SVG Export Plug-In . SVG Version: 6.00 Build 0)  -->
<svg version="1.1" xmlns="http://www.w3.org/2000/svg" xmlns:xlink="http://www.w3.org/1999/xlink" x="0px" y="0px"
	 viewBox="0 0 512 512" style="enable-background:new 0 0 512 512;" xml:space="preserve">
<g id="Livello_2">
</g>
<g id="Livello_1">
	<g>
		<circle cx="192" cy="191.7" r="64"/>
		<path d="M480,160h-96V96c0-17.7-14.3-32-32-32h-32l-23.2-46.3C291.4,6.8,280.3,0,268.2,0H115.8c-12.1,0-23.2,6.8-28.6,17.7L64,64
			H32C14.3,64,0,78.3,0,96v192c0,17.7,14.3,32,32,32h224v72.6c-9.4-5.4-20.3-8.6-32-8.6c-35.3,0-64,28.7-64,64c0,35.3,28.7,64,64,64
			s64-28.7,64-64l0,0V320h64c17.7,0,32-14.3,32-32v-32h96v136.6c-9.4-5.4-20.3-8.6-32-8.6c-35.3,0-64,28.7-64,64
			c0,35.3,28.7,64,64,64s64-28.7,64-64l0,0V256v-96H480z M352,288H32l0-192h32h19.8l8.8-17.7L115.8,32h152.4l23.2,46.3l8.8,17.7H320
			h32V288z"/>
	</g>
</g>
</svg>
