<?xml version="1.0" encoding="utf-8"?>
<!-- Generator: Adobe Illustrator 21.0.2, SVG Export Plug-In . SVG Version: 6.00 Build 0)  -->
<svg version="1.1" xmlns="http://www.w3.org/2000/svg" xmlns:xlink="http://www.w3.org/1999/xlink" x="0px" y="0px"
	 viewBox="0 0 512 512" style="enable-background:new 0 0 512 512;" xml:space="preserve">
<style type="text/css">
	.st0{display:none;}
	.st1{display:inline;opacity:0.5;}
	.st2{stroke:#000000;stroke-width:32;stroke-miterlimit:10;}
	.st3{stroke:#000000;stroke-width:64;stroke-miterlimit:10;}
	.st4{stroke:#000000;stroke-width:96;stroke-miterlimit:10;}
	.st5{fill:none;stroke:#000000;stroke-width:32;stroke-miterlimit:10;}
	.st6{fill:none;stroke:#FFFFFF;stroke-width:32;stroke-miterlimit:10;}
	.st7{stroke:#000000;stroke-width:32;stroke-linecap:round;stroke-miterlimit:10;}
	.st8{fill:none;stroke:#000000;stroke-width:32;stroke-linecap:round;stroke-miterlimit:10;}
	.st9{fill:none;stroke:#000000;stroke-width:32;stroke-linecap:round;stroke-linejoin:round;stroke-miterlimit:10;}
	.st10{fill:none;stroke:#000000;stroke-width:64;stroke-linecap:round;stroke-linejoin:round;stroke-miterlimit:10;}
	.st11{fill:none;stroke:#FFFFFF;stroke-width:32;stroke-linecap:round;stroke-linejoin:round;stroke-miterlimit:10;}
	.st12{fill:#FFFFFF;}
	.st13{stroke:#000000;stroke-width:32;stroke-linejoin:round;stroke-miterlimit:10;}
	.st14{fill:none;stroke:#000000;stroke-width:32;stroke-linejoin:round;stroke-miterlimit:10;}
	.st15{fill:none;stroke:#000000;stroke-width:64;stroke-linejoin:round;stroke-miterlimit:10;}
	.st16{fill:none;stroke:#000000;stroke-width:96;stroke-linejoin:round;stroke-miterlimit:10;}
	.st17{fill:none;stroke:#FFFFFF;stroke-width:64;stroke-linejoin:round;stroke-miterlimit:10;}
</style>
<g id="Livello_2" class="st0">
	<g class="st1">
		<rect width="32" height="32"/>
		<rect x="64" width="32" height="32"/>
		<rect x="128" width="32" height="32"/>
		<rect x="192" width="32" height="32"/>
		<rect x="256" width="32" height="32"/>
		<rect x="320" width="32" height="32"/>
		<rect x="384" width="32" height="32"/>
		<rect x="448" width="32" height="32"/>
		<rect x="32" y="32" width="32" height="32"/>
		<rect x="96" y="32" width="32" height="32"/>
		<rect x="160" y="32" width="32" height="32"/>
		<rect x="224" y="32" width="32" height="32"/>
		<rect x="288" y="32" width="32" height="32"/>
		<rect x="352" y="32" width="32" height="32"/>
		<rect x="416" y="32" width="32" height="32"/>
		<rect x="480" y="32" width="32" height="32"/>
		<rect y="64" width="32" height="32"/>
		<rect x="64" y="64" width="32" height="32"/>
		<rect x="128" y="64" width="32" height="32"/>
		<rect x="192" y="64" width="32" height="32"/>
		<rect x="256" y="64" width="32" height="32"/>
		<rect x="320" y="64" width="32" height="32"/>
		<rect x="384" y="64" width="32" height="32"/>
		<rect x="448" y="64" width="32" height="32"/>
		<rect x="32" y="96" width="32" height="32"/>
		<rect x="96" y="96" width="32" height="32"/>
		<rect x="160" y="96" width="32" height="32"/>
		<rect x="224" y="96" width="32" height="32"/>
		<rect x="288" y="96" width="32" height="32"/>
		<rect x="352" y="96" width="32" height="32"/>
		<rect x="416" y="96" width="32" height="32"/>
		<rect x="480" y="96" width="32" height="32"/>
		<rect y="128" width="32" height="32"/>
		<rect x="64" y="128" width="32" height="32"/>
		<rect x="128" y="128" width="32" height="32"/>
		<rect x="192" y="128" width="32" height="32"/>
		<rect x="256" y="128" width="32" height="32"/>
		<rect x="320" y="128" width="32" height="32"/>
		<rect x="384" y="128" width="32" height="32"/>
		<rect x="448" y="128" width="32" height="32"/>
		<rect x="32" y="160" width="32" height="32"/>
		<rect x="96" y="160" width="32" height="32"/>
		<rect x="160" y="160" width="32" height="32"/>
		<rect x="224" y="160" width="32" height="32"/>
		<rect x="288" y="160" width="32" height="32"/>
		<rect x="352" y="160" width="32" height="32"/>
		<rect x="416" y="160" width="32" height="32"/>
		<rect x="480" y="160" width="32" height="32"/>
		<rect y="192" width="32" height="32"/>
		<rect x="64" y="192" width="32" height="32"/>
		<rect x="128" y="192" width="32" height="32"/>
		<rect x="192" y="192" width="32" height="32"/>
		<rect x="256" y="192" width="32" height="32"/>
		<rect x="320" y="192" width="32" height="32"/>
		<rect x="384" y="192" width="32" height="32"/>
		<rect x="448" y="192" width="32" height="32"/>
		<rect x="32" y="224" width="32" height="32"/>
		<rect x="96" y="224" width="32" height="32"/>
		<rect x="160" y="224" width="32" height="32"/>
		<rect x="224" y="224" width="32" height="32"/>
		<rect x="288" y="224" width="32" height="32"/>
		<rect x="352" y="224" width="32" height="32"/>
		<rect x="416" y="224" width="32" height="32"/>
		<rect x="480" y="224" width="32" height="32"/>
		<rect y="256" width="32" height="32"/>
		<rect x="64" y="256" width="32" height="32"/>
		<rect x="128" y="256" width="32" height="32"/>
		<rect x="192" y="256" width="32" height="32"/>
		<rect x="256" y="256" width="32" height="32"/>
		<rect x="320" y="256" width="32" height="32"/>
		<rect x="384" y="256" width="32" height="32"/>
		<rect x="448" y="256" width="32" height="32"/>
		<rect x="32" y="288" width="32" height="32"/>
		<rect x="96" y="288" width="32" height="32"/>
		<rect x="160" y="288" width="32" height="32"/>
		<rect x="224" y="288" width="32" height="32"/>
		<rect x="288" y="288" width="32" height="32"/>
		<rect x="352" y="288" width="32" height="32"/>
		<rect x="416" y="288" width="32" height="32"/>
		<rect x="480" y="288" width="32" height="32"/>
		<rect y="320" width="32" height="32"/>
		<rect x="64" y="320" width="32" height="32"/>
		<rect x="128" y="320" width="32" height="32"/>
		<rect x="192" y="320" width="32" height="32"/>
		<rect x="256" y="320" width="32" height="32"/>
		<rect x="320" y="320" width="32" height="32"/>
		<rect x="384" y="320" width="32" height="32"/>
		<rect x="448" y="320" width="32" height="32"/>
		<rect x="32" y="352" width="32" height="32"/>
		<rect x="96" y="352" width="32" height="32"/>
		<rect x="160" y="352" width="32" height="32"/>
		<rect x="224" y="352" width="32" height="32"/>
		<rect x="288" y="352" width="32" height="32"/>
		<rect x="352" y="352" width="32" height="32"/>
		<rect x="416" y="352" width="32" height="32"/>
		<rect x="480" y="352" width="32" height="32"/>
		<rect y="384" width="32" height="32"/>
		<rect x="64" y="384" width="32" height="32"/>
		<rect x="128" y="384" width="32" height="32"/>
		<rect x="192" y="384" width="32" height="32"/>
		<rect x="256" y="384" width="32" height="32"/>
		<rect x="320" y="384" width="32" height="32"/>
		<rect x="384" y="384" width="32" height="32"/>
		<rect x="448" y="384" width="32" height="32"/>
		<rect x="32" y="416" width="32" height="32"/>
		<rect x="96" y="416" width="32" height="32"/>
		<rect x="160" y="416" width="32" height="32"/>
		<rect x="224" y="416" width="32" height="32"/>
		<rect x="288" y="416" width="32" height="32"/>
		<rect x="352" y="416" width="32" height="32"/>
		<rect x="416" y="416" width="32" height="32"/>
		<rect x="480" y="416" width="32" height="32"/>
		<rect y="448" width="32" height="32"/>
		<rect x="64" y="448" width="32" height="32"/>
		<rect x="128" y="448" width="32" height="32"/>
		<rect x="192" y="448" width="32" height="32"/>
		<rect x="256" y="448" width="32" height="32"/>
		<rect x="320" y="448" width="32" height="32"/>
		<rect x="384" y="448" width="32" height="32"/>
		<rect x="448" y="448" width="32" height="32"/>
		<rect x="32" y="480" width="32" height="32"/>
		<rect x="96" y="480" width="32" height="32"/>
		<rect x="160" y="480" width="32" height="32"/>
		<rect x="224" y="480" width="32" height="32"/>
		<rect x="288" y="480" width="32" height="32"/>
		<rect x="352" y="480" width="32" height="32"/>
		<rect x="416" y="480" width="32" height="32"/>
		<rect x="480" y="480" width="32" height="32"/>
	</g>
</g>
<g id="Livello_1">
	<g>
		<path d="M32,352l0,128h128l224-224L256,128L32,352z M146.7,448H64l0-82.8l192-192l30.1,30.1L116.7,372.7l22.6,22.6l169.4-169.4
			l30,30L146.7,448z"/>
		<path d="M448,64c-17.9-17.8-39.5-31.9-64.1-31.9c-19.5,0-41,8.9-63.9,31.9l-32.1,32.1L288,96l128,128l32-32
			C500.5,139.5,480.1,95.9,448,64z M425.4,169.4l-9.4,9.4L333.3,96l9.4-9.4c14.9-14.9,28.8-22.5,41.3-22.5
			c12.5,0,26.5,7.6,41.5,22.5c15.1,15,22.7,28.8,22.7,41.1C448.2,140.2,440.5,154.2,425.4,169.4z"/>
	</g>
</g>
</svg>
