<?xml version="1.0" encoding="utf-8"?>
<!-- Generator: Adobe Illustrator 21.1.0, SVG Export Plug-In . SVG Version: 6.00 Build 0)  -->
<svg version="1.1" id="Livello_1" xmlns="http://www.w3.org/2000/svg" xmlns:xlink="http://www.w3.org/1999/xlink" x="0px" y="0px"
	 viewBox="0 0 512 512" style="enable-background:new 0 0 512 512;" xml:space="preserve">
<style type="text/css">
	.st0{fill:none;stroke:#000000;stroke-width:32;stroke-miterlimit:10;}
</style>
<g>
	<g>
		<path d="M448,64c-17.9-17.8-39.4-32-64-32c-19.5,0-41,9-64,32l-32,32l128,128l32-32C500.5,139.5,480.1,95.9,448,64z M425.4,169.4
			l-9.4,9.4L333.3,96l9.4-9.4c15-15,28.9-22.6,41.4-22.6c12.3,0,26.3,7.6,41.4,22.7c15.1,15,22.7,28.8,22.7,41.1
			C448.2,140.2,440.5,154.2,425.4,169.4z"/>
	</g>
	<g>
		<polygon points="288,96.1 288,96 288,96 		"/>
	</g>
	<g>
		<path d="M32,352v128h128l224-224L256,128L32,352z M286.1,203.3L116.7,372.7l22.6,22.6l169.4-169.4l30.1,30.1l-192,192H64v-82.7
			l192-192L286.1,203.3z"/>
	</g>
</g>
</svg>
