<?xml version="1.0" encoding="utf-8"?>
<!-- Generator: Adobe Illustrator 22.1.0, SVG Export Plug-In . SVG Version: 6.00 Build 0)  -->
<svg version="1.1" xmlns="http://www.w3.org/2000/svg" xmlns:xlink="http://www.w3.org/1999/xlink" x="0px" y="0px"
	 viewBox="0 0 512 512" style="enable-background:new 0 0 512 512;" xml:space="preserve">
<g id="Livello_2">
</g>
<g id="Livello_1">
	<g>
		<path d="M128,223.9c53,0,96-42.9,96.1-95.9c0-53-42.9-96-95.9-96.1s-96,42.9-96.1,95.9C32.1,180.9,75,223.9,128,223.9z
			 M128.1,63.9c35.3,0,64,28.8,64,64s-28.8,64-64,64c-35.3,0-64-28.8-64-64C64.1,92.6,92.8,63.9,128.1,63.9z"/>
		<path d="M384,288.1c-53,0-96,42.9-96.1,95.9c0,53,42.9,96,95.9,96.1c53,0,96-42.9,96.1-95.9C479.9,331.1,437,288.1,384,288.1z
			 M383.9,448.1c-35.3,0-64-28.8-64-64c0-35.3,28.8-64,64-64c35.3,0,64,28.8,64,64S419.2,448.1,383.9,448.1z"/>
		<path d="M470.8,41.5C458.3,29,438,29,425.5,41.5L41.3,425.2c-12.5,12.5-12.5,32.7,0,45.3c6.2,6.3,14.4,9.4,22.6,9.4
			c8.2,0,16.4-3.1,22.6-9.4L470.7,86.8C483.3,74.3,483.3,54,470.8,41.5z"/>
	</g>
</g>
</svg>
