<?xml version="1.0" encoding="utf-8"?>
<!-- Generator: Adobe Illustrator 22.0.1, SVG Export Plug-In . SVG Version: 6.00 Build 0)  -->
<svg version="1.1" xmlns="http://www.w3.org/2000/svg" xmlns:xlink="http://www.w3.org/1999/xlink" x="0px" y="0px"
	 viewBox="0 0 512 512" style="enable-background:new 0 0 512 512;" xml:space="preserve">
<g id="Livello_2">
</g>
<g id="Livello_1">
	<g>
		<g>
			<path d="M465.8,342.7l-63.5-42.6c-5.4-3.6-11.6-5.4-17.8-5.4c-6.2,0-12.4,1.8-17.8,5.4l-62.4,41.6
				c-51.9-35.6-97.8-81.4-133.5-133.2l41-62.5c7-10.7,7-24.6-0.1-35.3L169,46.3c-5.9-8.9-15.9-14.3-26.6-14.3H65.2
				c-18.5,0-33.3,15.7-31.9,34.2c16.6,220.1,192.3,395.9,412.5,412.5c0.8,0.1,1.6,0.1,2.4,0.1c17.4,0,31.8-14.3,31.8-32v-77.5
				C480,358.6,474.7,348.7,465.8,342.7z M448,446.8C448,446.8,448,446.8,448,446.8c-50-3.8-98.4-16.4-143.7-37.6
				c-44.1-20.6-83.9-48.5-118.5-83s-62.5-74.4-83-118.5C81.7,162.4,69,114,65.2,64c0,0,0,0,0,0h77.1l42.8,64.3l-41,62.5
				c-7.1,10.9-7,25,0.4,35.7c37.8,54.8,86.8,103.8,141.7,141.5c5.5,3.7,11.8,5.6,18.1,5.6c6.2,0,12.4-1.8,17.8-5.4l62.4-41.6
				l63.5,42.6V446.8z"/>
		</g>
	</g>
</g>
</svg>
