<?xml version="1.0" encoding="utf-8"?>
<!-- Generator: Adobe Illustrator 22.1.0, SVG Export Plug-In . SVG Version: 6.00 Build 0)  -->
<svg version="1.1" xmlns="http://www.w3.org/2000/svg" xmlns:xlink="http://www.w3.org/1999/xlink" x="0px" y="0px"
	 viewBox="0 0 512 512" style="enable-background:new 0 0 512 512;" xml:space="preserve">
<g id="Livello_2">
</g>
<g id="Livello_1">
	<path d="M491.3,468.4L411,388.1c3.2-5.1,5-11,5-17.2V224c0-17.7-14.3-32-32-32h-32V48c0-8.8-7.2-16-16-16s-16,7.2-16,16v144H214.9
		L192,169.1V48c0-8.8-7.2-16-16-16c-8.8,0-16,7.2-16,16v89.1L43.3,20.4c-6.2-6.2-16.4-6.2-22.6,0c-6.2,6.2-6.2,16.4,0,22.6
		L160,182.3v9.7h-32c-17.7,0-32,14.3-32,32v147.2c0,8.4,3.3,16.5,9.2,22.5l54.5,55.3V512h191.5l-1-63.1l38.5-37.8l79.9,79.9
		c3.1,3.1,7.2,4.7,11.3,4.7s8.2-1.6,11.3-4.7C497.6,484.8,497.6,474.7,491.3,468.4z M327.8,426.1l-9.8,9.6l0.2,13.7l0.5,30.6h-127
		v-31.1v-13.1l-9.2-9.3L128,371.2V224h73.7l164.5,164.5L327.8,426.1z M384,361.1L246.9,224H384h0V361.1z"/>
</g>
</svg>
