<?xml version="1.0" encoding="utf-8"?>
<!-- Generator: Adobe Illustrator 22.1.0, SVG Export Plug-In . SVG Version: 6.00 Build 0)  -->
<svg version="1.1" xmlns="http://www.w3.org/2000/svg" xmlns:xlink="http://www.w3.org/1999/xlink" x="0px" y="0px"
	 viewBox="0 0 512 512" style="enable-background:new 0 0 512 512;" xml:space="preserve">
<style type="text/css">
	.st0{fill:none;stroke:#000000;stroke-miterlimit:10;}
</style>
<g id="Livello_2">
</g>
<g id="Livello_1">
	<g>
		<rect x="128" y="320" width="64" height="64"/>
		<path d="M86.7,47.5L4.6,184.4c-3,5-4.6,10.7-4.6,16.5V448c0,17.7,14.3,32,32,32h160v-32H32V224h160v-32H37.3l76.8-128H192V32
			h-77.9C102.9,32,92.5,37.9,86.7,47.5z"/>
		<circle cx="272" cy="240" r="48"/>
		<circle cx="272" cy="400" r="48"/>
		<circle cx="272" cy="80" r="48"/>
		<rect x="352" y="64" width="160" height="32"/>
		<rect x="352" y="224" width="160" height="32"/>
		<rect x="352" y="384" width="160" height="32"/>
	</g>
</g>
</svg>
