<?xml version="1.0" encoding="utf-8"?>
<!-- Generator: Adobe Illustrator 22.1.0, SVG Export Plug-In . SVG Version: 6.00 Build 0)  -->
<svg version="1.1" xmlns="http://www.w3.org/2000/svg" xmlns:xlink="http://www.w3.org/1999/xlink" x="0px" y="0px"
	 viewBox="0 0 512 512" style="enable-background:new 0 0 512 512;" xml:space="preserve">
<style type="text/css">
	.st0{fill:none;stroke:#000000;stroke-miterlimit:10;}
</style>
<g id="Livello_2">
</g>
<g id="Livello_1">
	<path d="M480.8,255.7c0-32.7-19.6-60.7-47.6-73.2C444,154,438,120.5,415,97.4C399.4,81.8,378.9,74,358.4,74
		c-9.8,0-19.6,1.8-28.9,5.4c-12.5-27.9-40.5-47.4-73-47.4c-32.7,0-60.7,19.6-73.2,47.6c-9.2-3.5-18.9-5.3-28.6-5.3
		c-20.5,0-40.9,7.8-56.5,23.4c-23.1,23.1-29.1,56.8-18,85.4c-27.9,12.5-47.4,40.5-47.4,73c0,32.7,19.6,60.7,47.6,73.2
		c-10.9,28.6-4.9,62.1,18.1,85.2c15.6,15.6,36.1,23.4,56.5,23.4c9.8,0,19.6-1.8,28.9-5.4c12.5,27.9,40.5,47.4,73,47.4
		c32.7,0,60.7-19.6,73.2-47.6c9.2,3.5,18.9,5.3,28.6,5.3c20.5,0,40.9-7.8,56.5-23.4c23.1-23.1,29.1-56.8,18-85.4
		C461.3,316.3,480.8,288.3,480.8,255.7z M420.3,299.6L392.6,312l10.9,28.3c6.8,17.7,2.6,37.9-10.8,51.3c-9.1,9.1-21.1,14-33.9,14
		c-5.9,0-11.7-1.1-17.2-3.2l-28.4-10.8l-12.3,27.8C293.2,436.8,276,448,257,448c-18.9,0-36.1-11.2-43.8-28.4l-12.4-27.7l-28.3,10.9
		c-5.5,2.1-11.4,3.2-17.4,3.2c-12.8,0-24.9-5-33.9-14c-13.4-13.4-17.6-33.4-10.9-51.1l10.8-28.4l-27.8-12.3
		c-17.4-7.7-28.6-24.9-28.6-43.9c0-18.9,11.2-36.1,28.4-43.8l27.7-12.4L110,171.7c-6.8-17.7-2.6-37.9,10.8-51.3
		c9.1-9.1,21.1-14,33.9-14c5.9,0,11.7,1.1,17.2,3.2l28.4,10.8l12.3-27.8c7.7-17.4,24.9-28.6,43.9-28.6c18.9,0,36.1,11.2,43.8,28.4
		l12.4,27.7l28.3-10.9c5.5-2.1,11.4-3.2,17.4-3.2c12.8,0,24.9,5,33.9,14c13.4,13.4,17.6,33.4,10.9,51.1l-10.8,28.4l27.8,12.3
		c17.4,7.7,28.6,24.9,28.6,43.9C448.8,274.6,437.6,291.9,420.3,299.6z"/>
</g>
</svg>
