<?xml version="1.0" encoding="utf-8"?>
<!-- Generator: Adobe Illustrator 22.1.0, SVG Export Plug-In . SVG Version: 6.00 Build 0)  -->
<svg version="1.1" xmlns="http://www.w3.org/2000/svg" xmlns:xlink="http://www.w3.org/1999/xlink" x="0px" y="0px"
	 viewBox="0 0 512 512" style="enable-background:new 0 0 512 512;" xml:space="preserve">
<g id="Livello_2">
</g>
<g id="Livello_1">
	<path d="M491.3,468.7l-152.7-153c28.3-33.5,45.4-76.7,45.4-124c0-106-86-192-192-192c0.5,0,1,0,1.5,0.1c-0.5,0-1-0.1-1.5-0.1
		s-1,0-1.5,0.1c0.5,0,1-0.1,1.5-0.1c-106,0-192,86-192,192s86,192,192,192c-0.5,0-1,0-1.5-0.1c0.5,0,1,0.1,1.5,0.1s1,0,1.5-0.1
		c-0.5,0-1,0.1-1.5,0.1c47.3,0,90.5-17.1,124-45.4l152.7,153L491.3,468.7z M32,191.7c0-10.8,1.1-21.4,3.1-31.7h93.7
		c-0.6,10.3-0.9,20.9-0.9,31.7c0,10.9,0.3,21.6,0.9,32H35.2C33.1,213.3,32,202.6,32,191.7z M160,191.7c0-10.7,0.3-21.3,0.9-31.7
		h62.1c0.6,10.4,0.9,21,0.9,31.7c0,10.8-0.3,21.5-1,32H161C160.3,213.2,160,202.5,160,191.7z M255.1,160h93.7
		c2.1,10.3,3.1,20.9,3.1,31.7c0,10.9-1.1,21.6-3.2,32h-93.7c0.6-10.4,0.9-21.1,0.9-32C256,180.9,255.7,170.3,255.1,160z M305.1,78.6
		c14.5,14.5,25.8,31.2,33.7,49.4h-86.5C248,90.8,240,58.8,229.5,36.1c0,0,0,0,0,0C257.9,42.9,284,57.4,305.1,78.6z M228.5,34.1
		c0,0,0-0.1-0.1-0.1C228.5,34,228.5,34,228.5,34.1z M224.4,26.2c0-0.1-0.1-0.1-0.1-0.2C224.4,26.1,224.4,26.1,224.4,26.2z
		 M223.4,24.3c0-0.1-0.1-0.1-0.1-0.2C223.3,24.2,223.3,24.3,223.4,24.3z M219.1,17.8c-0.1-0.1-0.2-0.3-0.3-0.4
		C218.9,17.5,219,17.6,219.1,17.8z M217.9,16.1c-0.1-0.1-0.2-0.3-0.3-0.4C217.7,15.9,217.8,16,217.9,16.1z M214.7,12.2
		c-0.1-0.1-0.3-0.3-0.4-0.4C214.4,11.9,214.6,12,214.7,12.2z M213.5,10.8c-0.2-0.2-0.3-0.4-0.5-0.5
		C213.2,10.5,213.3,10.6,213.5,10.8z M212.2,9.5c-0.2-0.2-0.4-0.4-0.6-0.5C211.8,9.1,212,9.3,212.2,9.5z M195-0.1
		c-0.3,0-0.7-0.1-1-0.1C194.3-0.1,194.7-0.1,195-0.1z M210.9,8.2c-0.4-0.4-0.8-0.7-1.2-1.1C210.1,7.5,210.5,7.8,210.9,8.2z M209,6.6
		c-0.2-0.2-0.5-0.4-0.7-0.6C208.5,6.2,208.7,6.4,209,6.6z M207.6,5.5c-0.2-0.2-0.5-0.4-0.7-0.5C207.1,5.1,207.3,5.3,207.6,5.5z
		 M206.2,4.5c-0.3-0.2-0.6-0.4-0.9-0.6C205.6,4.1,205.9,4.3,206.2,4.5z M204.8,3.6c-0.4-0.3-0.9-0.5-1.3-0.8
		C203.9,3,204.4,3.3,204.8,3.6z M202.9,2.5c-0.3-0.2-0.6-0.3-0.9-0.5C202.3,2.2,202.6,2.4,202.9,2.5z M201.4,1.8
		c-0.3-0.1-0.6-0.3-0.9-0.4C200.8,1.5,201.1,1.7,201.4,1.8z M200,1.2c-0.4-0.1-0.8-0.3-1.2-0.4C199.2,0.9,199.6,1.1,200,1.2z
		 M198.5,0.7c-0.5-0.1-1-0.3-1.5-0.4C197.5,0.4,198,0.6,198.5,0.7z M196.6,0.2c-0.3-0.1-0.7-0.1-1-0.2
		C195.9,0.1,196.2,0.1,196.6,0.2z M197.1,42.8c4.9,8.9,9.5,21,13.4,35.1c4.1,15,7.4,31.9,9.6,50.1h-56.3c2.3-18.1,5.5-35.1,9.6-50.1
		c3.9-14.1,8.5-26.3,13.4-35.1c2-3.6,3.7-6.1,5.1-7.9C193.4,36.7,195.1,39.2,197.1,42.8z M173.1,8.2c0.4-0.4,0.8-0.7,1.2-1.1
		C173.9,7.5,173.5,7.8,173.1,8.2z M175,6.6c0.2-0.2,0.5-0.4,0.7-0.6C175.5,6.2,175.3,6.4,175,6.6z M176.4,5.5
		c0.2-0.2,0.5-0.4,0.7-0.5C176.9,5.1,176.7,5.3,176.4,5.5z M177.8,4.5c0.3-0.2,0.6-0.4,0.9-0.6C178.4,4.1,178.1,4.3,177.8,4.5z
		 M179.2,3.6c0.4-0.3,0.9-0.5,1.3-0.8C180.1,3,179.6,3.3,179.2,3.6z M181.1,2.5c0.3-0.2,0.6-0.3,0.9-0.5
		C181.7,2.2,181.4,2.4,181.1,2.5z M182.6,1.8c0.3-0.1,0.6-0.3,0.9-0.4C183.2,1.5,182.9,1.7,182.6,1.8z M184,1.2
		c0.4-0.1,0.8-0.3,1.2-0.4C184.8,0.9,184.4,1.1,184,1.2z M185.5,0.7c0.5-0.1,1-0.3,1.5-0.4C186.5,0.4,186,0.6,185.5,0.7z M189-0.1
		c0.3,0,0.7-0.1,1-0.1C189.7-0.1,189.3-0.1,189-0.1z M187.4,0.2c0.3-0.1,0.7-0.1,1-0.2C188.1,0.1,187.8,0.1,187.4,0.2z M172.4,9
		c-0.2,0.2-0.4,0.4-0.5,0.5C172,9.3,172.2,9.1,172.4,9z M155.5,34C155.5,34,155.5,34,155.5,34C155.5,34,155.5,34,155.5,34z
		 M159.6,26.2c0-0.1,0.1-0.1,0.1-0.2C159.6,26.1,159.6,26.1,159.6,26.2z M160.6,24.3c0-0.1,0.1-0.1,0.1-0.2
		C160.7,24.2,160.7,24.3,160.6,24.3z M164.9,17.8c0.1-0.1,0.2-0.3,0.3-0.4C165.1,17.5,165,17.6,164.9,17.8z M166.1,16.1
		c0.1-0.1,0.2-0.3,0.3-0.4C166.3,15.9,166.2,16,166.1,16.1z M169.3,12.1c0.1-0.1,0.2-0.3,0.4-0.4C169.6,11.9,169.4,12,169.3,12.1z
		 M170.5,10.8c0.2-0.2,0.3-0.4,0.5-0.5C170.8,10.5,170.7,10.6,170.5,10.8z M78.9,78.6c21.2-21.2,47.2-35.7,75.6-42.5
		C144,58.8,136,90.8,131.6,128H45.2C53.1,109.8,64.4,93,78.9,78.6z M45.3,255.7h86.4c4.4,37.1,12.4,68.9,22.9,91.6
		c-28.4-6.8-54.5-21.3-75.6-42.5C64.5,290.5,53.2,273.8,45.3,255.7z M155.5,349.4C155.5,349.4,155.5,349.5,155.5,349.4
		C155.5,349.5,155.5,349.4,155.5,349.4z M159.6,357.2c0,0.1,0.1,0.1,0.1,0.2C159.6,357.4,159.6,357.3,159.6,357.2z M160.6,359.1
		c0,0.1,0.1,0.1,0.1,0.2C160.7,359.2,160.7,359.2,160.6,359.1z M164.9,365.7c0.1,0.1,0.2,0.3,0.3,0.4
		C165.1,365.9,165,365.8,164.9,365.7z M166.1,367.3c0.1,0.1,0.2,0.3,0.3,0.4C166.3,367.6,166.2,367.4,166.1,367.3z M169.3,371.3
		c0.1,0.1,0.2,0.3,0.4,0.4C169.6,371.6,169.4,371.4,169.3,371.3z M170.5,372.6c0.2,0.2,0.3,0.4,0.5,0.5
		C170.8,373,170.7,372.8,170.5,372.6z M171.8,374c0.2,0.2,0.4,0.4,0.5,0.5C172.2,374.3,172,374.1,171.8,374z M189,383.5
		c0.3,0,0.7,0.1,1,0.1C189.7,383.6,189.3,383.5,189,383.5z M173.1,375.2c0.4,0.4,0.8,0.7,1.2,1.1C173.9,376,173.5,375.6,173.1,375.2
		z M175,376.9c0.2,0.2,0.5,0.4,0.7,0.6C175.5,377.3,175.3,377.1,175,376.9z M176.4,378c0.2,0.2,0.5,0.4,0.7,0.5
		C176.9,378.3,176.7,378.2,176.4,378z M177.8,379c0.3,0.2,0.6,0.4,0.9,0.6C178.4,379.3,178.1,379.2,177.8,379z M179.2,379.9
		c0.4,0.3,0.9,0.5,1.3,0.8C180.1,380.4,179.6,380.1,179.2,379.9z M181.1,380.9c0.3,0.2,0.6,0.3,0.9,0.5
		C181.7,381.2,181.4,381.1,181.1,380.9z M182.6,381.6c0.3,0.1,0.6,0.3,0.9,0.4C183.2,381.9,182.9,381.8,182.6,381.6z M184,382.2
		c0.4,0.1,0.8,0.3,1.2,0.4C184.8,382.5,184.4,382.4,184,382.2z M185.5,382.7c0.5,0.1,1,0.3,1.5,0.4C186.5,383,186,382.9,185.5,382.7
		z M187.4,383.2c0.3,0.1,0.7,0.1,1,0.2C188.1,383.4,187.8,383.3,187.4,383.2z M186.9,340.6c-4.9-8.9-9.5-21-13.4-35.1
		c-4.1-14.9-7.3-31.7-9.6-49.8h56.2c-2.3,18-5.5,34.9-9.6,49.8c-3.9,14.1-8.5,26.3-13.4,35.1c-2,3.6-3.7,6.1-5.1,7.9
		C190.6,346.7,188.9,344.2,186.9,340.6z M210.9,375.2c-0.4,0.4-0.8,0.7-1.2,1.1C210.1,376,210.5,375.6,210.9,375.2z M209,376.9
		c-0.2,0.2-0.5,0.4-0.7,0.6C208.5,377.3,208.7,377.1,209,376.9z M207.6,378c-0.2,0.2-0.5,0.4-0.7,0.5
		C207.1,378.3,207.3,378.2,207.6,378z M206.2,379c-0.3,0.2-0.6,0.4-0.9,0.6C205.6,379.3,205.9,379.2,206.2,379z M204.8,379.9
		c-0.4,0.3-0.9,0.5-1.3,0.8C203.9,380.4,204.4,380.1,204.8,379.9z M202.9,380.9c-0.3,0.2-0.6,0.3-0.9,0.5
		C202.3,381.2,202.6,381.1,202.9,380.9z M201.4,381.6c-0.3,0.1-0.6,0.3-0.9,0.4C200.8,381.9,201.1,381.8,201.4,381.6z M200,382.2
		c-0.4,0.1-0.8,0.3-1.2,0.4C199.2,382.5,199.6,382.4,200,382.2z M198.5,382.7c-0.5,0.1-1,0.3-1.5,0.4
		C197.5,383,198,382.9,198.5,382.7z M195,383.5c-0.3,0-0.7,0.1-1,0.1C194.3,383.6,194.7,383.5,195,383.5z M196.6,383.2
		c-0.3,0.1-0.7,0.1-1,0.2C195.9,383.4,196.2,383.3,196.6,383.2z M211.6,374.5c0.2-0.2,0.4-0.4,0.6-0.5
		C212,374.1,211.8,374.3,211.6,374.5z M229.5,347.3c10.4-22.7,18.5-54.5,22.9-91.6h86.4c-7.9,18.1-19.2,34.8-33.6,49.1
		C284,326,257.9,340.5,229.5,347.3C229.5,347.3,229.5,347.3,229.5,347.3z M213,373.1c0.2-0.2,0.3-0.4,0.5-0.5
		C213.3,372.8,213.2,373,213,373.1z M214.3,371.7c0.1-0.1,0.3-0.3,0.4-0.4C214.6,371.4,214.4,371.6,214.3,371.7z M217.6,367.7
		c0.1-0.1,0.2-0.3,0.3-0.4C217.8,367.4,217.7,367.6,217.6,367.7z M218.8,366.1c0.1-0.1,0.2-0.3,0.3-0.4
		C219,365.8,218.9,365.9,218.8,366.1z M223.2,359.3c0-0.1,0.1-0.1,0.1-0.2C223.3,359.2,223.3,359.2,223.2,359.3z M224.3,357.4
		c0-0.1,0.1-0.1,0.1-0.2C224.4,357.3,224.4,357.4,224.3,357.4z M228.5,349.5c0,0,0-0.1,0.1-0.1C228.5,349.4,228.5,349.5,228.5,349.5
		z"/>
</g>
</svg>
