<?xml version="1.0" encoding="utf-8"?>
<!-- Generator: Adobe Illustrator 21.1.0, SVG Export Plug-In . SVG Version: 6.00 Build 0)  -->
<svg version="1.1" id="Livello_1" xmlns="http://www.w3.org/2000/svg" xmlns:xlink="http://www.w3.org/1999/xlink" x="0px" y="0px"
	 viewBox="0 0 512 512" style="enable-background:new 0 0 512 512;" xml:space="preserve">
<style type="text/css">
	.st0{fill:none;stroke:#000000;stroke-width:32;stroke-miterlimit:10;}
	.st1{fill:#110B0B;}
</style>
<path d="M384,288c-31.8,0-60,15.5-77.5,39.4L219.8,284c2.7-8.9,4.2-18.3,4.2-28c0-9.8-1.5-19.3-4.2-28.2l86.5-43.4
	c17.5,24,45.7,39.6,77.7,39.6c53,0,96-43,96-96c0-53-43-96-96-96s-96,43-96,96c0,9.6,1.4,19,4.1,27.7l-86.7,43.5
	C187.9,175.4,159.8,160,128,160c-53,0-96,43-96,96s43,96,96,96c31.8,0,60-15.5,77.5-39.4l86.7,43.3c-2.7,8.9-4.2,18.3-4.2,28
	c0,53,43,96,96,96s96-43,96-96S437,288,384,288z M384,64c35.3,0,64,28.7,64,64s-28.7,64-64,64c-27.6,0-51.1-17.5-60.1-42
	c0,0,0,0,0-0.1c-0.7-1.9-1.3-3.8-1.8-5.8c0-0.1-0.1-0.2-0.1-0.3c-1.3-5.1-2-10.4-2-15.8C320,92.7,348.7,64,384,64z M190.1,271.7
	c-0.1,0.3-0.1,0.5-0.2,0.8c-0.2,0.7-0.4,1.4-0.6,2.2c-0.1,0.2-0.1,0.3-0.2,0.5c-0.3,0.9-0.6,1.8-0.9,2.6c-0.1,0.2-0.1,0.3-0.2,0.4
	c-0.7,1.8-1.4,3.6-2.3,5.4c0,0.1-0.1,0.1-0.1,0.2C175.3,305.2,153.3,320,128,320c-35.3,0-64-28.7-64-64s28.7-64,64-64
	c25.3,0,47.2,14.8,57.6,36.2c0,0.1,0.1,0.1,0.1,0.2c0.4,0.9,0.8,1.8,1.2,2.7c0,0,0,0.1,0.1,0.1c0.3,0.8,0.7,1.7,1,2.5
	c0.1,0.2,0.1,0.3,0.2,0.5c0.3,0.8,0.6,1.7,0.9,2.6c0.1,0.2,0.1,0.5,0.2,0.7c0.2,0.6,0.4,1.3,0.6,2c0.1,0.3,0.2,0.6,0.2,0.9
	c1.3,5,1.9,10.3,1.9,15.7C192,261.4,191.3,266.7,190.1,271.7z M384,448c-35.3,0-64-28.7-64-64c0-5.4,0.7-10.7,1.9-15.7
	c0.1-0.3,0.1-0.5,0.2-0.8c0.2-0.7,0.4-1.4,0.6-2.2c0.1-0.2,0.1-0.3,0.2-0.5c0.3-0.9,0.6-1.8,0.9-2.6c0.1-0.1,0.1-0.3,0.2-0.4
	c0.7-1.8,1.4-3.6,2.3-5.4c0-0.1,0.1-0.1,0.1-0.2c10.4-21.4,32.3-36.2,57.6-36.2c35.3,0,64,28.7,64,64S419.3,448,384,448z"/>
</svg>
