<?xml version="1.0" encoding="utf-8"?>
<!-- Generator: Adobe Illustrator 22.0.1, SVG Export Plug-In . SVG Version: 6.00 Build 0)  -->
<svg version="1.1" xmlns="http://www.w3.org/2000/svg" xmlns:xlink="http://www.w3.org/1999/xlink" x="0px" y="0px"
	 viewBox="0 0 512 512" style="enable-background:new 0 0 512 512;" xml:space="preserve">
<g id="Livello_2">
</g>
<g id="Livello_1">
	<g>
		<path d="M276.7,231.4C236.8,197.3,96,96,96,96s101.3,140.8,135.4,180.7c23,26.8,44.1,23.8,56.6,11.3
			C300.5,275.5,303.5,254.4,276.7,231.4z"/>
		<path d="M48,255.7c0-33.2,7.8-64.7,21.8-92.6L46,139.4c-19.6,35.2-30,75-30,116.3c0,65.2,25.7,126.2,72.4,171.7
			c6.3,6.2,16.5,6.1,22.6-0.3c6.2-6.3,6.1-16.5-0.3-22.6C70.3,365.1,48,312.2,48,255.7z"/>
		<path d="M425.7,86C380.4,40.7,320.1,15.7,256,15.7c-41.5,0-81.4,10.5-116.7,30.2l23.8,23.8c28-14,59.5-22,92.9-22
			c114.7,0,208,93.3,208,208c0,56.5-22.3,109.3-62.7,148.8c-6.3,6.2-6.4,16.3-0.3,22.6c3.1,3.2,7.3,4.8,11.5,4.8
			c4,0,8.1-1.5,11.2-4.6c46.7-45.6,72.4-106.5,72.4-171.7C496,191.6,471,131.3,425.7,86z"/>
	</g>
</g>
</svg>
