<?xml version="1.0" encoding="utf-8"?>
<!-- Generator: Adobe Illustrator 21.1.0, SVG Export Plug-In . SVG Version: 6.00 Build 0)  -->
<svg version="1.1" id="Livello_1" xmlns="http://www.w3.org/2000/svg" xmlns:xlink="http://www.w3.org/1999/xlink" x="0px" y="0px"
	 viewBox="0 0 512 512" style="enable-background:new 0 0 512 512;" xml:space="preserve">
<style type="text/css">
	.st0{fill:none;stroke:#000000;stroke-width:32;stroke-miterlimit:10;}
	.st1{fill:#110B0B;}
</style>
<path d="M480,203.1l-154.8-23.6L256,32l-69.2,147.5L32,203.1l112,114.8L117.6,480L256,403.5L394.4,480L368,317.9L480,203.1z
	 M271.5,375.5l-15.5-8.6l-15.5,8.6l-80.8,44.6l15.8-97l2.6-15.9l-11.3-11.6l-68.5-70.2l93.2-14.2l16.9-2.6l7.3-15.5l40.3-85.8
	l40.3,85.8l7.3,15.5l16.9,2.6l93.2,14.2l-68.5,70.2l-11.3,11.6l2.6,15.9l15.8,97L271.5,375.5z"/>
</svg>
