<?xml version="1.0" encoding="utf-8"?>
<!-- Generator: Adobe Illustrator 22.1.0, SVG Export Plug-In . SVG Version: 6.00 Build 0)  -->
<svg version="1.1" xmlns="http://www.w3.org/2000/svg" xmlns:xlink="http://www.w3.org/1999/xlink" x="0px" y="0px"
	 viewBox="0 0 512 512" style="enable-background:new 0 0 512 512;" xml:space="preserve">
<style type="text/css">
	.st0{fill:none;}
</style>
<g id="Livello_2">
</g>
<g id="Livello_1">
	<g>
		<path d="M464.5,384H96V146.1V144v-2.1c0-7.7-6.2-13.9-13.9-13.9H80h0H13.9C6.2,128,0,134.2,0,141.9v4.3c0,7.7,6.2,13.9,13.9,13.9
			H64v224H47.5c-8.5,0-15.5,6.9-15.5,15.5v1.1c0,8.5,6.9,15.5,15.5,15.5H64c0,35.3,28.7,64,64,64s64-28.7,64-64h128
			c0,35.3,28.7,64,64,64s64-28.7,64-64h16.5c8.5,0,15.5-6.9,15.5-15.5v-1.1C480,390.9,473.1,384,464.5,384z"/>
		<path d="M176,320h224c8.8,0,16-7.2,16-16s-7.2-16-16-16H176c-8.8,0-16,7.2-16,16S167.2,320,176,320z"/>
		<path d="M176,224h224c8.8,0,16-7.2,16-16s-7.2-16-16-16H176c-8.8,0-16,7.2-16,16S167.2,224,176,224z"/>
		<path d="M176,128h224c8.8,0,16-7.2,16-16s-7.2-16-16-16H176c-8.8,0-16,7.2-16,16S167.2,128,176,128z"/>
	</g>
</g>
</svg>
