<?xml version="1.0" encoding="utf-8"?>
<!-- Generator: Adobe Illustrator 21.1.0, SVG Export Plug-In . SVG Version: 6.00 Build 0)  -->
<svg version="1.1" xmlns="http://www.w3.org/2000/svg" xmlns:xlink="http://www.w3.org/1999/xlink" x="0px" y="0px"
	 viewBox="0 0 512 512" style="enable-background:new 0 0 512 512;" xml:space="preserve">
<g id="Livello_2">
</g>
<g id="Livello_1">
	<g>
		<g>
			<circle cx="240" cy="239.7" r="16"/>
		</g>
		<g>
			<path d="M464,223.7h-16.6C439.6,121.6,358.1,40.1,256,32.3V15.7c0-8.8-7.2-16-16-16h0c-8.8,0-16,7.2-16,16v16.6
				C121.9,40.1,40.4,121.6,32.6,223.7H16c-8.8,0-16,7.2-16,16s7.2,16,16,16h16.6c7.8,102.1,89.3,183.6,191.4,191.4v16.6
				c0,8.8,7.2,16,16,16h0c8.8,0,16-7.2,16-16v-16.6c102.1-7.8,183.6-89.3,191.4-191.4H464c8.8,0,16-7.2,16-16S472.8,223.7,464,223.7
				z M368,255.7h47.3c-3.7,41-21.4,79-50.8,108.5C335,393.6,297,411.3,256,415v-47.3c0-8.8-7.2-16-16-16h0c-8.8,0-16,7.2-16,16V415
				c-41-3.7-79-21.4-108.5-50.8c-29.4-29.4-47.2-67.5-50.8-108.5H112c8.8,0,16-7.2,16-16s-7.2-16-16-16H64.7
				c3.7-41,21.4-79,50.8-108.5C145,85.8,183,68.1,224,64.4v47.3c0,8.8,7.2,16,16,16h0c8.8,0,16-7.2,16-16V64.4
				c41,3.7,79,21.4,108.5,50.8c29.4,29.4,47.2,67.5,50.8,108.5H368c-8.8,0-16,7.2-16,16S359.2,255.7,368,255.7z"/>
		</g>
	</g>
</g>
</svg>
