<?xml version="1.0" encoding="utf-8"?>
<!-- Generator: Adobe Illustrator 22.0.1, SVG Export Plug-In . SVG Version: 6.00 Build 0)  -->
<svg version="1.1" xmlns="http://www.w3.org/2000/svg" xmlns:xlink="http://www.w3.org/1999/xlink" x="0px" y="0px"
	 viewBox="0 0 512 512" style="enable-background:new 0 0 512 512;" xml:space="preserve">
<g id="Livello_2">
</g>
<g id="Livello_1">
	<path d="M501.3,303.9l-43.8-65.6c-5.9-8.9-15.9-14.2-26.6-14.2H352V96c0-17.7-14.3-32-32-32H32C14.3,64,0,78.3,0,96v288
		c0,17.7,14.3,32,32,32c0,35.3,28.7,64,64,64c35.3,0,64-28.7,64-64h160h32c0,35.3,28.7,64,64,64c35.3,0,64-28.7,64-64
		c17.7,0,32-14.3,32-32v-44.6C512,326.7,508.3,314.4,501.3,303.9z M32,384V96h288v128v160H32z M480,384H352V256h78.9h0l43.8,65.6
		c3.5,5.3,5.4,11.4,5.4,17.8V384z"/>
</g>
</svg>
