<?xml version="1.0" encoding="utf-8"?>
<!-- Generator: Adobe Illustrator 21.0.2, SVG Export Plug-In . SVG Version: 6.00 Build 0)  -->
<svg version="1.1" id="Livello_1" xmlns="http://www.w3.org/2000/svg" xmlns:xlink="http://www.w3.org/1999/xlink" x="0px" y="0px"
	 viewBox="0 0 512 512" style="enable-background:new 0 0 512 512;" xml:space="preserve">
<g>
	<g>
		<path d="M432,16H80c-35.3,0-64,28.7-64,64v352c0,35.3,28.7,64,64,64h352c35.3,0,64-28.7,64-64V80C496,44.7,467.3,16,432,16z
			 M464,432c0,17.6-14.4,32-32,32H80c-17.6,0-32-14.4-32-32V80c0-17.6,14.4-32,32-32h352c17.6,0,32,14.4,32,32V432z"/>
	</g>
	<g>
		<path d="M382.6,151.1c-10.6,6.3-22.4,10.9-34.9,13.3c-10-10.7-24.3-17.4-40.1-17.4c-30.4,0-55,24.6-55,55c0,4.3,0.5,8.5,1.4,12.5
			c-45.7-2.3-86.2-24.2-113.3-57.4c-4.7,8.1-7.4,17.6-7.4,27.6c0,19.1,9.7,35.9,24.5,45.8c-9-0.3-17.5-2.8-24.9-6.9
			c0,0.2,0,0.5,0,0.7c0,26.6,19,48.9,44.1,53.9c-4.6,1.3-9.5,1.9-14.5,1.9c-3.5,0-7-0.4-10.3-1c7,21.8,27.3,37.7,51.4,38.2
			c-18.8,14.7-42.5,23.5-68.3,23.5c-4.4,0-8.8-0.3-13.1-0.8c24.3,15.6,53.2,24.7,84.3,24.7c101.1,0,156.4-83.8,156.4-156.4
			c0-2.4,0-4.8-0.2-7.1c10.7-7.8,20.1-17.4,27.4-28.5c-9.9,4.4-20.5,7.3-31.6,8.7C369.8,174.7,378.5,164,382.6,151.1z"/>
	</g>
</g>
</svg>
