<?xml version="1.0" encoding="utf-8"?>
<!-- Generator: Adobe Illustrator 21.1.0, SVG Export Plug-In . SVG Version: 6.00 Build 0)  -->
<svg version="1.1" id="Livello_1" xmlns="http://www.w3.org/2000/svg" xmlns:xlink="http://www.w3.org/1999/xlink" x="0px" y="0px"
	 viewBox="0 0 512 512" style="enable-background:new 0 0 512 512;" xml:space="preserve">
<g>
	<path d="M473,105.7c-16,7.1-33.1,11.8-51.1,14c18.4-11,32.5-28.4,39.2-49.2c-17.2,10.2-36.3,17.6-56.5,21.6
		c-16.2-17.3-39.4-28.1-65-28.1c-49.2,0-89.1,39.8-89.1,88.9c0,7,0.8,13.8,2.3,20.3c-74-3.7-139.6-39.1-183.5-92.8
		c-7.7,13.1-12.1,28.4-12.1,44.7c0,30.8,15.7,58,39.6,74c-14.6-0.4-28.3-4.5-40.3-11.1c0,0.4,0,0.7,0,1.1c0,43,30.7,79,71.4,87.1
		c-7.5,2-15.3,3.1-23.5,3.1c-5.7,0-11.3-0.6-16.7-1.6c11.3,35.3,44.2,61,83.2,61.7c-30.5,23.8-68.9,38-110.6,38
		c-7.2,0-14.3-0.4-21.2-1.2c39.4,25.2,86.2,39.9,136.5,39.9c163.8,0,253.3-135.4,253.3-252.8c0-3.8-0.1-7.7-0.3-11.5
		C446,139.1,461.1,123.5,473,105.7z"/>
</g>
</svg>
