<?xml version="1.0" encoding="utf-8"?>
<!-- Generator: Adobe Illustrator 21.0.2, SVG Export Plug-In . SVG Version: 6.00 Build 0)  -->
<svg version="1.1" id="Livello_1" xmlns="http://www.w3.org/2000/svg" xmlns:xlink="http://www.w3.org/1999/xlink" x="0px" y="0px"
	 viewBox="0 0 512 512" style="enable-background:new 0 0 512 512;" xml:space="preserve">
<g>
	<path d="M256,256c70.7,0,128-57.3,128-128C384,57.3,326.7,0,256,0S128,57.3,128,128C128,198.7,185.3,256,256,256z M256,32
		c52.9,0,96,43.1,96,96s-43.1,96-96,96s-96-43.1-96-96S203.1,32,256,32z"/>
	<path d="M352,288H160c-70.7,0-128,57.3-128,128v96h448v-96C480,345.3,422.7,288,352,288z M448,480H64v-64c0-52.9,43.1-96,96-96h192
		c52.9,0,96,43.1,96,96V480z"/>
</g>
</svg>
