<?xml version="1.0" encoding="utf-8"?>
<!-- Generator: Adobe Illustrator 21.0.2, SVG Export Plug-In . SVG Version: 6.00 Build 0)  -->
<svg version="1.1" id="Livello_1" xmlns="http://www.w3.org/2000/svg" xmlns:xlink="http://www.w3.org/1999/xlink" x="0px" y="0px"
	 viewBox="0 0 512 512" style="enable-background:new 0 0 512 512;" xml:space="preserve">
<g>
	<g>
		<path d="M400,80H112c-53,0-96,43-96,96v160c0,53,43,96,96,96h288c53,0,96-43,96-96V176C496,123,453,80,400,80z M464,336
			c0,35.3-28.7,64-64,64H112c-35.3,0-64-28.7-64-64V176c0-35.3,28.7-64,64-64h288c35.3,0,64,28.7,64,64V336z"/>
	</g>
	<g>
		<path d="M329.9,242.1l-116-66c-5-2.8-11-2.8-16,0.1c-4.9,2.9-8,8.1-8,13.8v132c0,5.7,3,11,8,13.8c2.5,1.4,5.3,2.2,8,2.2
			c2.7,0,5.5-0.7,7.9-2.1l116-66c5-2.8,8.1-8.2,8.1-13.9C338,250.2,334.9,244.9,329.9,242.1z"/>
	</g>
</g>
</svg>
