<?xml version="1.0" encoding="utf-8"?>
<!-- Generator: Adobe Illustrator 21.0.0, SVG Export Plug-In . SVG Version: 6.00 Build 0)  -->
<svg version="1.1" id="Livello_1" xmlns="http://www.w3.org/2000/svg" xmlns:xlink="http://www.w3.org/1999/xlink" x="0px" y="0px"
	 viewBox="0 0 512 512" style="enable-background:new 0 0 512 512;" xml:space="preserve">
<g>
	<path d="M475.3,452.7L351.2,328.6c28-33.1,44.8-75.8,44.8-122.6c0-104.9-85.1-190-190-190S16,101.1,16,206s85.1,190,190,190
		c46.7,0,89.5-16.9,122.6-44.8l124.1,124.1c2.9,2.9,6.9,4.7,11.3,4.7c8.8,0,16-7.2,16-16C480,459.6,478.2,455.6,475.3,452.7z
		 M94.3,317.7C64.4,287.9,48,248.2,48,206s16.4-81.9,46.3-111.7S163.8,48,206,48s81.9,16.4,111.7,46.3S364,163.8,364,206
		s-16.4,81.9-46.3,111.7S248.2,364,206,364S124.1,347.6,94.3,317.7z"/>
	<polygon points="222,110 190,110 190,190 110,190 110,222 190,222 190,302 222,302 222,222 302,222 302,190 222,190 	"/>
</g>
</svg>
