<?xml version="1.0" encoding="utf-8"?>
<!-- Generator: Adobe Illustrator 21.0.2, SVG Export Plug-In . SVG Version: 6.00 Build 0)  -->
<svg version="1.1" id="Livello_1" xmlns="http://www.w3.org/2000/svg" xmlns:xlink="http://www.w3.org/1999/xlink" x="0px" y="0px"
	 viewBox="0 0 512 512" style="enable-background:new 0 0 512 512;" xml:space="preserve">
<g>
	<path d="M491.3,468.7L366,343.3c31.2-36.4,50-83.6,50-135.3C416,93.1,322.9,0,208,0S0,93.1,0,208s93.1,208,208,208
		c51.7,0,98.9-18.9,135.3-50l125.4,125.4L491.3,468.7z M208,384c-47,0-91.2-18.3-124.5-51.5C50.3,299.2,32,255,32,208
		s18.3-91.2,51.5-124.5C116.8,50.3,161,32,208,32c47,0,91.2,18.3,124.5,51.5C365.7,116.8,384,161,384,208s-18.3,91.2-51.5,124.5
		C299.2,365.7,255,384,208,384z"/>
	<polygon points="224,128 192,128 192,192 128,192 128,224 192,224 192,288 224,288 224,224 288,224 288,192 224,192 	"/>
</g>
</svg>
