<?xml version="1.0" encoding="utf-8"?>
<!-- Generator: Adobe Illustrator 21.0.2, SVG Export Plug-In . SVG Version: 6.00 Build 0)  -->
<svg version="1.1" id="Livello_1" xmlns="http://www.w3.org/2000/svg" xmlns:xlink="http://www.w3.org/1999/xlink" x="0px" y="0px"
	 viewBox="0 0 512 512" style="enable-background:new 0 0 512 512;" xml:space="preserve">
<style type="text/css">
	.st0{stroke:#000000;stroke-width:32;stroke-miterlimit:10;}
	.st1{stroke:#000000;stroke-width:64;stroke-miterlimit:10;}
	.st2{stroke:#000000;stroke-width:96;stroke-miterlimit:10;}
	.st3{fill:none;stroke:#000000;stroke-width:32;stroke-miterlimit:10;}
	.st4{fill:none;stroke:#FFFFFF;stroke-width:32;stroke-miterlimit:10;}
	.st5{stroke:#000000;stroke-width:32;stroke-linecap:round;stroke-miterlimit:10;}
	.st6{fill:none;stroke:#000000;stroke-width:32;stroke-linecap:round;stroke-miterlimit:10;}
</style>
<g>
	<path d="M222,394c8.8,0,16-7.2,16-16V230c0-8.8-7.2-16-16-16s-16,7.2-16,16v148C206,386.8,213.2,394,222,394z"/>
	<path d="M290,394c8.8,0,16-7.2,16-16V230c0-8.8-7.2-16-16-16s-16,7.2-16,16v148C274,386.8,281.2,394,290,394z"/>
	<path d="M464,96h-32v0h-38V32c0-17.7-14.3-32-32-32H150c-17.7,0-32,14.3-32,32v64H80v0H48c-17.7,0-32,14.3-32,32v64h64v299.5
		c0,11.3,8.3,20.5,18.5,20.5h314.9c10.2,0,18.5-9.2,18.5-20.5V192h64v-64C496,110.3,481.7,96,464,96z M182,64h148v32H182V64z
		 M336,416H176V192h160V416z"/>
</g>
</svg>
