<?xml version="1.0" encoding="utf-8"?>
<!-- Generator: Adobe Illustrator 21.0.0, SVG Export Plug-In . SVG Version: 6.00 Build 0)  -->
<svg version="1.1" id="Livello_1" xmlns="http://www.w3.org/2000/svg" xmlns:xlink="http://www.w3.org/1999/xlink" x="0px" y="0px"
	 viewBox="0 0 512 512" style="enable-background:new 0 0 512 512;" xml:space="preserve">
<style type="text/css">
	.st0{stroke:#000000;stroke-width:32;stroke-miterlimit:10;}
	.st1{stroke:#000000;stroke-width:64;stroke-miterlimit:10;}
	.st2{stroke:#000000;stroke-width:96;stroke-miterlimit:10;}
</style>
<g>
	<path d="M464,80h-32V32c0-17.7-14.3-32-32-32h-14c-17.7,0-32,14.3-32,32v48H158V32c0-17.7-14.3-32-32-32h-14C94.3,0,80,14.3,80,32
		v48H48c-17.7,0-32,14.3-32,32v352c0,17.7,14.3,32,32,32h416c17.7,0,32-14.3,32-32V112C496,94.3,481.7,80,464,80z M400,400H112V176
		h288V400z"/>
	<path d="M188,368c8.8,0,16-7.2,16-16V224c0-8.8-7.2-16-16-16s-16,7.2-16,16v128C172,360.8,179.2,368,188,368z"/>
	<path d="M235,317c0,29.2,23.8,53,53,53s53-23.8,53-53c0-15.4-6.6-29.2-17.1-38.9c5.7-7.5,9.1-16.9,9.1-27.1c0-24.8-20.2-45-45-45
		s-45,20.2-45,45c0,10.2,3.4,19.5,9.1,27.1C241.6,287.8,235,301.6,235,317z M288,238c7.2,0,13,5.8,13,13c0,7.2-5.8,13-13,13
		s-13-5.8-13-13C275,243.8,280.8,238,288,238z M288,296c11.6,0,21,9.4,21,21c0,11.6-9.4,21-21,21s-21-9.4-21-21
		C267,305.4,276.4,296,288,296z"/>
</g>
</svg>
