<?xml version="1.0" encoding="utf-8"?>
<!-- Generator: Adobe Illustrator 21.0.0, SVG Export Plug-In . SVG Version: 6.00 Build 0)  -->
<svg version="1.1" id="Livello_1" xmlns="http://www.w3.org/2000/svg" xmlns:xlink="http://www.w3.org/1999/xlink" x="0px" y="0px"
	 viewBox="0 0 512 512" style="enable-background:new 0 0 512 512;" xml:space="preserve">
<style type="text/css">
	.st0{stroke:#000000;stroke-width:32;stroke-miterlimit:10;}
	.st1{stroke:#000000;stroke-width:64;stroke-miterlimit:10;}
	.st2{stroke:#000000;stroke-width:96;stroke-miterlimit:10;}
	.st3{fill:none;stroke:#FFFFFF;stroke-width:32;stroke-miterlimit:10;}
	.st4{fill:none;stroke:#000000;stroke-width:32;stroke-linejoin:round;stroke-miterlimit:10;}
	.st5{fill:none;stroke:#000000;stroke-width:64;stroke-linejoin:round;stroke-miterlimit:10;}
	.st6{fill:none;stroke:#000000;stroke-width:96;stroke-linejoin:round;stroke-miterlimit:10;}
</style>
<g>
	<path d="M503.7,131c-8.9-13.1-23.8-21-39.7-21H186V64c0-26.5-21.5-48-48-48H48C21.5,16,0,37.5,0,64c0,26.5,21.5,48,48,48h42v208
		c0,26.5,21.5,48,48,48h262c19.7,0,37.4-12,44.6-30.4l64-162C514.5,160.9,512.6,144.1,503.7,131z M367.4,272H186v-66h207.4
		L367.4,272z"/>
	<circle cx="147" cy="438" r="57"/>
	<circle cx="375" cy="438" r="57"/>
</g>
</svg>
