<?xml version="1.0" encoding="utf-8"?>
<!-- Generator: Adobe Illustrator 21.0.0, SVG Export Plug-In . SVG Version: 6.00 Build 0)  -->
<svg version="1.1" id="Livello_1" xmlns="http://www.w3.org/2000/svg" xmlns:xlink="http://www.w3.org/1999/xlink" x="0px" y="0px"
	 viewBox="0 0 512 512" style="enable-background:new 0 0 512 512;" xml:space="preserve">
<style type="text/css">
	.st0{stroke:#000000;stroke-width:64;stroke-miterlimit:10;}
	.st1{stroke:#000000;stroke-width:32;stroke-miterlimit:10;}
	.st2{stroke:#000000;stroke-width:96;stroke-miterlimit:10;}
	.st3{fill:none;stroke:#FFFFFF;stroke-width:32;stroke-miterlimit:10;}
	.st4{fill:none;stroke:#000000;stroke-width:32;stroke-linejoin:round;stroke-miterlimit:10;}
	.st5{fill:none;stroke:#000000;stroke-width:64;stroke-linejoin:round;stroke-miterlimit:10;}
	.st6{fill:none;stroke:#000000;stroke-width:96;stroke-linejoin:round;stroke-miterlimit:10;}
</style>
<g>
	<circle cx="256" cy="256" r="60"/>
	<path d="M256,432c153.7,0,240-176,240-176S409.7,80,256,80S16,256,16,256S102.3,432,256,432z M148.8,233.3
		c16.8-18.1,34.1-32.2,51.5-41.8C219,181,237.2,176,256,176c34.9,0,70,18.2,104.3,54.2c8.3,8.7,15.7,17.5,22,25.8
		c-5.6,7.3-12,15-19.1,22.7c-16.8,18.1-34.1,32.2-51.5,41.8C293,331,274.8,336,256,336c-34.9,0-70-18.2-104.3-54.2
		c-8.3-8.7-15.7-17.5-22-25.8C135.2,248.7,141.6,241,148.8,233.3z"/>
</g>
</svg>
