<?xml version="1.0" encoding="utf-8"?>
<!-- Generator: Adobe Illustrator 21.0.2, SVG Export Plug-In . SVG Version: 6.00 Build 0)  -->
<svg version="1.1" id="Livello_1" xmlns="http://www.w3.org/2000/svg" xmlns:xlink="http://www.w3.org/1999/xlink" x="0px" y="0px"
	 viewBox="0 0 512 512" style="enable-background:new 0 0 512 512;" xml:space="preserve">
<g>
	<path d="M432,16H80c-35.3,0-64,28.7-64,64v352c0,35.3,28.7,64,64,64h154v0h72v0h126c35.3,0,64-28.7,64-64V80
		C496,44.7,467.3,16,432,16z M432,432H306V332h62l10-74h-72v-46c0-21,7.9-36,38-36h36v-64c-6.6-0.9-29.5-4-56-4c-55.3,0-90,34-90,96
		v54h-66v74h66v100H80V80h352h0V432z"/>
</g>
</svg>
