<?xml version="1.0" encoding="utf-8"?>
<!-- Generator: Adobe Illustrator 21.0.2, SVG Export Plug-In . SVG Version: 6.00 Build 0)  -->
<svg version="1.1" id="Livello_1" xmlns="http://www.w3.org/2000/svg" xmlns:xlink="http://www.w3.org/1999/xlink" x="0px" y="0px"
	 viewBox="0 0 512 512" style="enable-background:new 0 0 512 512;" xml:space="preserve">
<style type="text/css">
	.st0{stroke:#000000;stroke-width:32;stroke-miterlimit:10;}
	.st1{stroke:#000000;stroke-width:64;stroke-miterlimit:10;}
	.st2{stroke:#000000;stroke-width:96;stroke-miterlimit:10;}
	.st3{fill:none;stroke:#000000;stroke-width:32;stroke-miterlimit:10;}
	.st4{fill:none;stroke:#FFFFFF;stroke-width:32;stroke-miterlimit:10;}
	.st5{stroke:#000000;stroke-width:32;stroke-linecap:round;stroke-miterlimit:10;}
	.st6{fill:none;stroke:#000000;stroke-width:32;stroke-linecap:round;stroke-miterlimit:10;}
	.st7{fill:none;stroke:#000000;stroke-width:32;stroke-linecap:round;stroke-linejoin:round;stroke-miterlimit:10;}
	.st8{fill:none;stroke:#000000;stroke-width:64;stroke-linecap:round;stroke-linejoin:round;stroke-miterlimit:10;}
	.st9{fill:none;stroke:#FFFFFF;stroke-width:32;stroke-linecap:round;stroke-linejoin:round;stroke-miterlimit:10;}
	.st10{fill:#FFFFFF;}
	.st11{stroke:#000000;stroke-width:32;stroke-linejoin:round;stroke-miterlimit:10;}
	.st12{fill:none;stroke:#000000;stroke-width:32;stroke-linejoin:round;stroke-miterlimit:10;}
	.st13{fill:none;stroke:#000000;stroke-width:64;stroke-linejoin:round;stroke-miterlimit:10;}
	.st14{fill:none;stroke:#000000;stroke-width:96;stroke-linejoin:round;stroke-miterlimit:10;}
	.st15{fill:none;stroke:#FFFFFF;stroke-width:64;stroke-linejoin:round;stroke-miterlimit:10;}
</style>
<path d="M256,0C114.6,0,0,114.6,0,256c0,141.4,114.6,256,256,256s256-114.6,256-256C512,114.6,397.4,0,256,0z M369.1,142.9
	c11.7,11.7,21.3,24.9,28.8,39.1h-66.3c-2.4-26.1-6.1-50.5-10.8-72.4C338.6,117.5,355,128.7,369.1,142.9z M266.2,47.4
	c6.7,12.1,13.1,28.9,18.4,48.8c6.7,25.1,11.7,54.3,14.8,85.8h-87c3.1-31.5,8.1-60.7,14.8-85.8c5.3-19.9,11.7-36.7,18.4-48.8
	c4.3-7.7,7.9-12,10.2-14.1C258.3,35.4,262,39.8,266.2,47.4z M142.9,142.9c14.2-14.2,30.5-25.4,48.3-33.2
	c-4.7,21.9-8.4,46.2-10.8,72.4h-66.3C121.5,167.8,131.2,154.6,142.9,142.9z M96,256c0-14.4,1.9-28.5,5.5-42h76.5
	c-0.7,13.7-1.1,27.7-1.1,42s0.4,28.3,1.1,42h-76.5C97.9,284.5,96,270.4,96,256z M142.9,369.1c-11.7-11.7-21.3-24.9-28.8-39.1h66.3
	c2.4,26.1,6.1,50.5,10.8,72.4C173.4,394.5,157,383.3,142.9,369.1z M245.8,464.6c-6.7-12.1-13.1-28.9-18.4-48.8
	c-6.7-25.1-11.7-54.3-14.8-85.8h87c-3.1,31.5-8.1,60.7-14.8,85.8c-5.3,19.9-11.7,36.7-18.4,48.8c-4.3,7.7-7.9,12-10.2,14.1
	C253.7,476.6,250,472.2,245.8,464.6z M301.9,298h-91.8c-0.7-13.8-1.1-27.8-1.1-42s0.4-28.2,1.1-42h91.8c0.7,13.8,1.1,27.8,1.1,42
	S302.6,284.2,301.9,298z M369.1,369.1c-14.2,14.2-30.5,25.4-48.3,33.2c4.7-21.9,8.4-46.2,10.8-72.4h66.3
	C390.5,344.2,380.8,357.4,369.1,369.1z M410.5,298h-76.5c0.7-13.7,1.1-27.7,1.1-42s-0.4-28.3-1.1-42h76.5c3.7,13.5,5.5,27.6,5.5,42
	S414.1,284.5,410.5,298z"/>
</svg>
