<?xml version="1.0" encoding="utf-8"?>
<!-- Generator: Adobe Illustrator 21.0.0, SVG Export Plug-In . SVG Version: 6.00 Build 0)  -->
<svg version="1.1" id="Livello_1" xmlns="http://www.w3.org/2000/svg" xmlns:xlink="http://www.w3.org/1999/xlink" x="0px" y="0px"
	 viewBox="0 0 512 512" style="enable-background:new 0 0 512 512;" xml:space="preserve">
<g>
	<path d="M481.9,414.1l-112-112c16.6-28.2,26.1-61,26.1-96.1c0-104.9-85.1-190-190-190S16,101.1,16,206s85.1,190,190,190
		c35.1,0,67.9-9.5,96.1-26.1l112,112h0c8.7,8.7,20.7,14.1,33.9,14.1c26.5,0,48-21.5,48-48C496,434.7,490.6,422.7,481.9,414.1
		L481.9,414.1z M139.5,272.5C121.8,254.7,112,231.1,112,206s9.8-48.7,27.5-66.5S180.9,112,206,112s48.7,9.8,66.5,27.5
		S300,180.9,300,206s-9.8,48.7-27.5,66.5S231.1,300,206,300S157.3,290.2,139.5,272.5z"/>
</g>
</svg>
