<?xml version="1.0" encoding="utf-8"?>
<!-- Generator: Adobe Illustrator 21.0.0, SVG Export Plug-In . SVG Version: 6.00 Build 0)  -->
<svg version="1.1" id="Livello_1" xmlns="http://www.w3.org/2000/svg" xmlns:xlink="http://www.w3.org/1999/xlink" x="0px" y="0px"
	 viewBox="0 0 512 512" style="enable-background:new 0 0 512 512;" xml:space="preserve">
<style type="text/css">
	.st0{stroke:#000000;stroke-width:32;stroke-miterlimit:10;}
	.st1{stroke:#000000;stroke-width:64;stroke-miterlimit:10;}
	.st2{stroke:#000000;stroke-width:96;stroke-miterlimit:10;}
	.st3{fill:none;stroke:#FFFFFF;stroke-width:32;stroke-miterlimit:10;}
</style>
<g>
	<path d="M256,96c19.3,0,35,15.7,35,35s-15.7,35-35,35s-35-15.7-35-35S236.7,96,256,96 M256,0c-72.3,0-131,58.7-131,131
		c0,72.3,58.7,131,131,131s131-58.7,131-131C387,58.7,328.3,0,256,0L256,0z"/>
</g>
<g>
	<path d="M318.2,382c26.8,3.4,48.1,8,63.2,13.8c4,1.5,7.2,3,9.6,4.2H120.5c9.4-5,30-12.6,73.2-18H318.2 M324,286H188
		C85.8,297.8,16,327.6,16,416v80h480v-80C496,328.1,426.2,297.9,324,286L324,286z"/>
</g>
</svg>
