<?xml version="1.0" encoding="utf-8"?>
<!-- Generator: Adobe Illustrator 21.0.2, SVG Export Plug-In . SVG Version: 6.00 Build 0)  -->
<svg version="1.1" xmlns="http://www.w3.org/2000/svg" xmlns:xlink="http://www.w3.org/1999/xlink" x="0px" y="0px"
	 viewBox="0 0 512 512" style="enable-background:new 0 0 512 512;" xml:space="preserve">
<style type="text/css">
	.st0{opacity:0.2;}
	.st1{stroke:#000000;stroke-width:64;stroke-miterlimit:10;}
	.st2{fill:none;stroke:#000000;stroke-width:64;stroke-miterlimit:10;}
	.st3{stroke:#000000;stroke-width:32;stroke-miterlimit:10;}
</style>
<g id="Livello_2">
</g>
<g id="Livello_1">
	<g>
		<path d="M474,141.3c-6-8.3-15.7-13.3-26-13.3H128V64c0-17.7-14.3-32-32-32H32.5c-0.2,0-0.3,0-0.5,0C14.3,32,0,46.3,0,64
			c0,17.7,14.3,32,32,32v0h32v256c0,17.7,14.3,32,32,32h288c13.8,0,26-8.8,30.4-21.9l64-192C481.6,160.4,480,149.6,474,141.3z
			 M360.9,320H128V192h275.6L360.9,320z"/>
		<circle cx="112" cy="464" r="48"/>
		<circle cx="368" cy="464" r="48"/>
	</g>
</g>
</svg>
