<?xml version="1.0" encoding="utf-8"?>
<!-- Generator: Adobe Illustrator 21.0.0, SVG Export Plug-In . SVG Version: 6.00 Build 0)  -->
<svg version="1.1" id="Livello_1" xmlns="http://www.w3.org/2000/svg" xmlns:xlink="http://www.w3.org/1999/xlink" x="0px" y="0px"
	 viewBox="0 0 512 512" style="enable-background:new 0 0 512 512;" xml:space="preserve">
<style type="text/css">
	.st0{stroke:#000000;stroke-width:32;stroke-linejoin:round;stroke-miterlimit:10;}
	.st1{stroke:#000000;stroke-width:64;stroke-miterlimit:10;}
	.st2{stroke:#000000;stroke-width:32;stroke-miterlimit:10;}
	.st3{stroke:#000000;stroke-width:96;stroke-miterlimit:10;}
	.st4{fill:none;stroke:#FFFFFF;stroke-width:32;stroke-miterlimit:10;}
	.st5{fill:none;stroke:#000000;stroke-width:32;stroke-linejoin:round;stroke-miterlimit:10;}
	.st6{fill:none;stroke:#000000;stroke-width:64;stroke-linejoin:round;stroke-miterlimit:10;}
	.st7{fill:none;stroke:#000000;stroke-width:96;stroke-linejoin:round;stroke-miterlimit:10;}
	.st8{fill:#FFFFFF;}
	.st9{fill:none;stroke:#FFFFFF;stroke-width:64;stroke-linejoin:round;stroke-miterlimit:10;}
</style>
<path d="M437,75C388.7,26.6,324.4,0,256,0S123.3,26.6,75,75C26.6,123.3,0,187.6,0,256s26.6,132.7,75,181s112.6,75,181,75
	s132.7-26.6,181-75s75-112.6,75-181S485.4,123.3,437,75z M369.8,324.6l-45.3,45.3L256,301.3l-68.6,68.6l-45.3-45.3l68.6-68.6
	l-68.6-68.6l45.3-45.3l68.6,68.6l68.6-68.6l45.3,45.3L301.3,256L369.8,324.6z"/>
</svg>
