<?xml version="1.0" encoding="utf-8"?>
<!-- Generator: Adobe Illustrator 22.0.1, SVG Export Plug-In . SVG Version: 6.00 Build 0)  -->
<svg version="1.1" xmlns="http://www.w3.org/2000/svg" xmlns:xlink="http://www.w3.org/1999/xlink" x="0px" y="0px"
	 viewBox="0 0 512 512" style="enable-background:new 0 0 512 512;" xml:space="preserve">
<g id="Livello_2">
</g>
<g id="Livello_1">
	<path d="M256,32C132.3,32,32,132.3,32,256c0,123.7,100.3,224,224,224s224-100.3,224-224C480,132.3,379.7,32,256,32z M347.3,347.3
		c-3.1,3.1-7.2,4.7-11.3,4.7s-8.2-1.6-11.3-4.7l-80-80c-0.4-0.4-0.7-0.8-1.1-1.2c-0.1-0.2-0.3-0.4-0.4-0.6c-0.2-0.2-0.4-0.5-0.5-0.7
		c-0.2-0.2-0.3-0.5-0.4-0.7c-0.1-0.2-0.3-0.4-0.4-0.6c-0.1-0.2-0.2-0.5-0.4-0.7c-0.1-0.2-0.2-0.5-0.3-0.7c-0.1-0.2-0.2-0.5-0.3-0.7
		c-0.1-0.2-0.2-0.5-0.3-0.8c-0.1-0.2-0.1-0.5-0.2-0.7c-0.1-0.3-0.1-0.5-0.2-0.8c-0.1-0.3-0.1-0.6-0.1-0.9c0-0.2-0.1-0.4-0.1-0.7
		c-0.1-0.5-0.1-1.1-0.1-1.6V144c0-8.8,7.2-16,16-16s16,7.2,16,16v105.4l75.3,75.3C353.6,330.9,353.6,341.1,347.3,347.3z"/>
</g>
</svg>
