<?xml version="1.0" encoding="utf-8"?>
<!-- Generator: Adobe Illustrator 21.0.0, SVG Export Plug-In . SVG Version: 6.00 Build 0)  -->
<svg version="1.1" id="Livello_1" xmlns="http://www.w3.org/2000/svg" xmlns:xlink="http://www.w3.org/1999/xlink" x="0px" y="0px"
	 viewBox="0 0 512 512" style="enable-background:new 0 0 512 512;" xml:space="preserve">
<style type="text/css">
	.st0{stroke:#000000;stroke-width:64;stroke-miterlimit:10;}
	.st1{stroke:#000000;stroke-width:32;stroke-miterlimit:10;}
	.st2{stroke:#000000;stroke-width:96;stroke-miterlimit:10;}
	.st3{fill:none;stroke:#FFFFFF;stroke-width:32;stroke-miterlimit:10;}
	.st4{fill:none;stroke:#000000;stroke-width:32;stroke-linejoin:round;stroke-miterlimit:10;}
	.st5{fill:none;stroke:#000000;stroke-width:64;stroke-linejoin:round;stroke-miterlimit:10;}
	.st6{fill:none;stroke:#000000;stroke-width:96;stroke-linejoin:round;stroke-miterlimit:10;}
</style>
<g>
	<g>
		<path d="M256,208c-26.5,0-48,21.5-48,48s21.5,48,48,48s48-21.5,48-48S282.5,208,256,208z"/>
	</g>
	<g>
		<path d="M256,106C123.5,106,16,256,16,256s107.5,150,240,150s240-150,240-150S388.5,106,256,106z M256,336c-44.2,0-80-35.8-80-80
			s35.8-80,80-80s80,35.8,80,80S300.2,336,256,336z"/>
	</g>
</g>
</svg>
