<?xml version="1.0" encoding="utf-8"?>
<!-- Generator: Adobe Illustrator 21.0.2, SVG Export Plug-In . SVG Version: 6.00 Build 0)  -->
<svg version="1.1" id="Livello_1" xmlns="http://www.w3.org/2000/svg" xmlns:xlink="http://www.w3.org/1999/xlink" x="0px" y="0px"
	 viewBox="0 0 512 512" style="enable-background:new 0 0 512 512;" xml:space="preserve">
<g>
	<g>
		<path d="M256,192c-35.3,0-64,28.7-64,64s28.7,64,64,64s64-28.7,64-64S291.3,192,256,192z"/>
	</g>
	<g>
		<path d="M256,96C123.5,96,0,256,0,256s123.5,160,256,160s256-160,256-160S388.5,96,256,96z M256,352c-53,0-96-43-96-96
			c0-53,43-96,96-96s96,43,96,96C352,309,309,352,256,352z"/>
	</g>
</g>
</svg>
