<?xml version="1.0" encoding="utf-8"?>
<!-- Generator: Adobe Illustrator 21.1.0, SVG Export Plug-In . SVG Version: 6.00 Build 0)  -->
<svg version="1.1" id="Livello_1" xmlns="http://www.w3.org/2000/svg" xmlns:xlink="http://www.w3.org/1999/xlink" x="0px" y="0px"
	 viewBox="0 0 512 512" style="enable-background:new 0 0 512 512;" xml:space="preserve">
<g>
	<path d="M416,32H96c-35.3,0-64,28.7-64,64v320c0,35.3,28.7,64,64,64h160V308h-64v-70h64v-51.1c0-58.2,32-90.9,84-90.9
		c24.9,0,45.8,3.2,52,4v60h-33.1c-28.3,0-38.9,14.7-38.9,34.4V238h78l-14,70h-64v172h96c35.3,0,64-28.7,64-64V96
		C480,60.7,451.3,32,416,32z"/>
</g>
</svg>
