<?xml version="1.0" encoding="utf-8"?>
<!-- Generator: Adobe Illustrator 21.0.2, SVG Export Plug-In . SVG Version: 6.00 Build 0)  -->
<svg version="1.1" id="Livello_1" xmlns="http://www.w3.org/2000/svg" xmlns:xlink="http://www.w3.org/1999/xlink" x="0px" y="0px"
	 viewBox="0 0 512 512" style="enable-background:new 0 0 512 512;" xml:space="preserve">
<g>
	<path d="M432,16H80c-35.3,0-64,28.7-64,64v352c0,35.3,28.7,64,64,64h194V312h-66v-74h66v-54c0-62,34.7-96,90-96
		c26.5,0,49.4,3.1,56,4v64h-36c-30.1,0-38,15-38,36v46h72l-10,74h-62v184h86c35.3,0,64-28.7,64-64V80C496,44.7,467.3,16,432,16z"/>
</g>
</svg>
