<?xml version="1.0" encoding="utf-8"?>
<!-- Generator: Adobe Illustrator 21.0.2, SVG Export Plug-In . SVG Version: 6.00 Build 0)  -->
<svg version="1.1" id="Livello_1" xmlns="http://www.w3.org/2000/svg" xmlns:xlink="http://www.w3.org/1999/xlink" x="0px" y="0px"
	 viewBox="0 0 512 512" style="enable-background:new 0 0 512 512;" xml:space="preserve">
<style type="text/css">
	.st0{stroke:#000000;stroke-width:32;stroke-miterlimit:10;}
	.st1{stroke:#000000;stroke-width:64;stroke-miterlimit:10;}
	.st2{stroke:#000000;stroke-width:96;stroke-miterlimit:10;}
	.st3{fill:none;stroke:#000000;stroke-width:32;stroke-miterlimit:10;}
	.st4{fill:none;stroke:#FFFFFF;stroke-width:32;stroke-miterlimit:10;}
	.st5{stroke:#000000;stroke-width:32;stroke-linecap:round;stroke-miterlimit:10;}
	.st6{fill:none;stroke:#000000;stroke-width:32;stroke-linecap:round;stroke-miterlimit:10;}
	.st7{fill:none;stroke:#000000;stroke-width:32;stroke-linecap:round;stroke-linejoin:round;stroke-miterlimit:10;}
	.st8{fill:none;stroke:#000000;stroke-width:64;stroke-linecap:round;stroke-linejoin:round;stroke-miterlimit:10;}
	.st9{fill:none;stroke:#FFFFFF;stroke-width:32;stroke-linecap:round;stroke-linejoin:round;stroke-miterlimit:10;}
	.st10{fill:#FFFFFF;}
	.st11{stroke:#000000;stroke-width:32;stroke-linejoin:round;stroke-miterlimit:10;}
	.st12{fill:none;stroke:#000000;stroke-width:32;stroke-linejoin:round;stroke-miterlimit:10;}
	.st13{fill:none;stroke:#000000;stroke-width:64;stroke-linejoin:round;stroke-miterlimit:10;}
	.st14{fill:none;stroke:#000000;stroke-width:96;stroke-linejoin:round;stroke-miterlimit:10;}
	.st15{fill:none;stroke:#FFFFFF;stroke-width:64;stroke-linejoin:round;stroke-miterlimit:10;}
</style>
<g>
	<g>
		<path d="M490.9,154C458.9,80.6,393.6,25.1,314.1,6.6c23,33,40.9,85,50.5,147.4H490.9z"/>
	</g>
	<g>
		<path d="M197.9,6.6C118.4,25.1,53.1,80.6,21.1,154h126.3C157,91.7,175,39.6,197.9,6.6z"/>
	</g>
	<g>
		<path d="M179.9,154h152.2c-0.3-1.6-0.5-3.2-0.8-4.7c-5.5-32-13.2-60.6-23-85c-9-22.4-19.5-40.2-30.4-51.6C272.5,6.9,264.2,0,256,0
			s-16.5,6.9-22,12.7c-10.9,11.4-21.4,29.2-30.4,51.6c-9.8,24.3-17.5,52.9-23,85C180.4,150.8,180.1,152.4,179.9,154z"/>
	</g>
	<g>
		<path d="M140,256c0-24.1,1.2-47.6,3.5-70H9.7C3.4,208.2,0,231.7,0,256s3.4,47.8,9.7,70h133.8C141.2,303.6,140,280.1,140,256z"/>
	</g>
	<g>
		<path d="M172,256c0,23.9,1.2,47.3,3.6,70h160.8c2.4-22.7,3.6-46.1,3.6-70s-1.2-47.3-3.6-70H175.6C173.2,208.7,172,232.1,172,256z"
			/>
	</g>
	<g>
		<path d="M502.3,186H368.5c2.3,22.4,3.5,45.9,3.5,70s-1.2,47.6-3.5,70h133.8c6.3-22.2,9.7-45.7,9.7-70S508.6,208.2,502.3,186z"/>
	</g>
	<g>
		<path d="M332.1,358H179.9c0.3,1.6,0.5,3.2,0.8,4.7c5.5,32,13.2,60.6,23,85c9,22.4,19.5,40.2,30.4,51.6c5.5,5.8,13.8,12.7,22,12.7
			s16.5-6.9,22-12.7c10.9-11.4,21.4-29.2,30.4-51.6c9.8-24.3,17.5-52.9,23-85C331.6,361.2,331.9,359.6,332.1,358z"/>
	</g>
	<g>
		<path d="M21.1,358c31.9,73.4,97.3,128.9,176.8,147.4c-23-33-40.9-85-50.5-147.4H21.1z"/>
	</g>
	<g>
		<path d="M314.1,505.4c79.5-18.4,144.9-74,176.8-147.4H364.5C355,420.3,337,472.4,314.1,505.4z"/>
	</g>
</g>
</svg>
