<?xml version="1.0" encoding="utf-8"?>
<!-- Generator: Adobe Illustrator 21.1.0, SVG Export Plug-In . SVG Version: 6.00 Build 0)  -->
<svg version="1.1" id="Livello_1" xmlns="http://www.w3.org/2000/svg" xmlns:xlink="http://www.w3.org/1999/xlink" x="0px" y="0px"
	 viewBox="0 0 512 512" style="enable-background:new 0 0 512 512;" xml:space="preserve">
<g>
	<g>
		<path d="M314.3,160c-4.5-36.4-11.5-69.6-20.8-97.5C276.3,10.9,258.8,0,256,0c0,0,0,0,0,0s0,0,0,0c-2.8,0-20.3,10.9-37.5,62.5
			c-9.3,28-16.4,61.2-20.8,97.5H314.3z"/>
	</g>
	<g>
		<path d="M320,256c0-21.9-0.8-43.3-2.5-64H194.5c-1.6,20.7-2.5,42.1-2.5,64s0.8,43.3,2.5,64h123.1C319.2,299.3,320,277.9,320,256z"
			/>
	</g>
	<g>
		<path d="M346.5,160h146.8C461,80.1,389.5,20.3,302.7,4.3C322.9,38.2,338.7,93.5,346.5,160z"/>
	</g>
	<g>
		<path d="M503.9,320c5.3-20.5,8.1-41.9,8.1-64c0-22.1-2.8-43.5-8.1-64H349.6c1.6,20.6,2.4,42,2.4,64s-0.8,43.4-2.4,64H503.9z"/>
	</g>
	<g>
		<path d="M197.7,352c4.5,36.4,11.5,69.6,20.8,97.5c17.2,51.6,34.8,62.5,37.5,62.5s20.3-10.9,37.5-62.5c9.3-28,16.4-61.2,20.8-97.5
			H197.7z"/>
	</g>
	<g>
		<path d="M346.5,352c-7.8,66.5-23.6,121.8-43.9,155.7c86.9-16,158.4-75.8,190.7-155.7H346.5z"/>
	</g>
	<g>
		<path d="M165.5,160c7.8-66.5,23.6-121.8,43.9-155.7C122.5,20.3,51,80.1,18.6,160H165.5z"/>
	</g>
	<g>
		<path d="M165.5,352H18.6C51,431.9,122.5,491.7,209.3,507.7C189.1,473.8,173.3,418.5,165.5,352z"/>
	</g>
	<g>
		<path d="M8.1,192C2.8,212.5,0,233.9,0,256c0,22.1,2.8,43.5,8.1,64h154.3c-1.6-20.6-2.4-42-2.4-64s0.8-43.4,2.4-64H8.1z"/>
	</g>
</g>
</svg>
