<?xml version="1.0" encoding="utf-8"?>
<!-- Generator: Adobe Illustrator 21.1.0, SVG Export Plug-In . SVG Version: 6.00 Build 0)  -->
<svg version="1.1" id="Livello_1" xmlns="http://www.w3.org/2000/svg" xmlns:xlink="http://www.w3.org/1999/xlink" x="0px" y="0px"
	 viewBox="0 0 512 512" style="enable-background:new 0 0 512 512;" xml:space="preserve">
<g>
	<path d="M352,32c-34.2,0-66.3,13.3-90.5,37.5c-1.9,1.9-3.7,3.8-5.5,5.8c-1.8-2-3.6-3.9-5.5-5.8C226.3,45.3,194.2,32,160,32
		c-17.3,0-34.2,3.5-50.1,10.4c-15.2,6.6-28.8,15.9-40.6,27.7c-11.7,11.8-20.8,25.4-27.3,40.6C35.4,126.4,32,143,32,160
		c0,58.5,34.8,129.4,103.6,210.5c49.1,58,97.5,99.9,99.5,101.7l20.9,18l20.9-18c2-1.8,50.5-43.7,99.5-101.7
		C445.2,289.4,480,218.5,480,160c0-17.2-3.4-33.9-10.1-49.6c-6.4-15.2-15.7-28.9-27.4-40.6C418.3,45.4,386.2,32,352,32L352,32z"/>
</g>
</svg>
