<?xml version="1.0" encoding="utf-8"?>
<!-- Generator: Adobe Illustrator 21.1.0, SVG Export Plug-In . SVG Version: 6.00 Build 0)  -->
<svg version="1.1" id="Livello_1" xmlns="http://www.w3.org/2000/svg" xmlns:xlink="http://www.w3.org/1999/xlink" x="0px" y="0px"
	 viewBox="0 0 512 512" style="enable-background:new 0 0 512 512;" xml:space="preserve">
<g>
	<g>
		<path d="M478.7,163.6c-1.1-23.8-4.9-40.1-10.4-54.4c-5.7-14.7-13.4-27.2-25.8-39.7c-12.5-12.5-24.9-20.1-39.7-25.8
			c-14.2-5.5-30.5-9.3-54.4-10.4C324.5,32.3,316.8,32,256,32s-68.5,0.3-92.4,1.3c-23.8,1.1-40.1,4.9-54.4,10.4
			C94.5,49.5,82,57.1,69.6,69.6C57.1,82,49.5,94.5,43.8,109.3c-5.5,14.2-9.3,30.5-10.4,54.4C32.3,187.5,32,195.2,32,256
			c0,60.8,0.3,68.5,1.3,92.4c1.1,23.8,4.9,40.1,10.4,54.4c5.7,14.7,13.4,27.2,25.8,39.7c12.5,12.5,24.9,20.1,39.7,25.8
			c14.2,5.5,30.5,9.3,54.4,10.4c23.9,1.1,31.5,1.3,92.4,1.3s68.5-0.3,92.4-1.3c23.8-1.1,40.1-4.9,54.4-10.4
			c14.7-5.7,27.2-13.4,39.7-25.8c12.5-12.5,20.1-24.9,25.8-39.7c5.5-14.2,9.3-30.5,10.4-54.4c1.1-23.9,1.3-31.5,1.3-92.4
			C480,195.2,479.7,187.5,478.7,163.6z M256,384c-70.7,0-128-57.3-128-128c0-70.7,57.3-128,128-128s128,57.3,128,128
			C384,326.7,326.7,384,256,384z M384,160c-17.7,0-32-14.3-32-32c0-17.7,14.3-32,32-32s32,14.3,32,32C416,145.7,401.7,160,384,160z"
			/>
	</g>
	<g>
		<path d="M256,160c-52.9,0-96,43.1-96,96c0,52.9,43.1,96,96,96s96-43.1,96-96C352,203.1,308.9,160,256,160z"/>
	</g>
</g>
</svg>
