<?xml version="1.0" encoding="utf-8"?>
<!-- Generator: Adobe Illustrator 21.0.2, SVG Export Plug-In . SVG Version: 6.00 Build 0)  -->
<svg version="1.1" id="Livello_1" xmlns="http://www.w3.org/2000/svg" xmlns:xlink="http://www.w3.org/1999/xlink" x="0px" y="0px"
	 viewBox="0 0 512 512" style="enable-background:new 0 0 512 512;" xml:space="preserve">
<style type="text/css">
	.st0{stroke:#000000;stroke-width:32;stroke-linecap:round;stroke-linejoin:round;stroke-miterlimit:10;}
</style>
<g>
	<path d="M432,16H80c-35.3,0-64,28.7-64,64v352c0,35.3,28.7,64,64,64h352c35.3,0,64-28.7,64-64V80C496,44.7,467.3,16,432,16z
		 M184,384h-54V212h54V384z M157.2,188.7c-17.3,0-31.2-14-31.2-31.2c0-17.3,14-31.3,31.2-31.3c17.2,0,31.2,14,31.2,31.3
		C188.5,174.7,174.5,188.7,157.2,188.7z M386,384h-54v-82c0-20.1-0.3-48-28-48c-28,0-32,23.4-32,46l-0.2,84H218V212h52v24
		c7.2-13.6,23.8-28,50-28c54.6,0,66,35.3,66,82V384z"/>
</g>
</svg>
