<?xml version="1.0" encoding="utf-8"?>
<!-- Generator: Adobe Illustrator 22.0.0, SVG Export Plug-In . SVG Version: 6.00 Build 0)  -->
<svg version="1.1" id="Livello_1" xmlns="http://www.w3.org/2000/svg" xmlns:xlink="http://www.w3.org/1999/xlink" x="0px" y="0px"
	 viewBox="0 0 512 512" style="enable-background:new 0 0 512 512;" xml:space="preserve">
<style type="text/css">
	.st0{fill:none;stroke:#000000;stroke-width:32;stroke-miterlimit:10;}
	.st1{fill:#110B0B;}
</style>
<g>
	<g>
		<path d="M460,128h-12v107.7c0,46.3-37.7,84-84,84l-223.5,0.2L96,352.7V364c0,28.7,23.3,52,52,52l234,0.2L512,512V412v-0.2V180
			C512,151.3,488.7,128,460,128z"/>
	</g>
	<g>
		<path d="M364,287.7c28.7,0,52-23.3,52-52v-184c0-28.7-23.3-52-52-52H52C23.3-0.3,0,23,0,51.7v231.8v0.2v100l130-95.8L364,287.7z"
			/>
	</g>
</g>
</svg>
