<?xml version="1.0" encoding="utf-8"?>
<!-- Generator: Adobe Illustrator 22.1.0, SVG Export Plug-In . SVG Version: 6.00 Build 0)  -->
<svg version="1.1" xmlns="http://www.w3.org/2000/svg" xmlns:xlink="http://www.w3.org/1999/xlink" x="0px" y="0px"
	 viewBox="0 0 512 512" style="enable-background:new 0 0 512 512;" xml:space="preserve">
<g id="Livello_2">
</g>
<g id="Livello_1">
	<g>
		<path d="M128,224c53,0,96-43,96-96c0-53-43-96-96-96s-96,43-96,96C32,181,75,224,128,224z M128,96c17.6,0,32,14.4,32,32
			s-14.4,32-32,32s-32-14.4-32-32S110.4,96,128,96z"/>
		<path d="M384,288c-53,0-96,43-96,96c0,53,43,96,96,96s96-43,96-96C480,331,437,288,384,288z M384,416c-17.6,0-32-14.4-32-32
			s14.4-32,32-32s32,14.4,32,32S401.6,416,384,416z"/>
		<path d="M470.8,41.5C458.3,29,438,29,425.5,41.5L41.3,425.2c-12.5,12.5-12.5,32.7,0,45.3c6.2,6.3,14.4,9.4,22.6,9.4
			c8.2,0,16.4-3.1,22.6-9.4L470.7,86.8C483.3,74.3,483.3,54,470.8,41.5z"/>
	</g>
</g>
</svg>
