<?xml version="1.0" encoding="utf-8"?>
<!-- Generator: Adobe Illustrator 22.1.0, SVG Export Plug-In . SVG Version: 6.00 Build 0)  -->
<svg version="1.1" xmlns="http://www.w3.org/2000/svg" xmlns:xlink="http://www.w3.org/1999/xlink" x="0px" y="0px"
	 viewBox="0 0 512 512" style="enable-background:new 0 0 512 512;" xml:space="preserve">
<g id="Livello_2">
</g>
<g id="Livello_1">
	<g>
		<path d="M448,224c0-17.7-14.3-32-32-32h-32V64c0-17.7-14.3-32-32-32s-32,14.3-32,32v128h-32l160,160V224z"/>
		<path d="M502.6,457.1L192,146.5V64c0-17.7-14.3-32-32-32s-32,14.3-32,32v18.5L54.6,9.1C42.1-3.4,21.9-3.4,9.4,9.1
			c-12.5,12.5-12.5,32.8,0,45.3L128,173v19H96c-17.7,0-32,14.3-32,32v143.3c0,10.6,5.3,20.6,14.1,26.5l81.6,55.1V512h191.5l-1-63.1
			l32.3-21.4l74.8,74.8c6.2,6.2,14.4,9.4,22.6,9.4s16.4-3.1,22.6-9.4C515.1,489.9,515.1,469.6,502.6,457.1z"/>
	</g>
</g>
</svg>
