<?xml version="1.0" encoding="utf-8"?>
<!-- Generator: Adobe Illustrator 22.1.0, SVG Export Plug-In . SVG Version: 6.00 Build 0)  -->
<svg version="1.1" xmlns="http://www.w3.org/2000/svg" xmlns:xlink="http://www.w3.org/1999/xlink" x="0px" y="0px"
	 viewBox="0 0 512 512" style="enable-background:new 0 0 512 512;" xml:space="preserve">
<style type="text/css">
	.st0{fill:none;stroke:#000000;stroke-miterlimit:10;}
</style>
<g id="Livello_2">
</g>
<g id="Livello_1">
	<g>
		<path d="M160,457.1c0,12.6,10.2,22.9,22.9,22.9h274.3c12.6,0,22.9-10.2,22.9-22.9V320H160V457.1z M256,384h128v64H256V384z"/>
		<path d="M32,192v137.1c0,12.6,10.2,22.9,22.9,22.9H128v-71.4c0-9.9,2.7-19.7,7.8-28.2l36.2-60.4H32z"/>
		<path d="M476.7,268.9l-58.7-97.8c-4.1-6.9-11.6-11.1-19.6-11.1H336v128h144v-7.4C480,276.5,478.9,272.4,476.7,268.9z"/>
		<path d="M221.9,171.1l-58.7,97.8c-2.1,3.6-3.3,7.6-3.3,11.8v7.4h144V160h-62.5C233.5,160,226,164.2,221.9,171.1z"/>
		<path d="M176,32h-62.5c-8,0-15.5,4.2-19.6,11.1l-58.7,97.8c-2.1,3.6-3.3,7.6-3.3,11.8v7.4h144V32z"/>
		<path d="M341,128l-50.9-84.9C286,36.2,278.5,32,270.5,32H208v107.5c9.5-7.3,21.3-11.5,33.5-11.5H341z"/>
	</g>
</g>
</svg>
