<?xml version="1.0" encoding="utf-8"?>
<!-- Generator: Adobe Illustrator 22.1.0, SVG Export Plug-In . SVG Version: 6.00 Build 0)  -->
<svg version="1.1" xmlns="http://www.w3.org/2000/svg" xmlns:xlink="http://www.w3.org/1999/xlink" x="0px" y="0px"
	 viewBox="0 0 512 512" style="enable-background:new 0 0 512 512;" xml:space="preserve">
<style type="text/css">
	.st0{fill:none;stroke:#000000;stroke-miterlimit:10;}
</style>
<g id="Livello_2">
</g>
<g id="Livello_1">
	<g>
		<g>
			<path d="M32,224v224c0,17.7,14.3,32,32,32h384c17.7,0,32-14.3,32-32V224H32z M320,384H192v-64h128V384z"/>
		</g>
		<g>
			<path d="M475.4,184.4L393.3,47.5c-5.8-9.6-16.2-15.5-27.4-15.5H272v160h206.7C478,189.3,476.9,186.8,475.4,184.4z"/>
		</g>
		<g>
			<path d="M240,32h-93.9c-11.2,0-21.7,5.9-27.4,15.5L36.6,184.4c-1.4,2.4-2.5,4.9-3.3,7.6H240V32z"/>
		</g>
	</g>
</g>
</svg>
