<?xml version="1.0" encoding="utf-8"?>
<!-- Generator: Adobe Illustrator 22.1.0, SVG Export Plug-In . SVG Version: 6.00 Build 0)  -->
<svg version="1.1" xmlns="http://www.w3.org/2000/svg" xmlns:xlink="http://www.w3.org/1999/xlink" x="0px" y="0px"
	 viewBox="0 0 512 512" style="enable-background:new 0 0 512 512;" xml:space="preserve">
<style type="text/css">
	.st0{fill:none;stroke:#000000;stroke-miterlimit:10;}
</style>
<g id="Livello_2">
</g>
<g id="Livello_1">
	<g>
		<path d="M480.8,255.7c0-32.7-19.6-60.7-47.6-73.2C444,154,438,120.5,415,97.4c-23.1-23.1-56.8-29.1-85.4-18
			c-12.5-27.9-40.5-47.4-73-47.4c-32.7,0-60.7,19.6-73.2,47.6c-28.6-10.9-62.1-4.9-85.2,18.1c-23.1,23.1-29.1,56.8-18,85.4
			c-27.9,12.5-47.4,40.5-47.4,73c0,32.7,19.6,60.7,47.6,73.2c-10.9,28.6-4.9,62.1,18.1,85.2c23.1,23.1,56.8,29.1,85.4,18
			c12.5,27.9,40.5,47.4,73,47.4c32.7,0,60.7-19.6,73.2-47.6c28.6,10.9,62.1,4.9,85.2-18.1c23.1-23.1,29.1-56.8,18-85.4
			C461.3,316.3,480.8,288.3,480.8,255.7z"/>
	</g>
</g>
</svg>
