<?xml version="1.0" encoding="utf-8"?>
<!-- Generator: Adobe Illustrator 22.1.0, SVG Export Plug-In . SVG Version: 6.00 Build 0)  -->
<svg version="1.1" xmlns="http://www.w3.org/2000/svg" xmlns:xlink="http://www.w3.org/1999/xlink" x="0px" y="0px"
	 viewBox="0 0 512 512" style="enable-background:new 0 0 512 512;" xml:space="preserve">
<g id="Livello_2">
</g>
<g id="Livello_1">
	<g>
		<path d="M502.6,457.4L348.5,303.2c10.3-14.4,18.6-30.3,24.6-47.2H252.3c-8.8,74.4-32.5,127.7-60.3,127.7s-51.5-53.3-60.3-127.7
			H10.9c26.4,74.6,97.5,128,181.1,128c41.5,0,79.9-13.2,111.2-35.5l154.1,154.1L502.6,457.4z"/>
		<path d="M252.4,128h120.7C347.1,54.5,277.7,1.6,195.6,0C222,4.5,244,56.6,252.4,128z"/>
		<path d="M188.4,0c-82,1.5-151.4,54.5-177.4,128h120.7C140,56.6,162,4.5,188.4,0z"/>
		<path d="M173.5,77.9c-4.1,15-7.4,31.9-9.6,50.1h56.3c-2.3-18.1-5.5-35.1-9.6-50.1c-3.9-14.1-8.5-26.3-13.4-35.1
			c-2-3.6-3.7-6.1-5.1-7.9c-1.4,1.8-3.1,4.4-5.1,7.9C182,51.7,177.4,63.8,173.5,77.9z"/>
		<path d="M128,191.7c0-10.8,0.3-21.4,0.9-31.7H2.7C0.9,170.4,0,181.1,0,192c0,10.9,0.9,21.6,2.7,32h126.2
			C128.3,213.5,128,202.7,128,191.7z"/>
		<path d="M224,191.7c0-10.7-0.3-21.3-0.9-31.7h-62.1c-0.6,10.4-0.9,21-0.9,31.7c0,10.9,0.3,21.7,1,32.3H223
			C223.7,213.4,224,202.6,224,191.7z"/>
		<path d="M256,191.7c0,11-0.3,21.8-0.9,32.3h126.2c1.7-10.4,2.7-21.1,2.7-32c0-10.9-0.9-21.6-2.7-32H255.1
			C255.7,170.3,256,180.9,256,191.7z"/>
		<path d="M186.9,340.6c2,3.6,3.7,6.1,5.1,7.9c1.4-1.8,3.1-4.4,5.1-7.9c4.9-8.9,9.5-21,13.4-35.1c4.1-14.8,7.3-31.6,9.6-49.5h-56.1
			c2.3,17.9,5.5,34.7,9.6,49.5C177.4,319.6,182,331.7,186.9,340.6z"/>
	</g>
</g>
</svg>
