<?xml version="1.0" encoding="utf-8"?>
<!-- Generator: Adobe Illustrator 21.1.0, SVG Export Plug-In . SVG Version: 6.00 Build 0)  -->
<svg version="1.1" id="Livello_1" xmlns="http://www.w3.org/2000/svg" xmlns:xlink="http://www.w3.org/1999/xlink" x="0px" y="0px"
	 viewBox="0 0 512 512" style="enable-background:new 0 0 512 512;" xml:space="preserve">
<path d="M473.7,410.2L448,128h-64c-0.4-63.8-57.6-95.3-128-95.3S128.4,64.2,128,128H64L38.3,410.2c-3.4,37.5,26.1,69.8,63.7,69.8
	h307.8C447.6,480,477.1,447.7,473.7,410.2z M183.7,83c17.1-11.8,42.8-18.2,72.3-18.2c29.6,0,55.3,6.5,72.3,18.2
	c15.7,10.8,23.4,25.6,23.6,45H160C160.2,108.5,167.9,93.8,183.7,83z"/>
</svg>
