<?xml version="1.0" encoding="utf-8"?>
<!-- Generator: Adobe Illustrator 22.0.1, SVG Export Plug-In . SVG Version: 6.00 Build 0)  -->
<svg version="1.1" xmlns="http://www.w3.org/2000/svg" xmlns:xlink="http://www.w3.org/1999/xlink" x="0px" y="0px"
	 viewBox="0 0 512 512" style="enable-background:new 0 0 512 512;" xml:space="preserve">
<g id="Livello_2">
</g>
<g id="Livello_1">
	<path d="M505.2,306.5l-48.4-96.8c-5.4-10.8-16.5-17.7-28.6-17.7H352V96c0-17.7-14.3-32-32-32H32C14.3,64,0,78.3,0,96v288
		c0,17.7,14.3,32,32,32c0,35.3,28.7,64,64,64s64-28.7,64-64h128h32c0,35.3,28.7,64,64,64s64-28.7,64-64h32c17.7,0,32-14.3,32-32
		v-48.9C512,325.2,509.7,315.4,505.2,306.5z M352,320v-64h56.4l32,64H352z"/>
</g>
</svg>
