<?xml version="1.0" encoding="utf-8"?>
<!-- Generator: Adobe Illustrator 22.1.0, SVG Export Plug-In . SVG Version: 6.00 Build 0)  -->
<svg version="1.1" xmlns="http://www.w3.org/2000/svg" xmlns:xlink="http://www.w3.org/1999/xlink" x="0px" y="0px"
	 viewBox="0 0 512 512" style="enable-background:new 0 0 512 512;" xml:space="preserve">
<g id="Livello_2">
</g>
<g id="Livello_1">
	<g>
		<path d="M448,32H64c-17.7,0-32,14.3-32,32v384c0,17.7,14.3,32,32,32h384c17.7,0,32-14.3,32-32V64C480,46.3,465.7,32,448,32z
			 M320,144c0-8.8,7.2-16,16-16s16,7.2,16,16v80h-32V144z M192,368c0,8.8-7.2,16-16,16s-16-7.2-16-16v-80h32V368z M224,256h-32h-32
			h-32v-64h32v-48c0-8.8,7.2-16,16-16s16,7.2,16,16v48h32V256z M384,320h-32v48c0,8.8-7.2,16-16,16s-16-7.2-16-16v-48h-32v-64h32h32
			h32V320z"/>
	</g>
</g>
</svg>
