<?xml version="1.0" encoding="utf-8"?>
<!-- Generator: Adobe Illustrator 21.1.0, SVG Export Plug-In . SVG Version: 6.00 Build 0)  -->
<svg version="1.1" id="Livello_1" xmlns="http://www.w3.org/2000/svg" xmlns:xlink="http://www.w3.org/1999/xlink" x="0px" y="0px"
	 viewBox="0 0 512 512" style="enable-background:new 0 0 512 512;" xml:space="preserve">
<g>
	<path d="M416,32H96c-35.3,0-64,28.7-64,64v320c0,35.3,28.7,64,64,64h320c35.3,0,64-28.7,64-64V96C480,60.7,451.3,32,416,32z
		 M362.6,201.4c0.1,2.4,0.2,4.7,0.2,7.1c0,72.7-55.3,156.4-156.4,156.4c-31.1,0-59.9-9.1-84.3-24.7c4.3,0.5,8.7,0.8,13.1,0.8
		c25.8,0,49.5-8.8,68.3-23.5c-24.1-0.4-44.4-16.3-51.4-38.2c3.3,0.6,6.8,1,10.3,1c5,0,9.9-0.7,14.5-1.9c-25.2-5-44.1-27.3-44.1-53.9
		c0-0.2,0-0.5,0-0.7c7.4,4.1,15.9,6.6,24.9,6.9c-14.8-9.9-24.5-26.7-24.5-45.8c0-10.1,2.7-19.5,7.4-27.6
		c27.1,33.3,67.6,55.1,113.3,57.4c-0.9-4-1.4-8.2-1.4-12.5c0-30.4,24.6-55,55-55c15.8,0,30.1,6.7,40.1,17.4
		c12.5-2.5,24.3-7,34.9-13.3c-4.1,12.8-12.8,23.6-24.2,30.4c11.1-1.3,21.7-4.3,31.6-8.7C382.6,183.9,373.3,193.6,362.6,201.4z"/>
</g>
</svg>
