<?xml version="1.0" encoding="utf-8"?>
<!-- Generator: Adobe Illustrator 21.0.2, SVG Export Plug-In . SVG Version: 6.00 Build 0)  -->
<svg version="1.1" id="Livello_1" xmlns="http://www.w3.org/2000/svg" xmlns:xlink="http://www.w3.org/1999/xlink" x="0px" y="0px"
	 viewBox="0 0 512 512" style="enable-background:new 0 0 512 512;" xml:space="preserve">
<g>
	<path d="M400,80H112c-53,0-96,43-96,96v160c0,53,43,96,96,96h288c53,0,96-43,96-96V176C496,123,453,80,400,80z M329.9,269.9
		l-116,66c-2.5,1.4-5.2,2.1-7.9,2.1c-2.8,0-5.6-0.7-8-2.2c-4.9-2.9-8-8.1-8-13.8V190c0-5.7,3-11,8-13.8c4.9-2.9,11-2.9,16-0.1
		l116,66c5,2.8,8.1,8.2,8.1,13.9C338,261.8,334.9,267.1,329.9,269.9z"/>
</g>
</svg>
